<mxfile host="Electron" agent="Mozilla/5.0 (Windows NT 10.0; Win64; x64) AppleWebKit/537.36 (KHTML, like Gecko) draw.io/24.7.17 Chrome/128.0.6613.36 Electron/32.0.1 Safari/537.36" version="24.7.17">
  <diagram id="54ehfs4WmmA7Fh39wg9O" name="Страница 1">
    <mxGraphModel dx="1304" dy="1929" grid="1" gridSize="10" guides="1" tooltips="1" connect="1" arrows="1" fold="1" page="1" pageScale="1" pageWidth="827" pageHeight="1169" math="0" shadow="0">
      <root>
        <mxCell id="0" />
        <mxCell id="1" parent="0" />
        <mxCell id="FVAEuLFO7a_ypMNpvuLz-67" value="main" style="shape=module;align=left;spacingLeft=20;align=center;verticalAlign=top;fillColor=none;" parent="1" vertex="1">
          <mxGeometry x="180" y="49" width="430" height="310" as="geometry" />
        </mxCell>
        <mxCell id="FVAEuLFO7a_ypMNpvuLz-63" value="ny_pizza" style="shape=module;align=left;spacingLeft=20;align=center;verticalAlign=top;fillColor=none;" parent="1" vertex="1">
          <mxGeometry x="630" y="570" width="440" height="240" as="geometry" />
        </mxCell>
        <mxCell id="FVAEuLFO7a_ypMNpvuLz-62" value="pizza" style="shape=module;align=left;spacingLeft=20;align=center;verticalAlign=top;fillColor=none;" parent="1" vertex="1">
          <mxGeometry x="660" y="-130" width="970" height="650" as="geometry" />
        </mxCell>
        <mxCell id="FVAEuLFO7a_ypMNpvuLz-1" value="Client" style="swimlane;fontStyle=1;align=center;verticalAlign=top;childLayout=stackLayout;horizontal=1;startSize=26;horizontalStack=0;resizeParent=1;resizeParentMax=0;resizeLast=0;collapsible=1;marginBottom=0;" parent="1" vertex="1">
          <mxGeometry x="300" y="109" width="160" height="52" as="geometry" />
        </mxCell>
        <mxCell id="FVAEuLFO7a_ypMNpvuLz-5" value="Pizza" style="swimlane;fontStyle=3;align=center;verticalAlign=top;childLayout=stackLayout;horizontal=1;startSize=26;horizontalStack=0;resizeParent=1;resizeParentMax=0;resizeLast=0;collapsible=1;marginBottom=0;fillColor=#B6E851;" parent="1" vertex="1">
          <mxGeometry x="940" y="130" width="160" height="86" as="geometry" />
        </mxCell>
        <mxCell id="FVAEuLFO7a_ypMNpvuLz-6" value="..." style="text;strokeColor=none;fillColor=none;align=left;verticalAlign=top;spacingLeft=4;spacingRight=4;overflow=hidden;rotatable=0;points=[[0,0.5],[1,0.5]];portConstraint=eastwest;" parent="FVAEuLFO7a_ypMNpvuLz-5" vertex="1">
          <mxGeometry y="26" width="160" height="26" as="geometry" />
        </mxCell>
        <mxCell id="FVAEuLFO7a_ypMNpvuLz-7" value="" style="line;strokeWidth=1;fillColor=none;align=left;verticalAlign=middle;spacingTop=-1;spacingLeft=3;spacingRight=3;rotatable=0;labelPosition=right;points=[];portConstraint=eastwest;" parent="FVAEuLFO7a_ypMNpvuLz-5" vertex="1">
          <mxGeometry y="52" width="160" height="8" as="geometry" />
        </mxCell>
        <mxCell id="FVAEuLFO7a_ypMNpvuLz-8" value="Prepare()" style="text;strokeColor=none;fillColor=none;align=left;verticalAlign=top;spacingLeft=4;spacingRight=4;overflow=hidden;rotatable=0;points=[[0,0.5],[1,0.5]];portConstraint=eastwest;fontStyle=2" parent="FVAEuLFO7a_ypMNpvuLz-5" vertex="1">
          <mxGeometry y="60" width="160" height="26" as="geometry" />
        </mxCell>
        <mxCell id="FVAEuLFO7a_ypMNpvuLz-9" value="Use" style="endArrow=open;endSize=12;dashed=1;html=1;" parent="1" source="FVAEuLFO7a_ypMNpvuLz-1" target="FVAEuLFO7a_ypMNpvuLz-5" edge="1">
          <mxGeometry width="160" relative="1" as="geometry">
            <mxPoint x="750" y="460" as="sourcePoint" />
            <mxPoint x="910" y="460" as="targetPoint" />
          </mxGeometry>
        </mxCell>
        <mxCell id="FVAEuLFO7a_ypMNpvuLz-10" value="PizzaStore" style="swimlane;fontStyle=1;align=center;verticalAlign=top;childLayout=stackLayout;horizontal=1;startSize=26;horizontalStack=0;resizeParent=1;resizeParentMax=0;resizeLast=0;collapsible=1;marginBottom=0;strokeColor=#82b366;fillColor=#B6E851;" parent="1" vertex="1">
          <mxGeometry x="770" y="292" width="160" height="78" as="geometry" />
        </mxCell>
        <mxCell id="FVAEuLFO7a_ypMNpvuLz-12" value="OrderPizza(type):Pizza" style="text;strokeColor=none;fillColor=none;align=left;verticalAlign=top;spacingLeft=4;spacingRight=4;overflow=hidden;rotatable=0;points=[[0,0.5],[1,0.5]];portConstraint=eastwest;" parent="FVAEuLFO7a_ypMNpvuLz-10" vertex="1">
          <mxGeometry y="26" width="160" height="26" as="geometry" />
        </mxCell>
        <mxCell id="FVAEuLFO7a_ypMNpvuLz-16" value="#CreatePizza(type):Pizza" style="text;strokeColor=none;fillColor=none;align=left;verticalAlign=top;spacingLeft=4;spacingRight=4;overflow=hidden;rotatable=0;points=[[0,0.5],[1,0.5]];portConstraint=eastwest;fontStyle=2" parent="FVAEuLFO7a_ypMNpvuLz-10" vertex="1">
          <mxGeometry y="52" width="160" height="26" as="geometry" />
        </mxCell>
        <mxCell id="FVAEuLFO7a_ypMNpvuLz-11" value="" style="endArrow=diamondThin;endFill=0;endSize=24;html=1;" parent="1" source="FVAEuLFO7a_ypMNpvuLz-10" target="FVAEuLFO7a_ypMNpvuLz-1" edge="1">
          <mxGeometry width="160" relative="1" as="geometry">
            <mxPoint x="180" y="370" as="sourcePoint" />
            <mxPoint x="340" y="370" as="targetPoint" />
          </mxGeometry>
        </mxCell>
        <mxCell id="FVAEuLFO7a_ypMNpvuLz-13" value="Use" style="endArrow=open;endSize=12;dashed=1;html=1;" parent="1" source="FVAEuLFO7a_ypMNpvuLz-10" target="FVAEuLFO7a_ypMNpvuLz-5" edge="1">
          <mxGeometry width="160" relative="1" as="geometry">
            <mxPoint x="940" y="330" as="sourcePoint" />
            <mxPoint x="1100" y="330" as="targetPoint" />
          </mxGeometry>
        </mxCell>
        <mxCell id="FVAEuLFO7a_ypMNpvuLz-14" value="NYPizzaStore" style="swimlane;fontStyle=1;align=center;verticalAlign=top;childLayout=stackLayout;horizontal=1;startSize=26;horizontalStack=0;resizeParent=1;resizeParentMax=0;resizeLast=0;collapsible=1;marginBottom=0;" parent="1" vertex="1">
          <mxGeometry x="710" y="610" width="160" height="52" as="geometry" />
        </mxCell>
        <mxCell id="FVAEuLFO7a_ypMNpvuLz-17" value="#CreatePizza(type):Pizza" style="text;strokeColor=none;fillColor=none;align=left;verticalAlign=top;spacingLeft=4;spacingRight=4;overflow=hidden;rotatable=0;points=[[0,0.5],[1,0.5]];portConstraint=eastwest;fontStyle=0" parent="FVAEuLFO7a_ypMNpvuLz-14" vertex="1">
          <mxGeometry y="26" width="160" height="26" as="geometry" />
        </mxCell>
        <mxCell id="FVAEuLFO7a_ypMNpvuLz-15" value="Extends" style="endArrow=block;endSize=16;endFill=0;html=1;" parent="1" source="FVAEuLFO7a_ypMNpvuLz-14" target="FVAEuLFO7a_ypMNpvuLz-10" edge="1">
          <mxGeometry width="160" relative="1" as="geometry">
            <mxPoint x="410" y="460" as="sourcePoint" />
            <mxPoint x="570" y="460" as="targetPoint" />
          </mxGeometry>
        </mxCell>
        <mxCell id="FVAEuLFO7a_ypMNpvuLz-18" value="CheesePizza" style="swimlane;fontStyle=1;align=center;verticalAlign=top;childLayout=stackLayout;horizontal=1;startSize=26;horizontalStack=0;resizeParent=1;resizeParentMax=0;resizeLast=0;collapsible=1;marginBottom=0;" parent="1" vertex="1">
          <mxGeometry x="1450" y="400" width="160" height="86" as="geometry" />
        </mxCell>
        <mxCell id="FVAEuLFO7a_ypMNpvuLz-19" value="..." style="text;strokeColor=none;fillColor=none;align=left;verticalAlign=top;spacingLeft=4;spacingRight=4;overflow=hidden;rotatable=0;points=[[0,0.5],[1,0.5]];portConstraint=eastwest;" parent="FVAEuLFO7a_ypMNpvuLz-18" vertex="1">
          <mxGeometry y="26" width="160" height="26" as="geometry" />
        </mxCell>
        <mxCell id="FVAEuLFO7a_ypMNpvuLz-20" value="" style="line;strokeWidth=1;fillColor=none;align=left;verticalAlign=middle;spacingTop=-1;spacingLeft=3;spacingRight=3;rotatable=0;labelPosition=right;points=[];portConstraint=eastwest;" parent="FVAEuLFO7a_ypMNpvuLz-18" vertex="1">
          <mxGeometry y="52" width="160" height="8" as="geometry" />
        </mxCell>
        <mxCell id="FVAEuLFO7a_ypMNpvuLz-21" value="Prepare()" style="text;strokeColor=none;fillColor=none;align=left;verticalAlign=top;spacingLeft=4;spacingRight=4;overflow=hidden;rotatable=0;points=[[0,0.5],[1,0.5]];portConstraint=eastwest;fontStyle=0" parent="FVAEuLFO7a_ypMNpvuLz-18" vertex="1">
          <mxGeometry y="60" width="160" height="26" as="geometry" />
        </mxCell>
        <mxCell id="FVAEuLFO7a_ypMNpvuLz-22" value="Extends" style="endArrow=block;endSize=16;endFill=0;html=1;" parent="1" source="FVAEuLFO7a_ypMNpvuLz-18" target="FVAEuLFO7a_ypMNpvuLz-5" edge="1">
          <mxGeometry width="160" relative="1" as="geometry">
            <mxPoint x="839.2162275449101" y="322" as="sourcePoint" />
            <mxPoint x="827.0006586826349" y="220" as="targetPoint" />
          </mxGeometry>
        </mxCell>
        <mxCell id="FVAEuLFO7a_ypMNpvuLz-24" value="" style="endArrow=open;endSize=12;dashed=1;html=1;" parent="1" source="FVAEuLFO7a_ypMNpvuLz-14" target="FVAEuLFO7a_ypMNpvuLz-18" edge="1">
          <mxGeometry width="160" relative="1" as="geometry">
            <mxPoint x="880.0009638554218" y="654" as="sourcePoint" />
            <mxPoint x="955.9045783132531" y="570" as="targetPoint" />
          </mxGeometry>
        </mxCell>
        <mxCell id="FVAEuLFO7a_ypMNpvuLz-25" value="PizzaIngredientFactory" style="swimlane;fontStyle=3;align=center;verticalAlign=top;childLayout=stackLayout;horizontal=1;startSize=26;horizontalStack=0;resizeParent=1;resizeParentMax=0;resizeLast=0;collapsible=1;marginBottom=0;fillColor=#B6E851;" parent="1" vertex="1">
          <mxGeometry x="1190" y="380" width="210" height="78" as="geometry" />
        </mxCell>
        <mxCell id="FVAEuLFO7a_ypMNpvuLz-26" value="CreateDough():Dough" style="text;strokeColor=none;fillColor=none;align=left;verticalAlign=top;spacingLeft=4;spacingRight=4;overflow=hidden;rotatable=0;points=[[0,0.5],[1,0.5]];portConstraint=eastwest;fontStyle=2" parent="FVAEuLFO7a_ypMNpvuLz-25" vertex="1">
          <mxGeometry y="26" width="210" height="26" as="geometry" />
        </mxCell>
        <mxCell id="FVAEuLFO7a_ypMNpvuLz-29" value="CreateCheese():Cheese" style="text;strokeColor=none;fillColor=none;align=left;verticalAlign=top;spacingLeft=4;spacingRight=4;overflow=hidden;rotatable=0;points=[[0,0.5],[1,0.5]];portConstraint=eastwest;fontStyle=2" parent="FVAEuLFO7a_ypMNpvuLz-25" vertex="1">
          <mxGeometry y="52" width="210" height="26" as="geometry" />
        </mxCell>
        <mxCell id="FVAEuLFO7a_ypMNpvuLz-30" value="" style="endArrow=diamondThin;endFill=0;endSize=24;html=1;" parent="1" source="FVAEuLFO7a_ypMNpvuLz-25" target="FVAEuLFO7a_ypMNpvuLz-18" edge="1">
          <mxGeometry width="160" relative="1" as="geometry">
            <mxPoint x="890" y="728" as="sourcePoint" />
            <mxPoint x="1050" y="728" as="targetPoint" />
          </mxGeometry>
        </mxCell>
        <mxCell id="FVAEuLFO7a_ypMNpvuLz-31" value="Cheese" style="swimlane;fontStyle=1;align=center;verticalAlign=top;childLayout=stackLayout;horizontal=1;startSize=26;horizontalStack=0;resizeParent=1;resizeParentMax=0;resizeLast=0;collapsible=1;marginBottom=0;fillColor=#B6E851;" parent="1" vertex="1">
          <mxGeometry x="880" y="-90" width="160" height="52" as="geometry" />
        </mxCell>
        <mxCell id="FVAEuLFO7a_ypMNpvuLz-32" value="ToString():string" style="text;strokeColor=none;fillColor=none;align=left;verticalAlign=top;spacingLeft=4;spacingRight=4;overflow=hidden;rotatable=0;points=[[0,0.5],[1,0.5]];portConstraint=eastwest;fontStyle=2" parent="FVAEuLFO7a_ypMNpvuLz-31" vertex="1">
          <mxGeometry y="26" width="160" height="26" as="geometry" />
        </mxCell>
        <mxCell id="FVAEuLFO7a_ypMNpvuLz-35" value="Mozarella" style="swimlane;fontStyle=1;align=center;verticalAlign=top;childLayout=stackLayout;horizontal=1;startSize=26;horizontalStack=0;resizeParent=1;resizeParentMax=0;resizeLast=0;collapsible=1;marginBottom=0;" parent="1" vertex="1">
          <mxGeometry x="1420" y="182" width="160" height="52" as="geometry" />
        </mxCell>
        <mxCell id="FVAEuLFO7a_ypMNpvuLz-36" value="ToString():string" style="text;strokeColor=none;fillColor=none;align=left;verticalAlign=top;spacingLeft=4;spacingRight=4;overflow=hidden;rotatable=0;points=[[0,0.5],[1,0.5]];portConstraint=eastwest;fontStyle=0" parent="FVAEuLFO7a_ypMNpvuLz-35" vertex="1">
          <mxGeometry y="26" width="160" height="26" as="geometry" />
        </mxCell>
        <mxCell id="FVAEuLFO7a_ypMNpvuLz-37" value="Extends" style="endArrow=block;endSize=16;endFill=0;html=1;" parent="1" source="FVAEuLFO7a_ypMNpvuLz-35" target="FVAEuLFO7a_ypMNpvuLz-31" edge="1">
          <mxGeometry width="160" relative="1" as="geometry">
            <mxPoint x="1679.9962275449102" y="532" as="sourcePoint" />
            <mxPoint x="1667.780658682635" y="430" as="targetPoint" />
          </mxGeometry>
        </mxCell>
        <mxCell id="FVAEuLFO7a_ypMNpvuLz-38" value="Dough" style="swimlane;fontStyle=1;align=center;verticalAlign=top;childLayout=stackLayout;horizontal=1;startSize=26;horizontalStack=0;resizeParent=1;resizeParentMax=0;resizeLast=0;collapsible=1;marginBottom=0;fillColor=#B6E851;" parent="1" vertex="1">
          <mxGeometry x="1210" y="-60" width="160" height="52" as="geometry" />
        </mxCell>
        <mxCell id="FVAEuLFO7a_ypMNpvuLz-39" value="ToString():string" style="text;strokeColor=none;fillColor=none;align=left;verticalAlign=top;spacingLeft=4;spacingRight=4;overflow=hidden;rotatable=0;points=[[0,0.5],[1,0.5]];portConstraint=eastwest;fontStyle=2" parent="FVAEuLFO7a_ypMNpvuLz-38" vertex="1">
          <mxGeometry y="26" width="160" height="26" as="geometry" />
        </mxCell>
        <mxCell id="FVAEuLFO7a_ypMNpvuLz-40" value="ThinCrustDough" style="swimlane;fontStyle=1;align=center;verticalAlign=top;childLayout=stackLayout;horizontal=1;startSize=26;horizontalStack=0;resizeParent=1;resizeParentMax=0;resizeLast=0;collapsible=1;marginBottom=0;" parent="1" vertex="1">
          <mxGeometry x="1400" y="49" width="160" height="52" as="geometry" />
        </mxCell>
        <mxCell id="FVAEuLFO7a_ypMNpvuLz-41" value="ToString():string" style="text;strokeColor=none;fillColor=none;align=left;verticalAlign=top;spacingLeft=4;spacingRight=4;overflow=hidden;rotatable=0;points=[[0,0.5],[1,0.5]];portConstraint=eastwest;fontStyle=0" parent="FVAEuLFO7a_ypMNpvuLz-40" vertex="1">
          <mxGeometry y="26" width="160" height="26" as="geometry" />
        </mxCell>
        <mxCell id="FVAEuLFO7a_ypMNpvuLz-42" value="Extends" style="endArrow=block;endSize=16;endFill=0;html=1;" parent="1" source="FVAEuLFO7a_ypMNpvuLz-40" target="FVAEuLFO7a_ypMNpvuLz-38" edge="1">
          <mxGeometry width="160" relative="1" as="geometry">
            <mxPoint x="1879.9962275449102" y="532" as="sourcePoint" />
            <mxPoint x="1867.780658682635" y="430" as="targetPoint" />
          </mxGeometry>
        </mxCell>
        <mxCell id="FVAEuLFO7a_ypMNpvuLz-43" value="Use" style="endArrow=open;endSize=12;dashed=1;html=1;" parent="1" source="FVAEuLFO7a_ypMNpvuLz-25" target="FVAEuLFO7a_ypMNpvuLz-31" edge="1">
          <mxGeometry width="160" relative="1" as="geometry">
            <mxPoint x="1490.0009638554218" y="474" as="sourcePoint" />
            <mxPoint x="1565.904578313253" y="390" as="targetPoint" />
          </mxGeometry>
        </mxCell>
        <mxCell id="FVAEuLFO7a_ypMNpvuLz-44" value="Use" style="endArrow=open;endSize=12;dashed=1;html=1;" parent="1" source="FVAEuLFO7a_ypMNpvuLz-25" target="FVAEuLFO7a_ypMNpvuLz-38" edge="1">
          <mxGeometry width="160" relative="1" as="geometry">
            <mxPoint x="1490.0009638554218" y="474" as="sourcePoint" />
            <mxPoint x="1565.904578313253" y="390" as="targetPoint" />
          </mxGeometry>
        </mxCell>
        <mxCell id="FVAEuLFO7a_ypMNpvuLz-45" value="" style="endArrow=diamondThin;endFill=1;endSize=24;html=1;" parent="1" source="FVAEuLFO7a_ypMNpvuLz-31" target="FVAEuLFO7a_ypMNpvuLz-5" edge="1">
          <mxGeometry width="160" relative="1" as="geometry">
            <mxPoint x="1170" y="150" as="sourcePoint" />
            <mxPoint x="1330" y="150" as="targetPoint" />
          </mxGeometry>
        </mxCell>
        <mxCell id="FVAEuLFO7a_ypMNpvuLz-46" value="" style="endArrow=diamondThin;endFill=1;endSize=24;html=1;" parent="1" source="FVAEuLFO7a_ypMNpvuLz-38" target="FVAEuLFO7a_ypMNpvuLz-5" edge="1">
          <mxGeometry width="160" relative="1" as="geometry">
            <mxPoint x="1170" y="150" as="sourcePoint" />
            <mxPoint x="1330" y="150" as="targetPoint" />
          </mxGeometry>
        </mxCell>
        <mxCell id="FVAEuLFO7a_ypMNpvuLz-47" value="NYPizzaIngredientFactory" style="swimlane;fontStyle=1;align=center;verticalAlign=top;childLayout=stackLayout;horizontal=1;startSize=26;horizontalStack=0;resizeParent=1;resizeParentMax=0;resizeLast=0;collapsible=1;marginBottom=0;" parent="1" vertex="1">
          <mxGeometry x="730" y="700" width="210" height="78" as="geometry" />
        </mxCell>
        <mxCell id="FVAEuLFO7a_ypMNpvuLz-48" value="CreateDough():Dough" style="text;strokeColor=none;fillColor=none;align=left;verticalAlign=top;spacingLeft=4;spacingRight=4;overflow=hidden;rotatable=0;points=[[0,0.5],[1,0.5]];portConstraint=eastwest;fontStyle=0" parent="FVAEuLFO7a_ypMNpvuLz-47" vertex="1">
          <mxGeometry y="26" width="210" height="26" as="geometry" />
        </mxCell>
        <mxCell id="FVAEuLFO7a_ypMNpvuLz-49" value="CreateCheese():Cheese" style="text;strokeColor=none;fillColor=none;align=left;verticalAlign=top;spacingLeft=4;spacingRight=4;overflow=hidden;rotatable=0;points=[[0,0.5],[1,0.5]];portConstraint=eastwest;fontStyle=0" parent="FVAEuLFO7a_ypMNpvuLz-47" vertex="1">
          <mxGeometry y="52" width="210" height="26" as="geometry" />
        </mxCell>
        <mxCell id="FVAEuLFO7a_ypMNpvuLz-50" value="" style="endArrow=diamondThin;endFill=1;endSize=24;html=1;" parent="1" source="FVAEuLFO7a_ypMNpvuLz-47" target="FVAEuLFO7a_ypMNpvuLz-14" edge="1">
          <mxGeometry width="160" relative="1" as="geometry">
            <mxPoint x="950" y="830" as="sourcePoint" />
            <mxPoint x="1110" y="830" as="targetPoint" />
          </mxGeometry>
        </mxCell>
        <mxCell id="FVAEuLFO7a_ypMNpvuLz-51" value="" style="endArrow=block;dashed=1;endFill=0;endSize=12;html=1;" parent="1" source="FVAEuLFO7a_ypMNpvuLz-47" target="FVAEuLFO7a_ypMNpvuLz-25" edge="1">
          <mxGeometry width="160" relative="1" as="geometry">
            <mxPoint x="1400" y="660" as="sourcePoint" />
            <mxPoint x="1560" y="660" as="targetPoint" />
          </mxGeometry>
        </mxCell>
        <mxCell id="FVAEuLFO7a_ypMNpvuLz-52" value="Use" style="endArrow=open;endSize=12;dashed=1;html=1;" parent="1" source="FVAEuLFO7a_ypMNpvuLz-47" target="FVAEuLFO7a_ypMNpvuLz-35" edge="1">
          <mxGeometry width="160" relative="1" as="geometry">
            <mxPoint x="1540" y="600" as="sourcePoint" />
            <mxPoint x="1700" y="600" as="targetPoint" />
            <Array as="points">
              <mxPoint x="1080" y="400" />
            </Array>
          </mxGeometry>
        </mxCell>
        <mxCell id="FVAEuLFO7a_ypMNpvuLz-53" value="Use" style="endArrow=open;endSize=12;dashed=1;html=1;" parent="1" source="FVAEuLFO7a_ypMNpvuLz-47" target="FVAEuLFO7a_ypMNpvuLz-40" edge="1">
          <mxGeometry width="160" relative="1" as="geometry">
            <mxPoint x="1540" y="600" as="sourcePoint" />
            <mxPoint x="1700" y="600" as="targetPoint" />
            <Array as="points">
              <mxPoint x="1050" y="340" />
            </Array>
          </mxGeometry>
        </mxCell>
        <mxCell id="FVAEuLFO7a_ypMNpvuLz-54" value="Main" style="swimlane;fontStyle=1;align=center;verticalAlign=top;childLayout=stackLayout;horizontal=1;startSize=26;horizontalStack=0;resizeParent=1;resizeParentMax=0;resizeLast=0;collapsible=1;marginBottom=0;" parent="1" vertex="1">
          <mxGeometry x="340" y="269" width="160" height="52" as="geometry" />
        </mxCell>
        <mxCell id="FVAEuLFO7a_ypMNpvuLz-55" value="Run()" style="text;strokeColor=none;fillColor=none;align=left;verticalAlign=top;spacingLeft=4;spacingRight=4;overflow=hidden;rotatable=0;points=[[0,0.5],[1,0.5]];portConstraint=eastwest;" parent="FVAEuLFO7a_ypMNpvuLz-54" vertex="1">
          <mxGeometry y="26" width="160" height="26" as="geometry" />
        </mxCell>
        <mxCell id="FVAEuLFO7a_ypMNpvuLz-58" value="Use" style="endArrow=open;endSize=12;dashed=1;html=1;" parent="1" source="FVAEuLFO7a_ypMNpvuLz-54" target="FVAEuLFO7a_ypMNpvuLz-14" edge="1">
          <mxGeometry width="160" relative="1" as="geometry">
            <mxPoint x="690" y="650" as="sourcePoint" />
            <mxPoint x="850" y="650" as="targetPoint" />
          </mxGeometry>
        </mxCell>
        <mxCell id="FVAEuLFO7a_ypMNpvuLz-59" value="Use" style="endArrow=open;endSize=12;dashed=1;html=1;exitX=0.5;exitY=0;exitDx=0;exitDy=0;" parent="1" source="FVAEuLFO7a_ypMNpvuLz-54" target="FVAEuLFO7a_ypMNpvuLz-1" edge="1">
          <mxGeometry width="160" relative="1" as="geometry">
            <mxPoint x="830" y="659" as="sourcePoint" />
            <mxPoint x="990" y="659" as="targetPoint" />
          </mxGeometry>
        </mxCell>
        <mxCell id="UU0sZhIWcim_oZCdf1n3-1" value="Pizza" style="swimlane;fontStyle=1;align=center;verticalAlign=top;childLayout=stackLayout;horizontal=1;startSize=26;horizontalStack=0;resizeParent=1;resizeParentMax=0;resizeLast=0;collapsible=1;marginBottom=0;whiteSpace=wrap;html=1;" parent="1" vertex="1">
          <mxGeometry x="760" y="880" width="160" height="130" as="geometry" />
        </mxCell>
        <mxCell id="UU0sZhIWcim_oZCdf1n3-2" value="Prepare()" style="text;strokeColor=none;fillColor=none;align=left;verticalAlign=top;spacingLeft=4;spacingRight=4;overflow=hidden;rotatable=0;points=[[0,0.5],[1,0.5]];portConstraint=eastwest;whiteSpace=wrap;html=1;fontStyle=0" parent="UU0sZhIWcim_oZCdf1n3-1" vertex="1">
          <mxGeometry y="26" width="160" height="26" as="geometry" />
        </mxCell>
        <mxCell id="snfxcWBiUGc1tTe4uRyw-2" value="Bake()" style="text;strokeColor=none;fillColor=none;align=left;verticalAlign=top;spacingLeft=4;spacingRight=4;overflow=hidden;rotatable=0;points=[[0,0.5],[1,0.5]];portConstraint=eastwest;whiteSpace=wrap;html=1;fontStyle=0" parent="UU0sZhIWcim_oZCdf1n3-1" vertex="1">
          <mxGeometry y="52" width="160" height="26" as="geometry" />
        </mxCell>
        <mxCell id="snfxcWBiUGc1tTe4uRyw-1" value="Cut()" style="text;strokeColor=none;fillColor=none;align=left;verticalAlign=top;spacingLeft=4;spacingRight=4;overflow=hidden;rotatable=0;points=[[0,0.5],[1,0.5]];portConstraint=eastwest;whiteSpace=wrap;html=1;fontStyle=0" parent="UU0sZhIWcim_oZCdf1n3-1" vertex="1">
          <mxGeometry y="78" width="160" height="26" as="geometry" />
        </mxCell>
        <mxCell id="snfxcWBiUGc1tTe4uRyw-3" value="Box()" style="text;strokeColor=none;fillColor=none;align=left;verticalAlign=top;spacingLeft=4;spacingRight=4;overflow=hidden;rotatable=0;points=[[0,0.5],[1,0.5]];portConstraint=eastwest;whiteSpace=wrap;html=1;fontStyle=0" parent="UU0sZhIWcim_oZCdf1n3-1" vertex="1">
          <mxGeometry y="104" width="160" height="26" as="geometry" />
        </mxCell>
        <mxCell id="snfxcWBiUGc1tTe4uRyw-4" value="CheesePizza" style="swimlane;fontStyle=1;align=center;verticalAlign=top;childLayout=stackLayout;horizontal=1;startSize=26;horizontalStack=0;resizeParent=1;resizeParentMax=0;resizeLast=0;collapsible=1;marginBottom=0;whiteSpace=wrap;html=1;" parent="1" vertex="1">
          <mxGeometry x="560" y="1080" width="160" height="130" as="geometry" />
        </mxCell>
        <mxCell id="snfxcWBiUGc1tTe4uRyw-5" value="Prepare()" style="text;strokeColor=none;fillColor=none;align=left;verticalAlign=top;spacingLeft=4;spacingRight=4;overflow=hidden;rotatable=0;points=[[0,0.5],[1,0.5]];portConstraint=eastwest;whiteSpace=wrap;html=1;fontStyle=0" parent="snfxcWBiUGc1tTe4uRyw-4" vertex="1">
          <mxGeometry y="26" width="160" height="26" as="geometry" />
        </mxCell>
        <mxCell id="snfxcWBiUGc1tTe4uRyw-6" value="Bake()" style="text;strokeColor=none;fillColor=none;align=left;verticalAlign=top;spacingLeft=4;spacingRight=4;overflow=hidden;rotatable=0;points=[[0,0.5],[1,0.5]];portConstraint=eastwest;whiteSpace=wrap;html=1;fontStyle=0" parent="snfxcWBiUGc1tTe4uRyw-4" vertex="1">
          <mxGeometry y="52" width="160" height="26" as="geometry" />
        </mxCell>
        <mxCell id="snfxcWBiUGc1tTe4uRyw-7" value="Cut()" style="text;strokeColor=none;fillColor=none;align=left;verticalAlign=top;spacingLeft=4;spacingRight=4;overflow=hidden;rotatable=0;points=[[0,0.5],[1,0.5]];portConstraint=eastwest;whiteSpace=wrap;html=1;fontStyle=0" parent="snfxcWBiUGc1tTe4uRyw-4" vertex="1">
          <mxGeometry y="78" width="160" height="26" as="geometry" />
        </mxCell>
        <mxCell id="snfxcWBiUGc1tTe4uRyw-8" value="Box()" style="text;strokeColor=none;fillColor=none;align=left;verticalAlign=top;spacingLeft=4;spacingRight=4;overflow=hidden;rotatable=0;points=[[0,0.5],[1,0.5]];portConstraint=eastwest;whiteSpace=wrap;html=1;fontStyle=0" parent="snfxcWBiUGc1tTe4uRyw-4" vertex="1">
          <mxGeometry y="104" width="160" height="26" as="geometry" />
        </mxCell>
        <mxCell id="snfxcWBiUGc1tTe4uRyw-9" value="Extends" style="endArrow=block;endSize=16;endFill=0;html=1;rounded=0;" parent="1" source="snfxcWBiUGc1tTe4uRyw-4" target="UU0sZhIWcim_oZCdf1n3-1" edge="1">
          <mxGeometry width="160" relative="1" as="geometry">
            <mxPoint x="670" y="1030" as="sourcePoint" />
            <mxPoint x="830" y="1030" as="targetPoint" />
          </mxGeometry>
        </mxCell>
        <mxCell id="snfxcWBiUGc1tTe4uRyw-10" value="PeperoniPizza" style="swimlane;fontStyle=1;align=center;verticalAlign=top;childLayout=stackLayout;horizontal=1;startSize=26;horizontalStack=0;resizeParent=1;resizeParentMax=0;resizeLast=0;collapsible=1;marginBottom=0;whiteSpace=wrap;html=1;" parent="1" vertex="1">
          <mxGeometry x="760" y="1080" width="160" height="130" as="geometry" />
        </mxCell>
        <mxCell id="snfxcWBiUGc1tTe4uRyw-11" value="Prepare()" style="text;strokeColor=none;fillColor=none;align=left;verticalAlign=top;spacingLeft=4;spacingRight=4;overflow=hidden;rotatable=0;points=[[0,0.5],[1,0.5]];portConstraint=eastwest;whiteSpace=wrap;html=1;fontStyle=0" parent="snfxcWBiUGc1tTe4uRyw-10" vertex="1">
          <mxGeometry y="26" width="160" height="26" as="geometry" />
        </mxCell>
        <mxCell id="snfxcWBiUGc1tTe4uRyw-12" value="Bake()" style="text;strokeColor=none;fillColor=none;align=left;verticalAlign=top;spacingLeft=4;spacingRight=4;overflow=hidden;rotatable=0;points=[[0,0.5],[1,0.5]];portConstraint=eastwest;whiteSpace=wrap;html=1;fontStyle=0" parent="snfxcWBiUGc1tTe4uRyw-10" vertex="1">
          <mxGeometry y="52" width="160" height="26" as="geometry" />
        </mxCell>
        <mxCell id="snfxcWBiUGc1tTe4uRyw-13" value="Cut()" style="text;strokeColor=none;fillColor=none;align=left;verticalAlign=top;spacingLeft=4;spacingRight=4;overflow=hidden;rotatable=0;points=[[0,0.5],[1,0.5]];portConstraint=eastwest;whiteSpace=wrap;html=1;fontStyle=0" parent="snfxcWBiUGc1tTe4uRyw-10" vertex="1">
          <mxGeometry y="78" width="160" height="26" as="geometry" />
        </mxCell>
        <mxCell id="snfxcWBiUGc1tTe4uRyw-14" value="Box()" style="text;strokeColor=none;fillColor=none;align=left;verticalAlign=top;spacingLeft=4;spacingRight=4;overflow=hidden;rotatable=0;points=[[0,0.5],[1,0.5]];portConstraint=eastwest;whiteSpace=wrap;html=1;fontStyle=0" parent="snfxcWBiUGc1tTe4uRyw-10" vertex="1">
          <mxGeometry y="104" width="160" height="26" as="geometry" />
        </mxCell>
        <mxCell id="snfxcWBiUGc1tTe4uRyw-15" value="Extends" style="endArrow=block;endSize=16;endFill=0;html=1;rounded=0;" parent="1" source="snfxcWBiUGc1tTe4uRyw-10" target="UU0sZhIWcim_oZCdf1n3-1" edge="1">
          <mxGeometry width="160" relative="1" as="geometry">
            <mxPoint x="670" y="1030" as="sourcePoint" />
            <mxPoint x="830" y="1030" as="targetPoint" />
          </mxGeometry>
        </mxCell>
        <mxCell id="snfxcWBiUGc1tTe4uRyw-16" value="NapolitanaPizza" style="swimlane;fontStyle=1;align=center;verticalAlign=top;childLayout=stackLayout;horizontal=1;startSize=26;horizontalStack=0;resizeParent=1;resizeParentMax=0;resizeLast=0;collapsible=1;marginBottom=0;whiteSpace=wrap;html=1;" parent="1" vertex="1">
          <mxGeometry x="960" y="1080" width="160" height="130" as="geometry" />
        </mxCell>
        <mxCell id="snfxcWBiUGc1tTe4uRyw-17" value="Prepare()" style="text;strokeColor=none;fillColor=none;align=left;verticalAlign=top;spacingLeft=4;spacingRight=4;overflow=hidden;rotatable=0;points=[[0,0.5],[1,0.5]];portConstraint=eastwest;whiteSpace=wrap;html=1;fontStyle=0" parent="snfxcWBiUGc1tTe4uRyw-16" vertex="1">
          <mxGeometry y="26" width="160" height="26" as="geometry" />
        </mxCell>
        <mxCell id="snfxcWBiUGc1tTe4uRyw-18" value="Bake()" style="text;strokeColor=none;fillColor=none;align=left;verticalAlign=top;spacingLeft=4;spacingRight=4;overflow=hidden;rotatable=0;points=[[0,0.5],[1,0.5]];portConstraint=eastwest;whiteSpace=wrap;html=1;fontStyle=0" parent="snfxcWBiUGc1tTe4uRyw-16" vertex="1">
          <mxGeometry y="52" width="160" height="26" as="geometry" />
        </mxCell>
        <mxCell id="snfxcWBiUGc1tTe4uRyw-19" value="Cut()" style="text;strokeColor=none;fillColor=none;align=left;verticalAlign=top;spacingLeft=4;spacingRight=4;overflow=hidden;rotatable=0;points=[[0,0.5],[1,0.5]];portConstraint=eastwest;whiteSpace=wrap;html=1;fontStyle=0" parent="snfxcWBiUGc1tTe4uRyw-16" vertex="1">
          <mxGeometry y="78" width="160" height="26" as="geometry" />
        </mxCell>
        <mxCell id="snfxcWBiUGc1tTe4uRyw-20" value="Box()" style="text;strokeColor=none;fillColor=none;align=left;verticalAlign=top;spacingLeft=4;spacingRight=4;overflow=hidden;rotatable=0;points=[[0,0.5],[1,0.5]];portConstraint=eastwest;whiteSpace=wrap;html=1;fontStyle=0" parent="snfxcWBiUGc1tTe4uRyw-16" vertex="1">
          <mxGeometry y="104" width="160" height="26" as="geometry" />
        </mxCell>
        <mxCell id="snfxcWBiUGc1tTe4uRyw-21" value="Extends" style="endArrow=block;endSize=16;endFill=0;html=1;rounded=0;" parent="1" source="snfxcWBiUGc1tTe4uRyw-16" target="UU0sZhIWcim_oZCdf1n3-1" edge="1">
          <mxGeometry width="160" relative="1" as="geometry">
            <mxPoint x="670" y="1030" as="sourcePoint" />
            <mxPoint x="830" y="1030" as="targetPoint" />
          </mxGeometry>
        </mxCell>
        <mxCell id="snfxcWBiUGc1tTe4uRyw-22" value="Pizza" style="swimlane;fontStyle=1;align=center;verticalAlign=top;childLayout=stackLayout;horizontal=1;startSize=26;horizontalStack=0;resizeParent=1;resizeParentMax=0;resizeLast=0;collapsible=1;marginBottom=0;whiteSpace=wrap;html=1;" parent="1" vertex="1">
          <mxGeometry x="760" y="1320" width="160" height="130" as="geometry" />
        </mxCell>
        <mxCell id="snfxcWBiUGc1tTe4uRyw-23" value="Prepare()" style="text;strokeColor=none;fillColor=none;align=left;verticalAlign=top;spacingLeft=4;spacingRight=4;overflow=hidden;rotatable=0;points=[[0,0.5],[1,0.5]];portConstraint=eastwest;whiteSpace=wrap;html=1;fontStyle=0" parent="snfxcWBiUGc1tTe4uRyw-22" vertex="1">
          <mxGeometry y="26" width="160" height="26" as="geometry" />
        </mxCell>
        <mxCell id="snfxcWBiUGc1tTe4uRyw-24" value="Bake()" style="text;strokeColor=none;fillColor=none;align=left;verticalAlign=top;spacingLeft=4;spacingRight=4;overflow=hidden;rotatable=0;points=[[0,0.5],[1,0.5]];portConstraint=eastwest;whiteSpace=wrap;html=1;fontStyle=0" parent="snfxcWBiUGc1tTe4uRyw-22" vertex="1">
          <mxGeometry y="52" width="160" height="26" as="geometry" />
        </mxCell>
        <mxCell id="snfxcWBiUGc1tTe4uRyw-25" value="Cut()" style="text;strokeColor=none;fillColor=none;align=left;verticalAlign=top;spacingLeft=4;spacingRight=4;overflow=hidden;rotatable=0;points=[[0,0.5],[1,0.5]];portConstraint=eastwest;whiteSpace=wrap;html=1;fontStyle=0" parent="snfxcWBiUGc1tTe4uRyw-22" vertex="1">
          <mxGeometry y="78" width="160" height="26" as="geometry" />
        </mxCell>
        <mxCell id="snfxcWBiUGc1tTe4uRyw-26" value="Box()" style="text;strokeColor=none;fillColor=none;align=left;verticalAlign=top;spacingLeft=4;spacingRight=4;overflow=hidden;rotatable=0;points=[[0,0.5],[1,0.5]];portConstraint=eastwest;whiteSpace=wrap;html=1;fontStyle=0" parent="snfxcWBiUGc1tTe4uRyw-22" vertex="1">
          <mxGeometry y="104" width="160" height="26" as="geometry" />
        </mxCell>
        <mxCell id="snfxcWBiUGc1tTe4uRyw-27" value="CheesePizza" style="swimlane;fontStyle=1;align=center;verticalAlign=top;childLayout=stackLayout;horizontal=1;startSize=26;horizontalStack=0;resizeParent=1;resizeParentMax=0;resizeLast=0;collapsible=1;marginBottom=0;whiteSpace=wrap;html=1;" parent="1" vertex="1">
          <mxGeometry x="560" y="1520" width="160" height="130" as="geometry" />
        </mxCell>
        <mxCell id="snfxcWBiUGc1tTe4uRyw-28" value="Prepare()" style="text;strokeColor=none;fillColor=none;align=left;verticalAlign=top;spacingLeft=4;spacingRight=4;overflow=hidden;rotatable=0;points=[[0,0.5],[1,0.5]];portConstraint=eastwest;whiteSpace=wrap;html=1;fontStyle=0" parent="snfxcWBiUGc1tTe4uRyw-27" vertex="1">
          <mxGeometry y="26" width="160" height="26" as="geometry" />
        </mxCell>
        <mxCell id="snfxcWBiUGc1tTe4uRyw-29" value="Bake()" style="text;strokeColor=none;fillColor=none;align=left;verticalAlign=top;spacingLeft=4;spacingRight=4;overflow=hidden;rotatable=0;points=[[0,0.5],[1,0.5]];portConstraint=eastwest;whiteSpace=wrap;html=1;fontStyle=0" parent="snfxcWBiUGc1tTe4uRyw-27" vertex="1">
          <mxGeometry y="52" width="160" height="26" as="geometry" />
        </mxCell>
        <mxCell id="snfxcWBiUGc1tTe4uRyw-30" value="Cut()" style="text;strokeColor=none;fillColor=none;align=left;verticalAlign=top;spacingLeft=4;spacingRight=4;overflow=hidden;rotatable=0;points=[[0,0.5],[1,0.5]];portConstraint=eastwest;whiteSpace=wrap;html=1;fontStyle=0" parent="snfxcWBiUGc1tTe4uRyw-27" vertex="1">
          <mxGeometry y="78" width="160" height="26" as="geometry" />
        </mxCell>
        <mxCell id="snfxcWBiUGc1tTe4uRyw-31" value="Box()" style="text;strokeColor=none;fillColor=none;align=left;verticalAlign=top;spacingLeft=4;spacingRight=4;overflow=hidden;rotatable=0;points=[[0,0.5],[1,0.5]];portConstraint=eastwest;whiteSpace=wrap;html=1;fontStyle=0" parent="snfxcWBiUGc1tTe4uRyw-27" vertex="1">
          <mxGeometry y="104" width="160" height="26" as="geometry" />
        </mxCell>
        <mxCell id="snfxcWBiUGc1tTe4uRyw-32" value="Extends" style="endArrow=block;endSize=16;endFill=0;html=1;rounded=0;" parent="1" source="snfxcWBiUGc1tTe4uRyw-27" target="snfxcWBiUGc1tTe4uRyw-22" edge="1">
          <mxGeometry width="160" relative="1" as="geometry">
            <mxPoint x="670" y="1470" as="sourcePoint" />
            <mxPoint x="830" y="1470" as="targetPoint" />
          </mxGeometry>
        </mxCell>
        <mxCell id="snfxcWBiUGc1tTe4uRyw-33" value="PeperoniPizza" style="swimlane;fontStyle=1;align=center;verticalAlign=top;childLayout=stackLayout;horizontal=1;startSize=26;horizontalStack=0;resizeParent=1;resizeParentMax=0;resizeLast=0;collapsible=1;marginBottom=0;whiteSpace=wrap;html=1;" parent="1" vertex="1">
          <mxGeometry x="760" y="1520" width="160" height="130" as="geometry" />
        </mxCell>
        <mxCell id="snfxcWBiUGc1tTe4uRyw-34" value="Prepare()" style="text;strokeColor=none;fillColor=none;align=left;verticalAlign=top;spacingLeft=4;spacingRight=4;overflow=hidden;rotatable=0;points=[[0,0.5],[1,0.5]];portConstraint=eastwest;whiteSpace=wrap;html=1;fontStyle=0" parent="snfxcWBiUGc1tTe4uRyw-33" vertex="1">
          <mxGeometry y="26" width="160" height="26" as="geometry" />
        </mxCell>
        <mxCell id="snfxcWBiUGc1tTe4uRyw-35" value="Bake()" style="text;strokeColor=none;fillColor=none;align=left;verticalAlign=top;spacingLeft=4;spacingRight=4;overflow=hidden;rotatable=0;points=[[0,0.5],[1,0.5]];portConstraint=eastwest;whiteSpace=wrap;html=1;fontStyle=0" parent="snfxcWBiUGc1tTe4uRyw-33" vertex="1">
          <mxGeometry y="52" width="160" height="26" as="geometry" />
        </mxCell>
        <mxCell id="snfxcWBiUGc1tTe4uRyw-36" value="Cut()" style="text;strokeColor=none;fillColor=none;align=left;verticalAlign=top;spacingLeft=4;spacingRight=4;overflow=hidden;rotatable=0;points=[[0,0.5],[1,0.5]];portConstraint=eastwest;whiteSpace=wrap;html=1;fontStyle=0" parent="snfxcWBiUGc1tTe4uRyw-33" vertex="1">
          <mxGeometry y="78" width="160" height="26" as="geometry" />
        </mxCell>
        <mxCell id="snfxcWBiUGc1tTe4uRyw-37" value="Box()" style="text;strokeColor=none;fillColor=none;align=left;verticalAlign=top;spacingLeft=4;spacingRight=4;overflow=hidden;rotatable=0;points=[[0,0.5],[1,0.5]];portConstraint=eastwest;whiteSpace=wrap;html=1;fontStyle=0" parent="snfxcWBiUGc1tTe4uRyw-33" vertex="1">
          <mxGeometry y="104" width="160" height="26" as="geometry" />
        </mxCell>
        <mxCell id="snfxcWBiUGc1tTe4uRyw-38" value="Extends" style="endArrow=block;endSize=16;endFill=0;html=1;rounded=0;" parent="1" source="snfxcWBiUGc1tTe4uRyw-33" target="snfxcWBiUGc1tTe4uRyw-22" edge="1">
          <mxGeometry width="160" relative="1" as="geometry">
            <mxPoint x="670" y="1470" as="sourcePoint" />
            <mxPoint x="830" y="1470" as="targetPoint" />
          </mxGeometry>
        </mxCell>
        <mxCell id="snfxcWBiUGc1tTe4uRyw-39" value="NapolitanaPizza" style="swimlane;fontStyle=1;align=center;verticalAlign=top;childLayout=stackLayout;horizontal=1;startSize=26;horizontalStack=0;resizeParent=1;resizeParentMax=0;resizeLast=0;collapsible=1;marginBottom=0;whiteSpace=wrap;html=1;" parent="1" vertex="1">
          <mxGeometry x="960" y="1520" width="160" height="130" as="geometry" />
        </mxCell>
        <mxCell id="snfxcWBiUGc1tTe4uRyw-40" value="Prepare()" style="text;strokeColor=none;fillColor=none;align=left;verticalAlign=top;spacingLeft=4;spacingRight=4;overflow=hidden;rotatable=0;points=[[0,0.5],[1,0.5]];portConstraint=eastwest;whiteSpace=wrap;html=1;fontStyle=0" parent="snfxcWBiUGc1tTe4uRyw-39" vertex="1">
          <mxGeometry y="26" width="160" height="26" as="geometry" />
        </mxCell>
        <mxCell id="snfxcWBiUGc1tTe4uRyw-41" value="Bake()" style="text;strokeColor=none;fillColor=none;align=left;verticalAlign=top;spacingLeft=4;spacingRight=4;overflow=hidden;rotatable=0;points=[[0,0.5],[1,0.5]];portConstraint=eastwest;whiteSpace=wrap;html=1;fontStyle=0" parent="snfxcWBiUGc1tTe4uRyw-39" vertex="1">
          <mxGeometry y="52" width="160" height="26" as="geometry" />
        </mxCell>
        <mxCell id="snfxcWBiUGc1tTe4uRyw-42" value="Cut()" style="text;strokeColor=none;fillColor=none;align=left;verticalAlign=top;spacingLeft=4;spacingRight=4;overflow=hidden;rotatable=0;points=[[0,0.5],[1,0.5]];portConstraint=eastwest;whiteSpace=wrap;html=1;fontStyle=0" parent="snfxcWBiUGc1tTe4uRyw-39" vertex="1">
          <mxGeometry y="78" width="160" height="26" as="geometry" />
        </mxCell>
        <mxCell id="snfxcWBiUGc1tTe4uRyw-43" value="Box()" style="text;strokeColor=none;fillColor=none;align=left;verticalAlign=top;spacingLeft=4;spacingRight=4;overflow=hidden;rotatable=0;points=[[0,0.5],[1,0.5]];portConstraint=eastwest;whiteSpace=wrap;html=1;fontStyle=0" parent="snfxcWBiUGc1tTe4uRyw-39" vertex="1">
          <mxGeometry y="104" width="160" height="26" as="geometry" />
        </mxCell>
        <mxCell id="snfxcWBiUGc1tTe4uRyw-44" value="Extends" style="endArrow=block;endSize=16;endFill=0;html=1;rounded=0;" parent="1" source="snfxcWBiUGc1tTe4uRyw-39" target="snfxcWBiUGc1tTe4uRyw-22" edge="1">
          <mxGeometry width="160" relative="1" as="geometry">
            <mxPoint x="670" y="1470" as="sourcePoint" />
            <mxPoint x="830" y="1470" as="targetPoint" />
          </mxGeometry>
        </mxCell>
        <mxCell id="snfxcWBiUGc1tTe4uRyw-45" value="SimplePizzaFactory" style="swimlane;fontStyle=1;align=center;verticalAlign=top;childLayout=stackLayout;horizontal=1;startSize=26;horizontalStack=0;resizeParent=1;resizeParentMax=0;resizeLast=0;collapsible=1;marginBottom=0;whiteSpace=wrap;html=1;" parent="1" vertex="1">
          <mxGeometry x="360" y="1440" width="200" height="52" as="geometry" />
        </mxCell>
        <mxCell id="snfxcWBiUGc1tTe4uRyw-46" value="CreatePizza(type: string):Pizza" style="text;strokeColor=none;fillColor=none;align=left;verticalAlign=top;spacingLeft=4;spacingRight=4;overflow=hidden;rotatable=0;points=[[0,0.5],[1,0.5]];portConstraint=eastwest;whiteSpace=wrap;html=1;fontStyle=0" parent="snfxcWBiUGc1tTe4uRyw-45" vertex="1">
          <mxGeometry y="26" width="200" height="26" as="geometry" />
        </mxCell>
        <mxCell id="snfxcWBiUGc1tTe4uRyw-50" value="Use" style="endArrow=open;endSize=12;dashed=1;html=1;rounded=0;" parent="1" source="snfxcWBiUGc1tTe4uRyw-45" target="snfxcWBiUGc1tTe4uRyw-22" edge="1">
          <mxGeometry width="160" relative="1" as="geometry">
            <mxPoint x="530" y="1450" as="sourcePoint" />
            <mxPoint x="690" y="1450" as="targetPoint" />
          </mxGeometry>
        </mxCell>
        <mxCell id="snfxcWBiUGc1tTe4uRyw-51" value="PizzaStore" style="swimlane;fontStyle=1;align=center;verticalAlign=top;childLayout=stackLayout;horizontal=1;startSize=26;horizontalStack=0;resizeParent=1;resizeParentMax=0;resizeLast=0;collapsible=1;marginBottom=0;whiteSpace=wrap;html=1;" parent="1" vertex="1">
          <mxGeometry x="370" y="1320" width="180" height="52" as="geometry" />
        </mxCell>
        <mxCell id="snfxcWBiUGc1tTe4uRyw-52" value="+OrderPizza(type:string):Pizza" style="text;strokeColor=none;fillColor=none;align=left;verticalAlign=top;spacingLeft=4;spacingRight=4;overflow=hidden;rotatable=0;points=[[0,0.5],[1,0.5]];portConstraint=eastwest;whiteSpace=wrap;html=1;fontStyle=0" parent="snfxcWBiUGc1tTe4uRyw-51" vertex="1">
          <mxGeometry y="26" width="180" height="26" as="geometry" />
        </mxCell>
        <mxCell id="snfxcWBiUGc1tTe4uRyw-54" value="" style="endArrow=diamondThin;endFill=1;endSize=24;html=1;rounded=0;" parent="1" source="snfxcWBiUGc1tTe4uRyw-45" target="snfxcWBiUGc1tTe4uRyw-51" edge="1">
          <mxGeometry width="160" relative="1" as="geometry">
            <mxPoint x="280" y="1570" as="sourcePoint" />
            <mxPoint x="440" y="1570" as="targetPoint" />
          </mxGeometry>
        </mxCell>
        <mxCell id="snfxcWBiUGc1tTe4uRyw-55" value="Use" style="endArrow=open;endSize=12;dashed=1;html=1;rounded=0;" parent="1" source="snfxcWBiUGc1tTe4uRyw-51" target="snfxcWBiUGc1tTe4uRyw-22" edge="1">
          <mxGeometry width="160" relative="1" as="geometry">
            <mxPoint x="560" y="1360" as="sourcePoint" />
            <mxPoint x="720" y="1360" as="targetPoint" />
          </mxGeometry>
        </mxCell>
        <mxCell id="snfxcWBiUGc1tTe4uRyw-56" value="Use" style="endArrow=open;endSize=12;dashed=1;html=1;rounded=0;edgeStyle=orthogonalEdgeStyle;" parent="1" source="snfxcWBiUGc1tTe4uRyw-45" target="snfxcWBiUGc1tTe4uRyw-27" edge="1">
          <mxGeometry width="160" relative="1" as="geometry">
            <mxPoint x="490" y="1830" as="sourcePoint" />
            <mxPoint x="650" y="1830" as="targetPoint" />
            <Array as="points">
              <mxPoint x="460" y="1560" />
            </Array>
          </mxGeometry>
        </mxCell>
        <mxCell id="snfxcWBiUGc1tTe4uRyw-57" value="Use" style="endArrow=open;endSize=12;dashed=1;html=1;rounded=0;edgeStyle=orthogonalEdgeStyle;" parent="1" source="snfxcWBiUGc1tTe4uRyw-45" target="snfxcWBiUGc1tTe4uRyw-33" edge="1">
          <mxGeometry width="160" relative="1" as="geometry">
            <mxPoint x="490" y="1830" as="sourcePoint" />
            <mxPoint x="650" y="1830" as="targetPoint" />
            <Array as="points">
              <mxPoint x="440" y="1680" />
              <mxPoint x="840" y="1680" />
            </Array>
          </mxGeometry>
        </mxCell>
        <mxCell id="snfxcWBiUGc1tTe4uRyw-58" value="Use" style="endArrow=open;endSize=12;dashed=1;html=1;rounded=0;edgeStyle=orthogonalEdgeStyle;" parent="1" source="snfxcWBiUGc1tTe4uRyw-45" target="snfxcWBiUGc1tTe4uRyw-39" edge="1">
          <mxGeometry width="160" relative="1" as="geometry">
            <mxPoint x="490" y="1830" as="sourcePoint" />
            <mxPoint x="650" y="1830" as="targetPoint" />
            <Array as="points">
              <mxPoint x="410" y="1700" />
              <mxPoint x="1040" y="1700" />
            </Array>
          </mxGeometry>
        </mxCell>
        <mxCell id="snfxcWBiUGc1tTe4uRyw-60" value="SimplePizzaFactory" style="swimlane;fontStyle=1;align=center;verticalAlign=top;childLayout=stackLayout;horizontal=1;startSize=26;horizontalStack=0;resizeParent=1;resizeParentMax=0;resizeLast=0;collapsible=1;marginBottom=0;whiteSpace=wrap;html=1;" parent="1" vertex="1">
          <mxGeometry x="751" y="1936" width="200" height="52" as="geometry" />
        </mxCell>
        <mxCell id="snfxcWBiUGc1tTe4uRyw-61" value="CreatePizza(type: string):Pizza" style="text;strokeColor=none;fillColor=none;align=left;verticalAlign=top;spacingLeft=4;spacingRight=4;overflow=hidden;rotatable=0;points=[[0,0.5],[1,0.5]];portConstraint=eastwest;whiteSpace=wrap;html=1;fontStyle=2" parent="snfxcWBiUGc1tTe4uRyw-60" vertex="1">
          <mxGeometry y="26" width="200" height="26" as="geometry" />
        </mxCell>
        <mxCell id="snfxcWBiUGc1tTe4uRyw-62" value="PizzaStore" style="swimlane;fontStyle=1;align=center;verticalAlign=top;childLayout=stackLayout;horizontal=1;startSize=26;horizontalStack=0;resizeParent=1;resizeParentMax=0;resizeLast=0;collapsible=1;marginBottom=0;whiteSpace=wrap;html=1;" parent="1" vertex="1">
          <mxGeometry x="827" y="1780" width="250" height="112" as="geometry" />
        </mxCell>
        <mxCell id="snfxcWBiUGc1tTe4uRyw-63" value="+PizzaStore(factory:SimplePizzaFactory)" style="text;strokeColor=none;fillColor=none;align=left;verticalAlign=top;spacingLeft=4;spacingRight=4;overflow=hidden;rotatable=0;points=[[0,0.5],[1,0.5]];portConstraint=eastwest;whiteSpace=wrap;html=1;fontStyle=0" parent="snfxcWBiUGc1tTe4uRyw-62" vertex="1">
          <mxGeometry y="26" width="250" height="26" as="geometry" />
        </mxCell>
        <mxCell id="snfxcWBiUGc1tTe4uRyw-71" value="+OrderPizza(type:string):Pizza" style="text;strokeColor=none;fillColor=none;align=left;verticalAlign=top;spacingLeft=4;spacingRight=4;overflow=hidden;rotatable=0;points=[[0,0.5],[1,0.5]];portConstraint=eastwest;whiteSpace=wrap;html=1;fontStyle=0" parent="snfxcWBiUGc1tTe4uRyw-62" vertex="1">
          <mxGeometry y="52" width="250" height="26" as="geometry" />
        </mxCell>
        <mxCell id="snfxcWBiUGc1tTe4uRyw-73" value="" style="line;strokeWidth=1;fillColor=none;align=left;verticalAlign=middle;spacingTop=-1;spacingLeft=3;spacingRight=3;rotatable=0;labelPosition=right;points=[];portConstraint=eastwest;strokeColor=inherit;" parent="snfxcWBiUGc1tTe4uRyw-62" vertex="1">
          <mxGeometry y="78" width="250" height="8" as="geometry" />
        </mxCell>
        <mxCell id="snfxcWBiUGc1tTe4uRyw-72" value="-m_pizzaFactory:SimplePizzaFactory" style="text;strokeColor=none;fillColor=none;align=left;verticalAlign=top;spacingLeft=4;spacingRight=4;overflow=hidden;rotatable=0;points=[[0,0.5],[1,0.5]];portConstraint=eastwest;whiteSpace=wrap;html=1;fontStyle=0" parent="snfxcWBiUGc1tTe4uRyw-62" vertex="1">
          <mxGeometry y="86" width="250" height="26" as="geometry" />
        </mxCell>
        <mxCell id="snfxcWBiUGc1tTe4uRyw-64" value="" style="endArrow=diamondThin;endFill=1;endSize=24;html=1;rounded=0;" parent="1" source="snfxcWBiUGc1tTe4uRyw-60" target="snfxcWBiUGc1tTe4uRyw-62" edge="1">
          <mxGeometry width="160" relative="1" as="geometry">
            <mxPoint x="401" y="2186" as="sourcePoint" />
            <mxPoint x="561" y="2186" as="targetPoint" />
          </mxGeometry>
        </mxCell>
        <mxCell id="snfxcWBiUGc1tTe4uRyw-65" value="NYPizzaFactory" style="swimlane;fontStyle=1;align=center;verticalAlign=top;childLayout=stackLayout;horizontal=1;startSize=26;horizontalStack=0;resizeParent=1;resizeParentMax=0;resizeLast=0;collapsible=1;marginBottom=0;whiteSpace=wrap;html=1;" parent="1" vertex="1">
          <mxGeometry x="761" y="2066" width="200" height="52" as="geometry" />
        </mxCell>
        <mxCell id="snfxcWBiUGc1tTe4uRyw-66" value="CreatePizza(type: string):Pizza" style="text;strokeColor=none;fillColor=none;align=left;verticalAlign=top;spacingLeft=4;spacingRight=4;overflow=hidden;rotatable=0;points=[[0,0.5],[1,0.5]];portConstraint=eastwest;whiteSpace=wrap;html=1;fontStyle=0" parent="snfxcWBiUGc1tTe4uRyw-65" vertex="1">
          <mxGeometry y="26" width="200" height="26" as="geometry" />
        </mxCell>
        <mxCell id="snfxcWBiUGc1tTe4uRyw-67" value="ChicagoPizzaFactory" style="swimlane;fontStyle=1;align=center;verticalAlign=top;childLayout=stackLayout;horizontal=1;startSize=26;horizontalStack=0;resizeParent=1;resizeParentMax=0;resizeLast=0;collapsible=1;marginBottom=0;whiteSpace=wrap;html=1;" parent="1" vertex="1">
          <mxGeometry x="581" y="2146" width="200" height="52" as="geometry" />
        </mxCell>
        <mxCell id="snfxcWBiUGc1tTe4uRyw-68" value="CreatePizza(type: string):Pizza" style="text;strokeColor=none;fillColor=none;align=left;verticalAlign=top;spacingLeft=4;spacingRight=4;overflow=hidden;rotatable=0;points=[[0,0.5],[1,0.5]];portConstraint=eastwest;whiteSpace=wrap;html=1;fontStyle=0" parent="snfxcWBiUGc1tTe4uRyw-67" vertex="1">
          <mxGeometry y="26" width="200" height="26" as="geometry" />
        </mxCell>
        <mxCell id="snfxcWBiUGc1tTe4uRyw-69" value="" style="endArrow=block;endSize=16;endFill=0;html=1;rounded=0;" parent="1" source="snfxcWBiUGc1tTe4uRyw-65" target="snfxcWBiUGc1tTe4uRyw-60" edge="1">
          <mxGeometry width="160" relative="1" as="geometry">
            <mxPoint x="701" y="2026" as="sourcePoint" />
            <mxPoint x="861" y="2026" as="targetPoint" />
          </mxGeometry>
        </mxCell>
        <mxCell id="snfxcWBiUGc1tTe4uRyw-70" value="" style="endArrow=block;endSize=16;endFill=0;html=1;rounded=0;" parent="1" source="snfxcWBiUGc1tTe4uRyw-67" target="snfxcWBiUGc1tTe4uRyw-60" edge="1">
          <mxGeometry width="160" relative="1" as="geometry">
            <mxPoint x="806" y="2066" as="sourcePoint" />
            <mxPoint x="846" y="1998" as="targetPoint" />
          </mxGeometry>
        </mxCell>
        <mxCell id="snfxcWBiUGc1tTe4uRyw-74" value="Pizza" style="swimlane;fontStyle=1;align=center;verticalAlign=top;childLayout=stackLayout;horizontal=1;startSize=26;horizontalStack=0;resizeParent=1;resizeParentMax=0;resizeLast=0;collapsible=1;marginBottom=0;whiteSpace=wrap;html=1;" parent="1" vertex="1">
          <mxGeometry x="1161" y="1936" width="160" height="130" as="geometry" />
        </mxCell>
        <mxCell id="snfxcWBiUGc1tTe4uRyw-75" value="Prepare()" style="text;strokeColor=none;fillColor=none;align=left;verticalAlign=top;spacingLeft=4;spacingRight=4;overflow=hidden;rotatable=0;points=[[0,0.5],[1,0.5]];portConstraint=eastwest;whiteSpace=wrap;html=1;fontStyle=0" parent="snfxcWBiUGc1tTe4uRyw-74" vertex="1">
          <mxGeometry y="26" width="160" height="26" as="geometry" />
        </mxCell>
        <mxCell id="snfxcWBiUGc1tTe4uRyw-76" value="Bake()" style="text;strokeColor=none;fillColor=none;align=left;verticalAlign=top;spacingLeft=4;spacingRight=4;overflow=hidden;rotatable=0;points=[[0,0.5],[1,0.5]];portConstraint=eastwest;whiteSpace=wrap;html=1;fontStyle=0" parent="snfxcWBiUGc1tTe4uRyw-74" vertex="1">
          <mxGeometry y="52" width="160" height="26" as="geometry" />
        </mxCell>
        <mxCell id="snfxcWBiUGc1tTe4uRyw-77" value="Cut()" style="text;strokeColor=none;fillColor=none;align=left;verticalAlign=top;spacingLeft=4;spacingRight=4;overflow=hidden;rotatable=0;points=[[0,0.5],[1,0.5]];portConstraint=eastwest;whiteSpace=wrap;html=1;fontStyle=0" parent="snfxcWBiUGc1tTe4uRyw-74" vertex="1">
          <mxGeometry y="78" width="160" height="26" as="geometry" />
        </mxCell>
        <mxCell id="snfxcWBiUGc1tTe4uRyw-78" value="Box()" style="text;strokeColor=none;fillColor=none;align=left;verticalAlign=top;spacingLeft=4;spacingRight=4;overflow=hidden;rotatable=0;points=[[0,0.5],[1,0.5]];portConstraint=eastwest;whiteSpace=wrap;html=1;fontStyle=0" parent="snfxcWBiUGc1tTe4uRyw-74" vertex="1">
          <mxGeometry y="104" width="160" height="26" as="geometry" />
        </mxCell>
        <mxCell id="snfxcWBiUGc1tTe4uRyw-79" value="CheesePizza" style="swimlane;fontStyle=1;align=center;verticalAlign=top;childLayout=stackLayout;horizontal=1;startSize=26;horizontalStack=0;resizeParent=1;resizeParentMax=0;resizeLast=0;collapsible=1;marginBottom=0;whiteSpace=wrap;html=1;" parent="1" vertex="1">
          <mxGeometry x="961" y="2136" width="160" height="52" as="geometry" />
        </mxCell>
        <mxCell id="snfxcWBiUGc1tTe4uRyw-104" value="..." style="text;strokeColor=none;fillColor=none;align=left;verticalAlign=top;spacingLeft=4;spacingRight=4;overflow=hidden;rotatable=0;points=[[0,0.5],[1,0.5]];portConstraint=eastwest;whiteSpace=wrap;html=1;fontStyle=0" parent="snfxcWBiUGc1tTe4uRyw-79" vertex="1">
          <mxGeometry y="26" width="160" height="26" as="geometry" />
        </mxCell>
        <mxCell id="snfxcWBiUGc1tTe4uRyw-84" value="" style="endArrow=block;endSize=16;endFill=0;html=1;rounded=0;" parent="1" source="snfxcWBiUGc1tTe4uRyw-79" target="snfxcWBiUGc1tTe4uRyw-74" edge="1">
          <mxGeometry width="160" relative="1" as="geometry">
            <mxPoint x="1071" y="2086" as="sourcePoint" />
            <mxPoint x="1231" y="2086" as="targetPoint" />
          </mxGeometry>
        </mxCell>
        <mxCell id="snfxcWBiUGc1tTe4uRyw-85" value="PeperoniPizza" style="swimlane;fontStyle=1;align=center;verticalAlign=top;childLayout=stackLayout;horizontal=1;startSize=26;horizontalStack=0;resizeParent=1;resizeParentMax=0;resizeLast=0;collapsible=1;marginBottom=0;whiteSpace=wrap;html=1;" parent="1" vertex="1">
          <mxGeometry x="1161" y="2136" width="160" height="52" as="geometry" />
        </mxCell>
        <mxCell id="snfxcWBiUGc1tTe4uRyw-80" value="..." style="text;strokeColor=none;fillColor=none;align=left;verticalAlign=top;spacingLeft=4;spacingRight=4;overflow=hidden;rotatable=0;points=[[0,0.5],[1,0.5]];portConstraint=eastwest;whiteSpace=wrap;html=1;fontStyle=0" parent="snfxcWBiUGc1tTe4uRyw-85" vertex="1">
          <mxGeometry y="26" width="160" height="26" as="geometry" />
        </mxCell>
        <mxCell id="snfxcWBiUGc1tTe4uRyw-90" value="" style="endArrow=block;endSize=16;endFill=0;html=1;rounded=0;" parent="1" source="snfxcWBiUGc1tTe4uRyw-85" target="snfxcWBiUGc1tTe4uRyw-74" edge="1">
          <mxGeometry width="160" relative="1" as="geometry">
            <mxPoint x="1071" y="2086" as="sourcePoint" />
            <mxPoint x="1231" y="2086" as="targetPoint" />
          </mxGeometry>
        </mxCell>
        <mxCell id="snfxcWBiUGc1tTe4uRyw-91" value="NapolitanaPizza" style="swimlane;fontStyle=1;align=center;verticalAlign=top;childLayout=stackLayout;horizontal=1;startSize=26;horizontalStack=0;resizeParent=1;resizeParentMax=0;resizeLast=0;collapsible=1;marginBottom=0;whiteSpace=wrap;html=1;" parent="1" vertex="1">
          <mxGeometry x="1361" y="2136" width="160" height="52" as="geometry" />
        </mxCell>
        <mxCell id="snfxcWBiUGc1tTe4uRyw-105" value="..." style="text;strokeColor=none;fillColor=none;align=left;verticalAlign=top;spacingLeft=4;spacingRight=4;overflow=hidden;rotatable=0;points=[[0,0.5],[1,0.5]];portConstraint=eastwest;whiteSpace=wrap;html=1;fontStyle=0" parent="snfxcWBiUGc1tTe4uRyw-91" vertex="1">
          <mxGeometry y="26" width="160" height="26" as="geometry" />
        </mxCell>
        <mxCell id="snfxcWBiUGc1tTe4uRyw-96" value="" style="endArrow=block;endSize=16;endFill=0;html=1;rounded=0;" parent="1" source="snfxcWBiUGc1tTe4uRyw-91" target="snfxcWBiUGc1tTe4uRyw-74" edge="1">
          <mxGeometry width="160" relative="1" as="geometry">
            <mxPoint x="1071" y="2086" as="sourcePoint" />
            <mxPoint x="1231" y="2086" as="targetPoint" />
          </mxGeometry>
        </mxCell>
        <mxCell id="snfxcWBiUGc1tTe4uRyw-98" value="Use" style="endArrow=open;endSize=12;dashed=1;html=1;rounded=0;" parent="1" source="snfxcWBiUGc1tTe4uRyw-60" target="snfxcWBiUGc1tTe4uRyw-74" edge="1">
          <mxGeometry width="160" relative="1" as="geometry">
            <mxPoint x="951" y="1971" as="sourcePoint" />
            <mxPoint x="1121" y="1976" as="targetPoint" />
          </mxGeometry>
        </mxCell>
        <mxCell id="snfxcWBiUGc1tTe4uRyw-106" value="NYCheesePizza" style="swimlane;fontStyle=1;align=center;verticalAlign=top;childLayout=stackLayout;horizontal=1;startSize=26;horizontalStack=0;resizeParent=1;resizeParentMax=0;resizeLast=0;collapsible=1;marginBottom=0;whiteSpace=wrap;html=1;" parent="1" vertex="1">
          <mxGeometry x="871" y="2246" width="110" height="52" as="geometry" />
        </mxCell>
        <mxCell id="snfxcWBiUGc1tTe4uRyw-107" value="..." style="text;strokeColor=none;fillColor=none;align=left;verticalAlign=top;spacingLeft=4;spacingRight=4;overflow=hidden;rotatable=0;points=[[0,0.5],[1,0.5]];portConstraint=eastwest;whiteSpace=wrap;html=1;fontStyle=0" parent="snfxcWBiUGc1tTe4uRyw-106" vertex="1">
          <mxGeometry y="26" width="110" height="26" as="geometry" />
        </mxCell>
        <mxCell id="snfxcWBiUGc1tTe4uRyw-108" value="NYPeperoniPizza" style="swimlane;fontStyle=1;align=center;verticalAlign=top;childLayout=stackLayout;horizontal=1;startSize=26;horizontalStack=0;resizeParent=1;resizeParentMax=0;resizeLast=0;collapsible=1;marginBottom=0;whiteSpace=wrap;html=1;" parent="1" vertex="1">
          <mxGeometry x="1251" y="2234" width="120" height="52" as="geometry" />
        </mxCell>
        <mxCell id="snfxcWBiUGc1tTe4uRyw-109" value="..." style="text;strokeColor=none;fillColor=none;align=left;verticalAlign=top;spacingLeft=4;spacingRight=4;overflow=hidden;rotatable=0;points=[[0,0.5],[1,0.5]];portConstraint=eastwest;whiteSpace=wrap;html=1;fontStyle=0" parent="snfxcWBiUGc1tTe4uRyw-108" vertex="1">
          <mxGeometry y="26" width="120" height="26" as="geometry" />
        </mxCell>
        <mxCell id="snfxcWBiUGc1tTe4uRyw-110" value="NYNapolitanaPizza" style="swimlane;fontStyle=1;align=center;verticalAlign=top;childLayout=stackLayout;horizontal=1;startSize=26;horizontalStack=0;resizeParent=1;resizeParentMax=0;resizeLast=0;collapsible=1;marginBottom=0;whiteSpace=wrap;html=1;" parent="1" vertex="1">
          <mxGeometry x="1441" y="2226" width="158" height="52" as="geometry" />
        </mxCell>
        <mxCell id="snfxcWBiUGc1tTe4uRyw-111" value="..." style="text;strokeColor=none;fillColor=none;align=left;verticalAlign=top;spacingLeft=4;spacingRight=4;overflow=hidden;rotatable=0;points=[[0,0.5],[1,0.5]];portConstraint=eastwest;whiteSpace=wrap;html=1;fontStyle=0" parent="snfxcWBiUGc1tTe4uRyw-110" vertex="1">
          <mxGeometry y="26" width="158" height="26" as="geometry" />
        </mxCell>
        <mxCell id="snfxcWBiUGc1tTe4uRyw-112" value="" style="endArrow=block;endSize=16;endFill=0;html=1;rounded=0;" parent="1" source="snfxcWBiUGc1tTe4uRyw-106" target="snfxcWBiUGc1tTe4uRyw-79" edge="1">
          <mxGeometry width="160" relative="1" as="geometry">
            <mxPoint x="751" y="2196" as="sourcePoint" />
            <mxPoint x="911" y="2196" as="targetPoint" />
          </mxGeometry>
        </mxCell>
        <mxCell id="snfxcWBiUGc1tTe4uRyw-113" value="" style="endArrow=block;endSize=16;endFill=0;html=1;rounded=0;" parent="1" source="snfxcWBiUGc1tTe4uRyw-110" target="snfxcWBiUGc1tTe4uRyw-91" edge="1">
          <mxGeometry width="160" relative="1" as="geometry">
            <mxPoint x="1321" y="2216" as="sourcePoint" />
            <mxPoint x="964" y="2188" as="targetPoint" />
          </mxGeometry>
        </mxCell>
        <mxCell id="snfxcWBiUGc1tTe4uRyw-114" value="" style="endArrow=block;endSize=16;endFill=0;html=1;rounded=0;" parent="1" source="snfxcWBiUGc1tTe4uRyw-108" target="snfxcWBiUGc1tTe4uRyw-85" edge="1">
          <mxGeometry width="160" relative="1" as="geometry">
            <mxPoint x="1024" y="2266" as="sourcePoint" />
            <mxPoint x="1043" y="2198" as="targetPoint" />
          </mxGeometry>
        </mxCell>
        <mxCell id="snfxcWBiUGc1tTe4uRyw-115" value="ChicagoCheesePizza" style="swimlane;fontStyle=1;align=center;verticalAlign=top;childLayout=stackLayout;horizontal=1;startSize=26;horizontalStack=0;resizeParent=1;resizeParentMax=0;resizeLast=0;collapsible=1;marginBottom=0;whiteSpace=wrap;html=1;" parent="1" vertex="1">
          <mxGeometry x="1001" y="2246" width="140" height="52" as="geometry" />
        </mxCell>
        <mxCell id="snfxcWBiUGc1tTe4uRyw-116" value="..." style="text;strokeColor=none;fillColor=none;align=left;verticalAlign=top;spacingLeft=4;spacingRight=4;overflow=hidden;rotatable=0;points=[[0,0.5],[1,0.5]];portConstraint=eastwest;whiteSpace=wrap;html=1;fontStyle=0" parent="snfxcWBiUGc1tTe4uRyw-115" vertex="1">
          <mxGeometry y="26" width="140" height="26" as="geometry" />
        </mxCell>
        <mxCell id="snfxcWBiUGc1tTe4uRyw-117" value="" style="endArrow=block;endSize=16;endFill=0;html=1;rounded=0;" parent="1" source="snfxcWBiUGc1tTe4uRyw-115" target="snfxcWBiUGc1tTe4uRyw-79" edge="1">
          <mxGeometry width="160" relative="1" as="geometry">
            <mxPoint x="963" y="2256" as="sourcePoint" />
            <mxPoint x="1024" y="2198" as="targetPoint" />
          </mxGeometry>
        </mxCell>
        <mxCell id="snfxcWBiUGc1tTe4uRyw-118" value="ChicagoPeperoniPizza" style="swimlane;fontStyle=1;align=center;verticalAlign=top;childLayout=stackLayout;horizontal=1;startSize=26;horizontalStack=0;resizeParent=1;resizeParentMax=0;resizeLast=0;collapsible=1;marginBottom=0;whiteSpace=wrap;html=1;" parent="1" vertex="1">
          <mxGeometry x="1141" y="2306" width="140" height="52" as="geometry" />
        </mxCell>
        <mxCell id="snfxcWBiUGc1tTe4uRyw-119" value="..." style="text;strokeColor=none;fillColor=none;align=left;verticalAlign=top;spacingLeft=4;spacingRight=4;overflow=hidden;rotatable=0;points=[[0,0.5],[1,0.5]];portConstraint=eastwest;whiteSpace=wrap;html=1;fontStyle=0" parent="snfxcWBiUGc1tTe4uRyw-118" vertex="1">
          <mxGeometry y="26" width="140" height="26" as="geometry" />
        </mxCell>
        <mxCell id="snfxcWBiUGc1tTe4uRyw-120" value="" style="endArrow=block;endSize=16;endFill=0;html=1;rounded=0;" parent="1" source="snfxcWBiUGc1tTe4uRyw-118" target="snfxcWBiUGc1tTe4uRyw-85" edge="1">
          <mxGeometry width="160" relative="1" as="geometry">
            <mxPoint x="1251" y="2256" as="sourcePoint" />
            <mxPoint x="1251" y="2198" as="targetPoint" />
          </mxGeometry>
        </mxCell>
        <mxCell id="snfxcWBiUGc1tTe4uRyw-121" value="ChicagoNapolitanaPizza" style="swimlane;fontStyle=1;align=center;verticalAlign=top;childLayout=stackLayout;horizontal=1;startSize=26;horizontalStack=0;resizeParent=1;resizeParentMax=0;resizeLast=0;collapsible=1;marginBottom=0;whiteSpace=wrap;html=1;" parent="1" vertex="1">
          <mxGeometry x="1441" y="2286" width="158" height="52" as="geometry" />
        </mxCell>
        <mxCell id="snfxcWBiUGc1tTe4uRyw-122" value="..." style="text;strokeColor=none;fillColor=none;align=left;verticalAlign=top;spacingLeft=4;spacingRight=4;overflow=hidden;rotatable=0;points=[[0,0.5],[1,0.5]];portConstraint=eastwest;whiteSpace=wrap;html=1;fontStyle=0" parent="snfxcWBiUGc1tTe4uRyw-121" vertex="1">
          <mxGeometry y="26" width="158" height="26" as="geometry" />
        </mxCell>
        <mxCell id="snfxcWBiUGc1tTe4uRyw-123" value="" style="endArrow=block;endSize=16;endFill=0;html=1;rounded=0;edgeStyle=orthogonalEdgeStyle;" parent="1" source="snfxcWBiUGc1tTe4uRyw-121" target="snfxcWBiUGc1tTe4uRyw-91" edge="1">
          <mxGeometry width="160" relative="1" as="geometry">
            <mxPoint x="1507" y="2236" as="sourcePoint" />
            <mxPoint x="1474" y="2198" as="targetPoint" />
            <Array as="points">
              <mxPoint x="1421" y="2312" />
            </Array>
          </mxGeometry>
        </mxCell>
        <mxCell id="snfxcWBiUGc1tTe4uRyw-124" value="" style="endArrow=open;endSize=12;dashed=1;html=1;rounded=0;edgeStyle=orthogonalEdgeStyle;" parent="1" source="snfxcWBiUGc1tTe4uRyw-67" target="snfxcWBiUGc1tTe4uRyw-115" edge="1">
          <mxGeometry width="160" relative="1" as="geometry">
            <mxPoint x="621" y="2386" as="sourcePoint" />
            <mxPoint x="781" y="2386" as="targetPoint" />
            <Array as="points">
              <mxPoint x="701" y="2356" />
              <mxPoint x="1071" y="2356" />
            </Array>
          </mxGeometry>
        </mxCell>
        <mxCell id="snfxcWBiUGc1tTe4uRyw-125" value="" style="endArrow=open;endSize=12;dashed=1;html=1;rounded=0;edgeStyle=orthogonalEdgeStyle;" parent="1" source="snfxcWBiUGc1tTe4uRyw-67" target="snfxcWBiUGc1tTe4uRyw-118" edge="1">
          <mxGeometry width="160" relative="1" as="geometry">
            <mxPoint x="621" y="2386" as="sourcePoint" />
            <mxPoint x="781" y="2386" as="targetPoint" />
            <Array as="points">
              <mxPoint x="681" y="2386" />
              <mxPoint x="1211" y="2386" />
            </Array>
          </mxGeometry>
        </mxCell>
        <mxCell id="snfxcWBiUGc1tTe4uRyw-126" value="" style="endArrow=open;endSize=12;dashed=1;html=1;rounded=0;edgeStyle=orthogonalEdgeStyle;" parent="1" source="snfxcWBiUGc1tTe4uRyw-67" target="snfxcWBiUGc1tTe4uRyw-121" edge="1">
          <mxGeometry width="160" relative="1" as="geometry">
            <mxPoint x="777" y="2208" as="sourcePoint" />
            <mxPoint x="1151" y="2321" as="targetPoint" />
            <Array as="points">
              <mxPoint x="651" y="2406" />
              <mxPoint x="1520" y="2406" />
            </Array>
          </mxGeometry>
        </mxCell>
        <mxCell id="snfxcWBiUGc1tTe4uRyw-127" value="Use" style="endArrow=open;endSize=12;dashed=1;html=1;rounded=0;" parent="1" source="snfxcWBiUGc1tTe4uRyw-62" target="snfxcWBiUGc1tTe4uRyw-74" edge="1">
          <mxGeometry width="160" relative="1" as="geometry">
            <mxPoint x="951" y="1971" as="sourcePoint" />
            <mxPoint x="1121" y="1976" as="targetPoint" />
          </mxGeometry>
        </mxCell>
        <mxCell id="snfxcWBiUGc1tTe4uRyw-179" value="SimplePizzaFactory" style="swimlane;fontStyle=1;align=center;verticalAlign=top;childLayout=stackLayout;horizontal=1;startSize=26;horizontalStack=0;resizeParent=1;resizeParentMax=0;resizeLast=0;collapsible=1;marginBottom=0;whiteSpace=wrap;html=1;" parent="1" vertex="1">
          <mxGeometry x="790" y="2646" width="200" height="52" as="geometry" />
        </mxCell>
        <mxCell id="snfxcWBiUGc1tTe4uRyw-180" value="CreatePizza(type: string):Pizza" style="text;strokeColor=none;fillColor=none;align=left;verticalAlign=top;spacingLeft=4;spacingRight=4;overflow=hidden;rotatable=0;points=[[0,0.5],[1,0.5]];portConstraint=eastwest;whiteSpace=wrap;html=1;fontStyle=2" parent="snfxcWBiUGc1tTe4uRyw-179" vertex="1">
          <mxGeometry y="26" width="200" height="26" as="geometry" />
        </mxCell>
        <mxCell id="snfxcWBiUGc1tTe4uRyw-181" value="PizzaStore" style="swimlane;fontStyle=1;align=center;verticalAlign=top;childLayout=stackLayout;horizontal=1;startSize=26;horizontalStack=0;resizeParent=1;resizeParentMax=0;resizeLast=0;collapsible=1;marginBottom=0;whiteSpace=wrap;html=1;" parent="1" vertex="1">
          <mxGeometry x="866" y="2490" width="250" height="112" as="geometry" />
        </mxCell>
        <mxCell id="snfxcWBiUGc1tTe4uRyw-182" value="+PizzaStore(factory:SimplePizzaFactory)" style="text;strokeColor=none;fillColor=none;align=left;verticalAlign=top;spacingLeft=4;spacingRight=4;overflow=hidden;rotatable=0;points=[[0,0.5],[1,0.5]];portConstraint=eastwest;whiteSpace=wrap;html=1;fontStyle=0" parent="snfxcWBiUGc1tTe4uRyw-181" vertex="1">
          <mxGeometry y="26" width="250" height="26" as="geometry" />
        </mxCell>
        <mxCell id="snfxcWBiUGc1tTe4uRyw-183" value="+OrderPizza(type:string):Pizza" style="text;strokeColor=none;fillColor=none;align=left;verticalAlign=top;spacingLeft=4;spacingRight=4;overflow=hidden;rotatable=0;points=[[0,0.5],[1,0.5]];portConstraint=eastwest;whiteSpace=wrap;html=1;fontStyle=0" parent="snfxcWBiUGc1tTe4uRyw-181" vertex="1">
          <mxGeometry y="52" width="250" height="26" as="geometry" />
        </mxCell>
        <mxCell id="snfxcWBiUGc1tTe4uRyw-184" value="" style="line;strokeWidth=1;fillColor=none;align=left;verticalAlign=middle;spacingTop=-1;spacingLeft=3;spacingRight=3;rotatable=0;labelPosition=right;points=[];portConstraint=eastwest;strokeColor=inherit;" parent="snfxcWBiUGc1tTe4uRyw-181" vertex="1">
          <mxGeometry y="78" width="250" height="8" as="geometry" />
        </mxCell>
        <mxCell id="snfxcWBiUGc1tTe4uRyw-185" value="-m_pizzaFactory:SimplePizzaFactory" style="text;strokeColor=none;fillColor=none;align=left;verticalAlign=top;spacingLeft=4;spacingRight=4;overflow=hidden;rotatable=0;points=[[0,0.5],[1,0.5]];portConstraint=eastwest;whiteSpace=wrap;html=1;fontStyle=0" parent="snfxcWBiUGc1tTe4uRyw-181" vertex="1">
          <mxGeometry y="86" width="250" height="26" as="geometry" />
        </mxCell>
        <mxCell id="snfxcWBiUGc1tTe4uRyw-186" value="" style="endArrow=diamondThin;endFill=1;endSize=24;html=1;rounded=0;" parent="1" source="snfxcWBiUGc1tTe4uRyw-179" target="snfxcWBiUGc1tTe4uRyw-181" edge="1">
          <mxGeometry width="160" relative="1" as="geometry">
            <mxPoint x="440" y="2896" as="sourcePoint" />
            <mxPoint x="600" y="2896" as="targetPoint" />
          </mxGeometry>
        </mxCell>
        <mxCell id="snfxcWBiUGc1tTe4uRyw-187" value="NYPizzaFactory" style="swimlane;fontStyle=1;align=center;verticalAlign=top;childLayout=stackLayout;horizontal=1;startSize=26;horizontalStack=0;resizeParent=1;resizeParentMax=0;resizeLast=0;collapsible=1;marginBottom=0;whiteSpace=wrap;html=1;" parent="1" vertex="1">
          <mxGeometry x="830" y="2770" width="200" height="52" as="geometry" />
        </mxCell>
        <mxCell id="snfxcWBiUGc1tTe4uRyw-188" value="CreatePizza(type: string):Pizza" style="text;strokeColor=none;fillColor=none;align=left;verticalAlign=top;spacingLeft=4;spacingRight=4;overflow=hidden;rotatable=0;points=[[0,0.5],[1,0.5]];portConstraint=eastwest;whiteSpace=wrap;html=1;fontStyle=0" parent="snfxcWBiUGc1tTe4uRyw-187" vertex="1">
          <mxGeometry y="26" width="200" height="26" as="geometry" />
        </mxCell>
        <mxCell id="snfxcWBiUGc1tTe4uRyw-189" value="ChicagoPizzaFactory" style="swimlane;fontStyle=1;align=center;verticalAlign=top;childLayout=stackLayout;horizontal=1;startSize=26;horizontalStack=0;resizeParent=1;resizeParentMax=0;resizeLast=0;collapsible=1;marginBottom=0;whiteSpace=wrap;html=1;" parent="1" vertex="1">
          <mxGeometry x="620" y="2856" width="200" height="52" as="geometry" />
        </mxCell>
        <mxCell id="snfxcWBiUGc1tTe4uRyw-190" value="CreatePizza(type: string):Pizza" style="text;strokeColor=none;fillColor=none;align=left;verticalAlign=top;spacingLeft=4;spacingRight=4;overflow=hidden;rotatable=0;points=[[0,0.5],[1,0.5]];portConstraint=eastwest;whiteSpace=wrap;html=1;fontStyle=0" parent="snfxcWBiUGc1tTe4uRyw-189" vertex="1">
          <mxGeometry y="26" width="200" height="26" as="geometry" />
        </mxCell>
        <mxCell id="snfxcWBiUGc1tTe4uRyw-191" value="" style="endArrow=block;endSize=16;endFill=0;html=1;rounded=0;" parent="1" source="snfxcWBiUGc1tTe4uRyw-187" target="snfxcWBiUGc1tTe4uRyw-179" edge="1">
          <mxGeometry width="160" relative="1" as="geometry">
            <mxPoint x="740" y="2736" as="sourcePoint" />
            <mxPoint x="900" y="2736" as="targetPoint" />
          </mxGeometry>
        </mxCell>
        <mxCell id="snfxcWBiUGc1tTe4uRyw-192" value="" style="endArrow=block;endSize=16;endFill=0;html=1;rounded=0;" parent="1" source="snfxcWBiUGc1tTe4uRyw-189" target="snfxcWBiUGc1tTe4uRyw-179" edge="1">
          <mxGeometry width="160" relative="1" as="geometry">
            <mxPoint x="845" y="2776" as="sourcePoint" />
            <mxPoint x="885" y="2708" as="targetPoint" />
          </mxGeometry>
        </mxCell>
        <mxCell id="snfxcWBiUGc1tTe4uRyw-193" value="Pizza" style="swimlane;fontStyle=1;align=center;verticalAlign=top;childLayout=stackLayout;horizontal=1;startSize=26;horizontalStack=0;resizeParent=1;resizeParentMax=0;resizeLast=0;collapsible=1;marginBottom=0;whiteSpace=wrap;html=1;" parent="1" vertex="1">
          <mxGeometry x="1200" y="2646" width="160" height="130" as="geometry" />
        </mxCell>
        <mxCell id="snfxcWBiUGc1tTe4uRyw-194" value="Prepare()" style="text;strokeColor=none;fillColor=none;align=left;verticalAlign=top;spacingLeft=4;spacingRight=4;overflow=hidden;rotatable=0;points=[[0,0.5],[1,0.5]];portConstraint=eastwest;whiteSpace=wrap;html=1;fontStyle=0" parent="snfxcWBiUGc1tTe4uRyw-193" vertex="1">
          <mxGeometry y="26" width="160" height="26" as="geometry" />
        </mxCell>
        <mxCell id="snfxcWBiUGc1tTe4uRyw-195" value="Bake()" style="text;strokeColor=none;fillColor=none;align=left;verticalAlign=top;spacingLeft=4;spacingRight=4;overflow=hidden;rotatable=0;points=[[0,0.5],[1,0.5]];portConstraint=eastwest;whiteSpace=wrap;html=1;fontStyle=0" parent="snfxcWBiUGc1tTe4uRyw-193" vertex="1">
          <mxGeometry y="52" width="160" height="26" as="geometry" />
        </mxCell>
        <mxCell id="snfxcWBiUGc1tTe4uRyw-196" value="Cut()" style="text;strokeColor=none;fillColor=none;align=left;verticalAlign=top;spacingLeft=4;spacingRight=4;overflow=hidden;rotatable=0;points=[[0,0.5],[1,0.5]];portConstraint=eastwest;whiteSpace=wrap;html=1;fontStyle=0" parent="snfxcWBiUGc1tTe4uRyw-193" vertex="1">
          <mxGeometry y="78" width="160" height="26" as="geometry" />
        </mxCell>
        <mxCell id="snfxcWBiUGc1tTe4uRyw-197" value="Box()" style="text;strokeColor=none;fillColor=none;align=left;verticalAlign=top;spacingLeft=4;spacingRight=4;overflow=hidden;rotatable=0;points=[[0,0.5],[1,0.5]];portConstraint=eastwest;whiteSpace=wrap;html=1;fontStyle=0" parent="snfxcWBiUGc1tTe4uRyw-193" vertex="1">
          <mxGeometry y="104" width="160" height="26" as="geometry" />
        </mxCell>
        <mxCell id="snfxcWBiUGc1tTe4uRyw-198" value="CheesePizza" style="swimlane;fontStyle=1;align=center;verticalAlign=top;childLayout=stackLayout;horizontal=1;startSize=26;horizontalStack=0;resizeParent=1;resizeParentMax=0;resizeLast=0;collapsible=1;marginBottom=0;whiteSpace=wrap;html=1;" parent="1" vertex="1">
          <mxGeometry x="1000" y="2846" width="160" height="52" as="geometry" />
        </mxCell>
        <mxCell id="snfxcWBiUGc1tTe4uRyw-199" value="..." style="text;strokeColor=none;fillColor=none;align=left;verticalAlign=top;spacingLeft=4;spacingRight=4;overflow=hidden;rotatable=0;points=[[0,0.5],[1,0.5]];portConstraint=eastwest;whiteSpace=wrap;html=1;fontStyle=0" parent="snfxcWBiUGc1tTe4uRyw-198" vertex="1">
          <mxGeometry y="26" width="160" height="26" as="geometry" />
        </mxCell>
        <mxCell id="snfxcWBiUGc1tTe4uRyw-200" value="" style="endArrow=block;endSize=16;endFill=0;html=1;rounded=0;" parent="1" source="snfxcWBiUGc1tTe4uRyw-198" target="snfxcWBiUGc1tTe4uRyw-193" edge="1">
          <mxGeometry width="160" relative="1" as="geometry">
            <mxPoint x="1110" y="2796" as="sourcePoint" />
            <mxPoint x="1270" y="2796" as="targetPoint" />
          </mxGeometry>
        </mxCell>
        <mxCell id="snfxcWBiUGc1tTe4uRyw-201" value="PeperoniPizza" style="swimlane;fontStyle=1;align=center;verticalAlign=top;childLayout=stackLayout;horizontal=1;startSize=26;horizontalStack=0;resizeParent=1;resizeParentMax=0;resizeLast=0;collapsible=1;marginBottom=0;whiteSpace=wrap;html=1;" parent="1" vertex="1">
          <mxGeometry x="1200" y="2846" width="160" height="52" as="geometry" />
        </mxCell>
        <mxCell id="snfxcWBiUGc1tTe4uRyw-202" value="..." style="text;strokeColor=none;fillColor=none;align=left;verticalAlign=top;spacingLeft=4;spacingRight=4;overflow=hidden;rotatable=0;points=[[0,0.5],[1,0.5]];portConstraint=eastwest;whiteSpace=wrap;html=1;fontStyle=0" parent="snfxcWBiUGc1tTe4uRyw-201" vertex="1">
          <mxGeometry y="26" width="160" height="26" as="geometry" />
        </mxCell>
        <mxCell id="snfxcWBiUGc1tTe4uRyw-203" value="" style="endArrow=block;endSize=16;endFill=0;html=1;rounded=0;" parent="1" source="snfxcWBiUGc1tTe4uRyw-201" target="snfxcWBiUGc1tTe4uRyw-193" edge="1">
          <mxGeometry width="160" relative="1" as="geometry">
            <mxPoint x="1110" y="2796" as="sourcePoint" />
            <mxPoint x="1270" y="2796" as="targetPoint" />
          </mxGeometry>
        </mxCell>
        <mxCell id="snfxcWBiUGc1tTe4uRyw-204" value="NapolitanaPizza" style="swimlane;fontStyle=1;align=center;verticalAlign=top;childLayout=stackLayout;horizontal=1;startSize=26;horizontalStack=0;resizeParent=1;resizeParentMax=0;resizeLast=0;collapsible=1;marginBottom=0;whiteSpace=wrap;html=1;" parent="1" vertex="1">
          <mxGeometry x="1400" y="2846" width="160" height="52" as="geometry" />
        </mxCell>
        <mxCell id="snfxcWBiUGc1tTe4uRyw-205" value="..." style="text;strokeColor=none;fillColor=none;align=left;verticalAlign=top;spacingLeft=4;spacingRight=4;overflow=hidden;rotatable=0;points=[[0,0.5],[1,0.5]];portConstraint=eastwest;whiteSpace=wrap;html=1;fontStyle=0" parent="snfxcWBiUGc1tTe4uRyw-204" vertex="1">
          <mxGeometry y="26" width="160" height="26" as="geometry" />
        </mxCell>
        <mxCell id="snfxcWBiUGc1tTe4uRyw-206" value="" style="endArrow=block;endSize=16;endFill=0;html=1;rounded=0;" parent="1" source="snfxcWBiUGc1tTe4uRyw-204" target="snfxcWBiUGc1tTe4uRyw-193" edge="1">
          <mxGeometry width="160" relative="1" as="geometry">
            <mxPoint x="1110" y="2796" as="sourcePoint" />
            <mxPoint x="1270" y="2796" as="targetPoint" />
          </mxGeometry>
        </mxCell>
        <mxCell id="snfxcWBiUGc1tTe4uRyw-207" value="Use" style="endArrow=open;endSize=12;dashed=1;html=1;rounded=0;" parent="1" source="snfxcWBiUGc1tTe4uRyw-179" target="snfxcWBiUGc1tTe4uRyw-193" edge="1">
          <mxGeometry width="160" relative="1" as="geometry">
            <mxPoint x="990" y="2681" as="sourcePoint" />
            <mxPoint x="1160" y="2686" as="targetPoint" />
          </mxGeometry>
        </mxCell>
        <mxCell id="snfxcWBiUGc1tTe4uRyw-229" value="Use" style="endArrow=open;endSize=12;dashed=1;html=1;rounded=0;" parent="1" source="snfxcWBiUGc1tTe4uRyw-181" target="snfxcWBiUGc1tTe4uRyw-193" edge="1">
          <mxGeometry width="160" relative="1" as="geometry">
            <mxPoint x="990" y="2681" as="sourcePoint" />
            <mxPoint x="1160" y="2686" as="targetPoint" />
          </mxGeometry>
        </mxCell>
        <mxCell id="snfxcWBiUGc1tTe4uRyw-230" value="NYPizzaStore" style="swimlane;fontStyle=1;align=center;verticalAlign=top;childLayout=stackLayout;horizontal=1;startSize=26;horizontalStack=0;resizeParent=1;resizeParentMax=0;resizeLast=0;collapsible=1;marginBottom=0;whiteSpace=wrap;html=1;" parent="1" vertex="1">
          <mxGeometry x="470" y="2586" width="250" height="112" as="geometry" />
        </mxCell>
        <mxCell id="snfxcWBiUGc1tTe4uRyw-231" value="+PizzaStore(factory:SimplePizzaFactory)" style="text;strokeColor=none;fillColor=none;align=left;verticalAlign=top;spacingLeft=4;spacingRight=4;overflow=hidden;rotatable=0;points=[[0,0.5],[1,0.5]];portConstraint=eastwest;whiteSpace=wrap;html=1;fontStyle=0" parent="snfxcWBiUGc1tTe4uRyw-230" vertex="1">
          <mxGeometry y="26" width="250" height="26" as="geometry" />
        </mxCell>
        <mxCell id="snfxcWBiUGc1tTe4uRyw-232" value="+OrderPizza(type:string):Pizza" style="text;strokeColor=none;fillColor=none;align=left;verticalAlign=top;spacingLeft=4;spacingRight=4;overflow=hidden;rotatable=0;points=[[0,0.5],[1,0.5]];portConstraint=eastwest;whiteSpace=wrap;html=1;fontStyle=0" parent="snfxcWBiUGc1tTe4uRyw-230" vertex="1">
          <mxGeometry y="52" width="250" height="26" as="geometry" />
        </mxCell>
        <mxCell id="snfxcWBiUGc1tTe4uRyw-233" value="" style="line;strokeWidth=1;fillColor=none;align=left;verticalAlign=middle;spacingTop=-1;spacingLeft=3;spacingRight=3;rotatable=0;labelPosition=right;points=[];portConstraint=eastwest;strokeColor=inherit;" parent="snfxcWBiUGc1tTe4uRyw-230" vertex="1">
          <mxGeometry y="78" width="250" height="8" as="geometry" />
        </mxCell>
        <mxCell id="snfxcWBiUGc1tTe4uRyw-234" value="-m_pizzaFactory:SimplePizzaFactory" style="text;strokeColor=none;fillColor=none;align=left;verticalAlign=top;spacingLeft=4;spacingRight=4;overflow=hidden;rotatable=0;points=[[0,0.5],[1,0.5]];portConstraint=eastwest;whiteSpace=wrap;html=1;fontStyle=0" parent="snfxcWBiUGc1tTe4uRyw-230" vertex="1">
          <mxGeometry y="86" width="250" height="26" as="geometry" />
        </mxCell>
        <mxCell id="snfxcWBiUGc1tTe4uRyw-235" value="" style="endArrow=diamondThin;endFill=1;endSize=24;html=1;rounded=0;" parent="1" source="snfxcWBiUGc1tTe4uRyw-179" target="snfxcWBiUGc1tTe4uRyw-230" edge="1">
          <mxGeometry width="160" relative="1" as="geometry">
            <mxPoint x="440" y="2896" as="sourcePoint" />
            <mxPoint x="600" y="2896" as="targetPoint" />
          </mxGeometry>
        </mxCell>
        <mxCell id="snfxcWBiUGc1tTe4uRyw-236" value="auto pizza = m_pizzaFactory.CreatePizza(type);&lt;div&gt;&lt;br&gt;&lt;/div&gt;&lt;div&gt;pizza-&amp;gt;Prepare();&lt;/div&gt;&lt;div&gt;pizza-&amp;gt;Bake();&lt;/div&gt;&lt;div&gt;pizza-&amp;gt;Box();&lt;/div&gt;&lt;div&gt;&lt;br&gt;&lt;/div&gt;&lt;div&gt;return pizza;&lt;/div&gt;" style="shape=note;whiteSpace=wrap;html=1;backgroundOutline=1;darkOpacity=0.05;align=left;fillColor=#ffff88;strokeColor=#36393d;size=20;" parent="1" vertex="1">
          <mxGeometry x="450" y="2710" width="280" height="132" as="geometry" />
        </mxCell>
        <mxCell id="snfxcWBiUGc1tTe4uRyw-237" style="edgeStyle=orthogonalEdgeStyle;rounded=0;orthogonalLoop=1;jettySize=auto;html=1;" parent="1" source="snfxcWBiUGc1tTe4uRyw-232" target="snfxcWBiUGc1tTe4uRyw-236" edge="1">
          <mxGeometry relative="1" as="geometry">
            <Array as="points">
              <mxPoint x="420" y="2651" />
              <mxPoint x="420" y="2776" />
            </Array>
          </mxGeometry>
        </mxCell>
        <mxCell id="snfxcWBiUGc1tTe4uRyw-240" value="PizzaStore" style="swimlane;fontStyle=1;align=center;verticalAlign=top;childLayout=stackLayout;horizontal=1;startSize=26;horizontalStack=0;resizeParent=1;resizeParentMax=0;resizeLast=0;collapsible=1;marginBottom=0;whiteSpace=wrap;html=1;fillColor=#cce5ff;strokeColor=#36393d;" parent="1" vertex="1">
          <mxGeometry x="1910" y="1870" width="250" height="78" as="geometry" />
        </mxCell>
        <mxCell id="snfxcWBiUGc1tTe4uRyw-242" value="+OrderPizza(type:string):Pizza" style="text;strokeColor=none;fillColor=none;align=left;verticalAlign=top;spacingLeft=4;spacingRight=4;overflow=hidden;rotatable=0;points=[[0,0.5],[1,0.5]];portConstraint=eastwest;whiteSpace=wrap;html=1;fontStyle=0" parent="snfxcWBiUGc1tTe4uRyw-240" vertex="1">
          <mxGeometry y="26" width="250" height="26" as="geometry" />
        </mxCell>
        <mxCell id="snfxcWBiUGc1tTe4uRyw-289" value="-CreatePizza(type: string):Pizza" style="text;strokeColor=none;fillColor=none;align=left;verticalAlign=top;spacingLeft=4;spacingRight=4;overflow=hidden;rotatable=0;points=[[0,0.5],[1,0.5]];portConstraint=eastwest;whiteSpace=wrap;html=1;fontStyle=2" parent="snfxcWBiUGc1tTe4uRyw-240" vertex="1">
          <mxGeometry y="52" width="250" height="26" as="geometry" />
        </mxCell>
        <mxCell id="snfxcWBiUGc1tTe4uRyw-248" value="ChicagoPizzaStore" style="swimlane;fontStyle=1;align=center;verticalAlign=top;childLayout=stackLayout;horizontal=1;startSize=26;horizontalStack=0;resizeParent=1;resizeParentMax=0;resizeLast=0;collapsible=1;marginBottom=0;whiteSpace=wrap;html=1;fillColor=#cce5ff;strokeColor=#36393d;" parent="1" vertex="1">
          <mxGeometry x="1950" y="2020" width="180" height="52" as="geometry" />
        </mxCell>
        <mxCell id="snfxcWBiUGc1tTe4uRyw-249" value="CreatePizza(type: string):Pizza" style="text;strokeColor=none;fillColor=none;align=left;verticalAlign=top;spacingLeft=4;spacingRight=4;overflow=hidden;rotatable=0;points=[[0,0.5],[1,0.5]];portConstraint=eastwest;whiteSpace=wrap;html=1;fontStyle=0" parent="snfxcWBiUGc1tTe4uRyw-248" vertex="1">
          <mxGeometry y="26" width="180" height="26" as="geometry" />
        </mxCell>
        <mxCell id="snfxcWBiUGc1tTe4uRyw-252" value="Pizza" style="swimlane;fontStyle=1;align=center;verticalAlign=top;childLayout=stackLayout;horizontal=1;startSize=26;horizontalStack=0;resizeParent=1;resizeParentMax=0;resizeLast=0;collapsible=1;marginBottom=0;whiteSpace=wrap;html=1;fillColor=#cdeb8b;strokeColor=#36393d;" parent="1" vertex="1">
          <mxGeometry x="2350" y="1910" width="160" height="130" as="geometry" />
        </mxCell>
        <mxCell id="snfxcWBiUGc1tTe4uRyw-253" value="Prepare()" style="text;strokeColor=none;fillColor=none;align=left;verticalAlign=top;spacingLeft=4;spacingRight=4;overflow=hidden;rotatable=0;points=[[0,0.5],[1,0.5]];portConstraint=eastwest;whiteSpace=wrap;html=1;fontStyle=0" parent="snfxcWBiUGc1tTe4uRyw-252" vertex="1">
          <mxGeometry y="26" width="160" height="26" as="geometry" />
        </mxCell>
        <mxCell id="snfxcWBiUGc1tTe4uRyw-254" value="Bake()" style="text;strokeColor=none;fillColor=none;align=left;verticalAlign=top;spacingLeft=4;spacingRight=4;overflow=hidden;rotatable=0;points=[[0,0.5],[1,0.5]];portConstraint=eastwest;whiteSpace=wrap;html=1;fontStyle=0" parent="snfxcWBiUGc1tTe4uRyw-252" vertex="1">
          <mxGeometry y="52" width="160" height="26" as="geometry" />
        </mxCell>
        <mxCell id="snfxcWBiUGc1tTe4uRyw-255" value="Cut()" style="text;strokeColor=none;fillColor=none;align=left;verticalAlign=top;spacingLeft=4;spacingRight=4;overflow=hidden;rotatable=0;points=[[0,0.5],[1,0.5]];portConstraint=eastwest;whiteSpace=wrap;html=1;fontStyle=0" parent="snfxcWBiUGc1tTe4uRyw-252" vertex="1">
          <mxGeometry y="78" width="160" height="26" as="geometry" />
        </mxCell>
        <mxCell id="snfxcWBiUGc1tTe4uRyw-256" value="Box()" style="text;strokeColor=none;fillColor=none;align=left;verticalAlign=top;spacingLeft=4;spacingRight=4;overflow=hidden;rotatable=0;points=[[0,0.5],[1,0.5]];portConstraint=eastwest;whiteSpace=wrap;html=1;fontStyle=0" parent="snfxcWBiUGc1tTe4uRyw-252" vertex="1">
          <mxGeometry y="104" width="160" height="26" as="geometry" />
        </mxCell>
        <mxCell id="snfxcWBiUGc1tTe4uRyw-257" value="CheesePizza" style="swimlane;fontStyle=1;align=center;verticalAlign=top;childLayout=stackLayout;horizontal=1;startSize=26;horizontalStack=0;resizeParent=1;resizeParentMax=0;resizeLast=0;collapsible=1;marginBottom=0;whiteSpace=wrap;html=1;fillColor=#cdeb8b;strokeColor=#36393d;" parent="1" vertex="1">
          <mxGeometry x="2150" y="2110" width="160" height="52" as="geometry" />
        </mxCell>
        <mxCell id="snfxcWBiUGc1tTe4uRyw-258" value="..." style="text;strokeColor=none;fillColor=none;align=left;verticalAlign=top;spacingLeft=4;spacingRight=4;overflow=hidden;rotatable=0;points=[[0,0.5],[1,0.5]];portConstraint=eastwest;whiteSpace=wrap;html=1;fontStyle=0" parent="snfxcWBiUGc1tTe4uRyw-257" vertex="1">
          <mxGeometry y="26" width="160" height="26" as="geometry" />
        </mxCell>
        <mxCell id="snfxcWBiUGc1tTe4uRyw-259" value="" style="endArrow=block;endSize=16;endFill=0;html=1;rounded=0;" parent="1" source="snfxcWBiUGc1tTe4uRyw-257" target="snfxcWBiUGc1tTe4uRyw-252" edge="1">
          <mxGeometry width="160" relative="1" as="geometry">
            <mxPoint x="2260" y="2060" as="sourcePoint" />
            <mxPoint x="2420" y="2060" as="targetPoint" />
          </mxGeometry>
        </mxCell>
        <mxCell id="snfxcWBiUGc1tTe4uRyw-260" value="PeperoniPizza" style="swimlane;fontStyle=1;align=center;verticalAlign=top;childLayout=stackLayout;horizontal=1;startSize=26;horizontalStack=0;resizeParent=1;resizeParentMax=0;resizeLast=0;collapsible=1;marginBottom=0;whiteSpace=wrap;html=1;fillColor=#cdeb8b;strokeColor=#36393d;" parent="1" vertex="1">
          <mxGeometry x="2350" y="2110" width="160" height="52" as="geometry" />
        </mxCell>
        <mxCell id="snfxcWBiUGc1tTe4uRyw-261" value="..." style="text;strokeColor=none;fillColor=none;align=left;verticalAlign=top;spacingLeft=4;spacingRight=4;overflow=hidden;rotatable=0;points=[[0,0.5],[1,0.5]];portConstraint=eastwest;whiteSpace=wrap;html=1;fontStyle=0" parent="snfxcWBiUGc1tTe4uRyw-260" vertex="1">
          <mxGeometry y="26" width="160" height="26" as="geometry" />
        </mxCell>
        <mxCell id="snfxcWBiUGc1tTe4uRyw-262" value="" style="endArrow=block;endSize=16;endFill=0;html=1;rounded=0;" parent="1" source="snfxcWBiUGc1tTe4uRyw-260" target="snfxcWBiUGc1tTe4uRyw-252" edge="1">
          <mxGeometry width="160" relative="1" as="geometry">
            <mxPoint x="2260" y="2060" as="sourcePoint" />
            <mxPoint x="2420" y="2060" as="targetPoint" />
          </mxGeometry>
        </mxCell>
        <mxCell id="snfxcWBiUGc1tTe4uRyw-263" value="NapolitanaPizza" style="swimlane;fontStyle=1;align=center;verticalAlign=top;childLayout=stackLayout;horizontal=1;startSize=26;horizontalStack=0;resizeParent=1;resizeParentMax=0;resizeLast=0;collapsible=1;marginBottom=0;whiteSpace=wrap;html=1;fillColor=#cdeb8b;strokeColor=#36393d;" parent="1" vertex="1">
          <mxGeometry x="2550" y="2110" width="160" height="52" as="geometry" />
        </mxCell>
        <mxCell id="snfxcWBiUGc1tTe4uRyw-264" value="..." style="text;strokeColor=none;fillColor=none;align=left;verticalAlign=top;spacingLeft=4;spacingRight=4;overflow=hidden;rotatable=0;points=[[0,0.5],[1,0.5]];portConstraint=eastwest;whiteSpace=wrap;html=1;fontStyle=0" parent="snfxcWBiUGc1tTe4uRyw-263" vertex="1">
          <mxGeometry y="26" width="160" height="26" as="geometry" />
        </mxCell>
        <mxCell id="snfxcWBiUGc1tTe4uRyw-265" value="" style="endArrow=block;endSize=16;endFill=0;html=1;rounded=0;" parent="1" source="snfxcWBiUGc1tTe4uRyw-263" target="snfxcWBiUGc1tTe4uRyw-252" edge="1">
          <mxGeometry width="160" relative="1" as="geometry">
            <mxPoint x="2260" y="2060" as="sourcePoint" />
            <mxPoint x="2420" y="2060" as="targetPoint" />
          </mxGeometry>
        </mxCell>
        <mxCell id="snfxcWBiUGc1tTe4uRyw-267" value="NYCheesePizza" style="swimlane;fontStyle=1;align=center;verticalAlign=top;childLayout=stackLayout;horizontal=1;startSize=26;horizontalStack=0;resizeParent=1;resizeParentMax=0;resizeLast=0;collapsible=1;marginBottom=0;whiteSpace=wrap;html=1;fillColor=#cdeb8b;strokeColor=#36393d;" parent="1" vertex="1">
          <mxGeometry x="2060" y="2220" width="110" height="52" as="geometry" />
        </mxCell>
        <mxCell id="snfxcWBiUGc1tTe4uRyw-268" value="..." style="text;strokeColor=none;fillColor=none;align=left;verticalAlign=top;spacingLeft=4;spacingRight=4;overflow=hidden;rotatable=0;points=[[0,0.5],[1,0.5]];portConstraint=eastwest;whiteSpace=wrap;html=1;fontStyle=0" parent="snfxcWBiUGc1tTe4uRyw-267" vertex="1">
          <mxGeometry y="26" width="110" height="26" as="geometry" />
        </mxCell>
        <mxCell id="snfxcWBiUGc1tTe4uRyw-269" value="NYPeperoniPizza" style="swimlane;fontStyle=1;align=center;verticalAlign=top;childLayout=stackLayout;horizontal=1;startSize=26;horizontalStack=0;resizeParent=1;resizeParentMax=0;resizeLast=0;collapsible=1;marginBottom=0;whiteSpace=wrap;html=1;fillColor=#cdeb8b;strokeColor=#36393d;" parent="1" vertex="1">
          <mxGeometry x="2440" y="2208" width="120" height="52" as="geometry" />
        </mxCell>
        <mxCell id="snfxcWBiUGc1tTe4uRyw-270" value="..." style="text;strokeColor=none;fillColor=none;align=left;verticalAlign=top;spacingLeft=4;spacingRight=4;overflow=hidden;rotatable=0;points=[[0,0.5],[1,0.5]];portConstraint=eastwest;whiteSpace=wrap;html=1;fontStyle=0" parent="snfxcWBiUGc1tTe4uRyw-269" vertex="1">
          <mxGeometry y="26" width="120" height="26" as="geometry" />
        </mxCell>
        <mxCell id="snfxcWBiUGc1tTe4uRyw-271" value="NYNapolitanaPizza" style="swimlane;fontStyle=1;align=center;verticalAlign=top;childLayout=stackLayout;horizontal=1;startSize=26;horizontalStack=0;resizeParent=1;resizeParentMax=0;resizeLast=0;collapsible=1;marginBottom=0;whiteSpace=wrap;html=1;fillColor=#cdeb8b;strokeColor=#36393d;" parent="1" vertex="1">
          <mxGeometry x="2630" y="2200" width="158" height="52" as="geometry" />
        </mxCell>
        <mxCell id="snfxcWBiUGc1tTe4uRyw-272" value="..." style="text;strokeColor=none;fillColor=none;align=left;verticalAlign=top;spacingLeft=4;spacingRight=4;overflow=hidden;rotatable=0;points=[[0,0.5],[1,0.5]];portConstraint=eastwest;whiteSpace=wrap;html=1;fontStyle=0" parent="snfxcWBiUGc1tTe4uRyw-271" vertex="1">
          <mxGeometry y="26" width="158" height="26" as="geometry" />
        </mxCell>
        <mxCell id="snfxcWBiUGc1tTe4uRyw-273" value="" style="endArrow=block;endSize=16;endFill=0;html=1;rounded=0;" parent="1" source="snfxcWBiUGc1tTe4uRyw-267" target="snfxcWBiUGc1tTe4uRyw-257" edge="1">
          <mxGeometry width="160" relative="1" as="geometry">
            <mxPoint x="1940" y="2170" as="sourcePoint" />
            <mxPoint x="2100" y="2170" as="targetPoint" />
          </mxGeometry>
        </mxCell>
        <mxCell id="snfxcWBiUGc1tTe4uRyw-274" value="" style="endArrow=block;endSize=16;endFill=0;html=1;rounded=0;" parent="1" source="snfxcWBiUGc1tTe4uRyw-271" target="snfxcWBiUGc1tTe4uRyw-263" edge="1">
          <mxGeometry width="160" relative="1" as="geometry">
            <mxPoint x="2510" y="2190" as="sourcePoint" />
            <mxPoint x="2153" y="2162" as="targetPoint" />
          </mxGeometry>
        </mxCell>
        <mxCell id="snfxcWBiUGc1tTe4uRyw-275" value="" style="endArrow=block;endSize=16;endFill=0;html=1;rounded=0;" parent="1" source="snfxcWBiUGc1tTe4uRyw-269" target="snfxcWBiUGc1tTe4uRyw-260" edge="1">
          <mxGeometry width="160" relative="1" as="geometry">
            <mxPoint x="2213" y="2240" as="sourcePoint" />
            <mxPoint x="2232" y="2172" as="targetPoint" />
          </mxGeometry>
        </mxCell>
        <mxCell id="snfxcWBiUGc1tTe4uRyw-276" value="ChicagoCheesePizza" style="swimlane;fontStyle=1;align=center;verticalAlign=top;childLayout=stackLayout;horizontal=1;startSize=26;horizontalStack=0;resizeParent=1;resizeParentMax=0;resizeLast=0;collapsible=1;marginBottom=0;whiteSpace=wrap;html=1;fillColor=#cdeb8b;strokeColor=#36393d;" parent="1" vertex="1">
          <mxGeometry x="2190" y="2220" width="140" height="52" as="geometry" />
        </mxCell>
        <mxCell id="snfxcWBiUGc1tTe4uRyw-277" value="..." style="text;strokeColor=none;fillColor=none;align=left;verticalAlign=top;spacingLeft=4;spacingRight=4;overflow=hidden;rotatable=0;points=[[0,0.5],[1,0.5]];portConstraint=eastwest;whiteSpace=wrap;html=1;fontStyle=0" parent="snfxcWBiUGc1tTe4uRyw-276" vertex="1">
          <mxGeometry y="26" width="140" height="26" as="geometry" />
        </mxCell>
        <mxCell id="snfxcWBiUGc1tTe4uRyw-278" value="" style="endArrow=block;endSize=16;endFill=0;html=1;rounded=0;" parent="1" source="snfxcWBiUGc1tTe4uRyw-276" target="snfxcWBiUGc1tTe4uRyw-257" edge="1">
          <mxGeometry width="160" relative="1" as="geometry">
            <mxPoint x="2152" y="2230" as="sourcePoint" />
            <mxPoint x="2213" y="2172" as="targetPoint" />
          </mxGeometry>
        </mxCell>
        <mxCell id="snfxcWBiUGc1tTe4uRyw-279" value="ChicagoPeperoniPizza" style="swimlane;fontStyle=1;align=center;verticalAlign=top;childLayout=stackLayout;horizontal=1;startSize=26;horizontalStack=0;resizeParent=1;resizeParentMax=0;resizeLast=0;collapsible=1;marginBottom=0;whiteSpace=wrap;html=1;fillColor=#cdeb8b;strokeColor=#36393d;" parent="1" vertex="1">
          <mxGeometry x="2330" y="2280" width="140" height="52" as="geometry" />
        </mxCell>
        <mxCell id="snfxcWBiUGc1tTe4uRyw-280" value="..." style="text;strokeColor=none;fillColor=none;align=left;verticalAlign=top;spacingLeft=4;spacingRight=4;overflow=hidden;rotatable=0;points=[[0,0.5],[1,0.5]];portConstraint=eastwest;whiteSpace=wrap;html=1;fontStyle=0" parent="snfxcWBiUGc1tTe4uRyw-279" vertex="1">
          <mxGeometry y="26" width="140" height="26" as="geometry" />
        </mxCell>
        <mxCell id="snfxcWBiUGc1tTe4uRyw-281" value="" style="endArrow=block;endSize=16;endFill=0;html=1;rounded=0;" parent="1" source="snfxcWBiUGc1tTe4uRyw-279" target="snfxcWBiUGc1tTe4uRyw-260" edge="1">
          <mxGeometry width="160" relative="1" as="geometry">
            <mxPoint x="2440" y="2230" as="sourcePoint" />
            <mxPoint x="2440" y="2172" as="targetPoint" />
          </mxGeometry>
        </mxCell>
        <mxCell id="snfxcWBiUGc1tTe4uRyw-282" value="ChicagoNapolitanaPizza" style="swimlane;fontStyle=1;align=center;verticalAlign=top;childLayout=stackLayout;horizontal=1;startSize=26;horizontalStack=0;resizeParent=1;resizeParentMax=0;resizeLast=0;collapsible=1;marginBottom=0;whiteSpace=wrap;html=1;fillColor=#cdeb8b;strokeColor=#36393d;" parent="1" vertex="1">
          <mxGeometry x="2530" y="2278" width="158" height="52" as="geometry" />
        </mxCell>
        <mxCell id="snfxcWBiUGc1tTe4uRyw-283" value="..." style="text;strokeColor=none;fillColor=none;align=left;verticalAlign=top;spacingLeft=4;spacingRight=4;overflow=hidden;rotatable=0;points=[[0,0.5],[1,0.5]];portConstraint=eastwest;whiteSpace=wrap;html=1;fontStyle=0" parent="snfxcWBiUGc1tTe4uRyw-282" vertex="1">
          <mxGeometry y="26" width="158" height="26" as="geometry" />
        </mxCell>
        <mxCell id="snfxcWBiUGc1tTe4uRyw-284" value="" style="endArrow=block;endSize=16;endFill=0;html=1;rounded=0;edgeStyle=orthogonalEdgeStyle;" parent="1" source="snfxcWBiUGc1tTe4uRyw-282" target="snfxcWBiUGc1tTe4uRyw-263" edge="1">
          <mxGeometry width="160" relative="1" as="geometry">
            <mxPoint x="2696" y="2210" as="sourcePoint" />
            <mxPoint x="2663" y="2172" as="targetPoint" />
            <Array as="points">
              <mxPoint x="2610" y="2286" />
            </Array>
          </mxGeometry>
        </mxCell>
        <mxCell id="snfxcWBiUGc1tTe4uRyw-285" value="" style="endArrow=open;endSize=12;dashed=1;html=1;rounded=0;edgeStyle=orthogonalEdgeStyle;" parent="1" source="snfxcWBiUGc1tTe4uRyw-248" target="snfxcWBiUGc1tTe4uRyw-276" edge="1">
          <mxGeometry width="160" relative="1" as="geometry">
            <mxPoint x="1810" y="2360" as="sourcePoint" />
            <mxPoint x="1970" y="2360" as="targetPoint" />
            <Array as="points">
              <mxPoint x="2040" y="2330" />
              <mxPoint x="2260" y="2330" />
            </Array>
          </mxGeometry>
        </mxCell>
        <mxCell id="snfxcWBiUGc1tTe4uRyw-286" value="" style="endArrow=open;endSize=12;dashed=1;html=1;rounded=0;edgeStyle=orthogonalEdgeStyle;" parent="1" source="snfxcWBiUGc1tTe4uRyw-248" target="snfxcWBiUGc1tTe4uRyw-279" edge="1">
          <mxGeometry width="160" relative="1" as="geometry">
            <mxPoint x="1810" y="2360" as="sourcePoint" />
            <mxPoint x="1970" y="2360" as="targetPoint" />
            <Array as="points">
              <mxPoint x="2020" y="2360" />
              <mxPoint x="2400" y="2360" />
            </Array>
          </mxGeometry>
        </mxCell>
        <mxCell id="snfxcWBiUGc1tTe4uRyw-287" value="" style="endArrow=open;endSize=12;dashed=1;html=1;rounded=0;edgeStyle=orthogonalEdgeStyle;" parent="1" source="snfxcWBiUGc1tTe4uRyw-248" target="snfxcWBiUGc1tTe4uRyw-282" edge="1">
          <mxGeometry width="160" relative="1" as="geometry">
            <mxPoint x="1966" y="2182" as="sourcePoint" />
            <mxPoint x="2340" y="2295" as="targetPoint" />
            <Array as="points">
              <mxPoint x="2000" y="2380" />
              <mxPoint x="2610" y="2380" />
            </Array>
          </mxGeometry>
        </mxCell>
        <mxCell id="snfxcWBiUGc1tTe4uRyw-288" value="Use" style="endArrow=open;endSize=12;dashed=1;html=1;rounded=0;" parent="1" source="snfxcWBiUGc1tTe4uRyw-240" target="snfxcWBiUGc1tTe4uRyw-252" edge="1">
          <mxGeometry width="160" relative="1" as="geometry">
            <mxPoint x="2140" y="1945" as="sourcePoint" />
            <mxPoint x="2310" y="1950" as="targetPoint" />
          </mxGeometry>
        </mxCell>
        <mxCell id="snfxcWBiUGc1tTe4uRyw-290" value="" style="endArrow=block;endSize=16;endFill=0;html=1;rounded=0;" parent="1" source="snfxcWBiUGc1tTe4uRyw-248" target="snfxcWBiUGc1tTe4uRyw-240" edge="1">
          <mxGeometry width="160" relative="1" as="geometry">
            <mxPoint x="2058" y="2050" as="sourcePoint" />
            <mxPoint x="2052" y="1972" as="targetPoint" />
          </mxGeometry>
        </mxCell>
        <mxCell id="snfxcWBiUGc1tTe4uRyw-293" value="NYPizzaStore" style="swimlane;fontStyle=1;align=center;verticalAlign=top;childLayout=stackLayout;horizontal=1;startSize=26;horizontalStack=0;resizeParent=1;resizeParentMax=0;resizeLast=0;collapsible=1;marginBottom=0;whiteSpace=wrap;html=1;fillColor=#cce5ff;strokeColor=#36393d;" parent="1" vertex="1">
          <mxGeometry x="1750" y="2020" width="185" height="52" as="geometry" />
        </mxCell>
        <mxCell id="snfxcWBiUGc1tTe4uRyw-294" value="CreatePizza(type: string):Pizza" style="text;strokeColor=none;fillColor=none;align=left;verticalAlign=top;spacingLeft=4;spacingRight=4;overflow=hidden;rotatable=0;points=[[0,0.5],[1,0.5]];portConstraint=eastwest;whiteSpace=wrap;html=1;fontStyle=0" parent="snfxcWBiUGc1tTe4uRyw-293" vertex="1">
          <mxGeometry y="26" width="185" height="26" as="geometry" />
        </mxCell>
        <mxCell id="snfxcWBiUGc1tTe4uRyw-295" value="" style="endArrow=block;endSize=16;endFill=0;html=1;rounded=0;" parent="1" source="snfxcWBiUGc1tTe4uRyw-293" target="snfxcWBiUGc1tTe4uRyw-240" edge="1">
          <mxGeometry width="160" relative="1" as="geometry">
            <mxPoint x="2058" y="2050" as="sourcePoint" />
            <mxPoint x="2052" y="1972" as="targetPoint" />
          </mxGeometry>
        </mxCell>
        <mxCell id="snfxcWBiUGc1tTe4uRyw-296" value="" style="endArrow=open;endSize=12;dashed=1;html=1;rounded=0;edgeStyle=orthogonalEdgeStyle;" parent="1" source="snfxcWBiUGc1tTe4uRyw-293" target="snfxcWBiUGc1tTe4uRyw-267" edge="1">
          <mxGeometry width="160" relative="1" as="geometry">
            <mxPoint x="2050" y="2082" as="sourcePoint" />
            <mxPoint x="2270" y="2282" as="targetPoint" />
            <Array as="points">
              <mxPoint x="1900" y="2400" />
              <mxPoint x="2130" y="2400" />
            </Array>
          </mxGeometry>
        </mxCell>
        <mxCell id="snfxcWBiUGc1tTe4uRyw-297" value="" style="endArrow=open;endSize=12;dashed=1;html=1;rounded=0;edgeStyle=orthogonalEdgeStyle;" parent="1" source="snfxcWBiUGc1tTe4uRyw-293" target="snfxcWBiUGc1tTe4uRyw-269" edge="1">
          <mxGeometry width="160" relative="1" as="geometry">
            <mxPoint x="2050" y="2082" as="sourcePoint" />
            <mxPoint x="2270" y="2282" as="targetPoint" />
            <Array as="points">
              <mxPoint x="1880" y="2420" />
              <mxPoint x="2500" y="2420" />
            </Array>
          </mxGeometry>
        </mxCell>
        <mxCell id="snfxcWBiUGc1tTe4uRyw-298" value="" style="endArrow=open;endSize=12;dashed=1;html=1;rounded=0;edgeStyle=orthogonalEdgeStyle;" parent="1" source="snfxcWBiUGc1tTe4uRyw-293" target="snfxcWBiUGc1tTe4uRyw-271" edge="1">
          <mxGeometry width="160" relative="1" as="geometry">
            <mxPoint x="1880" y="2072" as="sourcePoint" />
            <mxPoint x="2500" y="2260" as="targetPoint" />
            <Array as="points">
              <mxPoint x="1850" y="2440" />
              <mxPoint x="2709" y="2440" />
            </Array>
          </mxGeometry>
        </mxCell>
        <mxCell id="snfxcWBiUGc1tTe4uRyw-299" value="&lt;i style=&quot;font-weight: normal;&quot;&gt;&amp;lt;&amp;lt;interface&amp;gt;&amp;gt;&lt;/i&gt;&lt;div&gt;&lt;i&gt;AbstractFactory&lt;/i&gt;&lt;/div&gt;" style="swimlane;fontStyle=1;align=center;verticalAlign=top;childLayout=stackLayout;horizontal=1;startSize=42;horizontalStack=0;resizeParent=1;resizeParentMax=0;resizeLast=0;collapsible=1;marginBottom=0;whiteSpace=wrap;html=1;fillColor=#cce5ff;strokeColor=#36393d;" parent="1" vertex="1">
          <mxGeometry x="1935" y="2610" width="250" height="94" as="geometry" />
        </mxCell>
        <mxCell id="snfxcWBiUGc1tTe4uRyw-300" value="CreateProductA():AbstractProductA" style="text;strokeColor=none;fillColor=none;align=left;verticalAlign=top;spacingLeft=4;spacingRight=4;overflow=hidden;rotatable=0;points=[[0,0.5],[1,0.5]];portConstraint=eastwest;whiteSpace=wrap;html=1;fontStyle=2" parent="snfxcWBiUGc1tTe4uRyw-299" vertex="1">
          <mxGeometry y="42" width="250" height="26" as="geometry" />
        </mxCell>
        <mxCell id="snfxcWBiUGc1tTe4uRyw-301" value="CreateProductB():AbstractProductB" style="text;strokeColor=none;fillColor=none;align=left;verticalAlign=top;spacingLeft=4;spacingRight=4;overflow=hidden;rotatable=0;points=[[0,0.5],[1,0.5]];portConstraint=eastwest;whiteSpace=wrap;html=1;fontStyle=2" parent="snfxcWBiUGc1tTe4uRyw-299" vertex="1">
          <mxGeometry y="68" width="250" height="26" as="geometry" />
        </mxCell>
        <mxCell id="snfxcWBiUGc1tTe4uRyw-302" value="&lt;i style=&quot;font-weight: normal;&quot;&gt;&amp;lt;&amp;lt;interface&amp;gt;&amp;gt;&lt;/i&gt;&lt;div&gt;&lt;i&gt;AbstractProductA&lt;/i&gt;&lt;/div&gt;" style="swimlane;fontStyle=1;align=center;verticalAlign=top;childLayout=stackLayout;horizontal=1;startSize=42;horizontalStack=0;resizeParent=1;resizeParentMax=0;resizeLast=0;collapsible=1;marginBottom=0;whiteSpace=wrap;html=1;fillColor=#cdeb8b;strokeColor=#36393d;" parent="1" vertex="1">
          <mxGeometry x="2350" y="2660" width="170" height="68" as="geometry" />
        </mxCell>
        <mxCell id="snfxcWBiUGc1tTe4uRyw-304" value="..." style="text;strokeColor=none;fillColor=none;align=left;verticalAlign=top;spacingLeft=4;spacingRight=4;overflow=hidden;rotatable=0;points=[[0,0.5],[1,0.5]];portConstraint=eastwest;whiteSpace=wrap;html=1;fontStyle=2" parent="snfxcWBiUGc1tTe4uRyw-302" vertex="1">
          <mxGeometry y="42" width="170" height="26" as="geometry" />
        </mxCell>
        <mxCell id="snfxcWBiUGc1tTe4uRyw-305" value="&lt;i style=&quot;font-weight: normal;&quot;&gt;&amp;lt;&amp;lt;interface&amp;gt;&amp;gt;&lt;/i&gt;&lt;div&gt;&lt;i&gt;AbstractProductB&lt;/i&gt;&lt;/div&gt;" style="swimlane;fontStyle=1;align=center;verticalAlign=top;childLayout=stackLayout;horizontal=1;startSize=42;horizontalStack=0;resizeParent=1;resizeParentMax=0;resizeLast=0;collapsible=1;marginBottom=0;whiteSpace=wrap;html=1;fillColor=#cdeb8b;strokeColor=#36393d;" parent="1" vertex="1">
          <mxGeometry x="2630" y="2660" width="180" height="68" as="geometry" />
        </mxCell>
        <mxCell id="snfxcWBiUGc1tTe4uRyw-306" value="..." style="text;strokeColor=none;fillColor=none;align=left;verticalAlign=top;spacingLeft=4;spacingRight=4;overflow=hidden;rotatable=0;points=[[0,0.5],[1,0.5]];portConstraint=eastwest;whiteSpace=wrap;html=1;fontStyle=2" parent="snfxcWBiUGc1tTe4uRyw-305" vertex="1">
          <mxGeometry y="42" width="180" height="26" as="geometry" />
        </mxCell>
        <mxCell id="snfxcWBiUGc1tTe4uRyw-307" value="Use" style="endArrow=open;endSize=12;dashed=1;html=1;rounded=0;" parent="1" source="snfxcWBiUGc1tTe4uRyw-299" target="snfxcWBiUGc1tTe4uRyw-302" edge="1">
          <mxGeometry width="160" relative="1" as="geometry">
            <mxPoint x="2210" y="2982" as="sourcePoint" />
            <mxPoint x="2370" y="2982" as="targetPoint" />
          </mxGeometry>
        </mxCell>
        <mxCell id="snfxcWBiUGc1tTe4uRyw-308" value="Use" style="endArrow=open;endSize=12;dashed=1;html=1;rounded=0;edgeStyle=orthogonalEdgeStyle;" parent="1" source="snfxcWBiUGc1tTe4uRyw-299" target="snfxcWBiUGc1tTe4uRyw-305" edge="1">
          <mxGeometry width="160" relative="1" as="geometry">
            <mxPoint x="2210" y="2982" as="sourcePoint" />
            <mxPoint x="2370" y="2982" as="targetPoint" />
            <Array as="points">
              <mxPoint x="2720" y="2630" />
            </Array>
          </mxGeometry>
        </mxCell>
        <mxCell id="snfxcWBiUGc1tTe4uRyw-309" value="&lt;div&gt;&lt;i&gt;ConcreteFactory1&lt;/i&gt;&lt;/div&gt;" style="swimlane;fontStyle=1;align=center;verticalAlign=top;childLayout=stackLayout;horizontal=1;startSize=30;horizontalStack=0;resizeParent=1;resizeParentMax=0;resizeLast=0;collapsible=1;marginBottom=0;whiteSpace=wrap;html=1;fillColor=#cce5ff;strokeColor=#36393d;" parent="1" vertex="1">
          <mxGeometry x="1830" y="2882" width="210" height="82" as="geometry" />
        </mxCell>
        <mxCell id="snfxcWBiUGc1tTe4uRyw-310" value="CreateProductA():AbstractProductA" style="text;strokeColor=none;fillColor=none;align=left;verticalAlign=top;spacingLeft=4;spacingRight=4;overflow=hidden;rotatable=0;points=[[0,0.5],[1,0.5]];portConstraint=eastwest;whiteSpace=wrap;html=1;fontStyle=0" parent="snfxcWBiUGc1tTe4uRyw-309" vertex="1">
          <mxGeometry y="30" width="210" height="26" as="geometry" />
        </mxCell>
        <mxCell id="snfxcWBiUGc1tTe4uRyw-311" value="CreateProductB():AbstractProductB" style="text;strokeColor=none;fillColor=none;align=left;verticalAlign=top;spacingLeft=4;spacingRight=4;overflow=hidden;rotatable=0;points=[[0,0.5],[1,0.5]];portConstraint=eastwest;whiteSpace=wrap;html=1;fontStyle=0" parent="snfxcWBiUGc1tTe4uRyw-309" vertex="1">
          <mxGeometry y="56" width="210" height="26" as="geometry" />
        </mxCell>
        <mxCell id="snfxcWBiUGc1tTe4uRyw-312" value="&lt;div&gt;&lt;i&gt;ConcreteFactory2&lt;/i&gt;&lt;/div&gt;" style="swimlane;fontStyle=1;align=center;verticalAlign=top;childLayout=stackLayout;horizontal=1;startSize=30;horizontalStack=0;resizeParent=1;resizeParentMax=0;resizeLast=0;collapsible=1;marginBottom=0;whiteSpace=wrap;html=1;fillColor=#cce5ff;strokeColor=#36393d;" parent="1" vertex="1">
          <mxGeometry x="2100" y="2882" width="210" height="82" as="geometry" />
        </mxCell>
        <mxCell id="snfxcWBiUGc1tTe4uRyw-313" value="CreateProductA():AbstractProductA" style="text;strokeColor=none;fillColor=none;align=left;verticalAlign=top;spacingLeft=4;spacingRight=4;overflow=hidden;rotatable=0;points=[[0,0.5],[1,0.5]];portConstraint=eastwest;whiteSpace=wrap;html=1;fontStyle=0" parent="snfxcWBiUGc1tTe4uRyw-312" vertex="1">
          <mxGeometry y="30" width="210" height="26" as="geometry" />
        </mxCell>
        <mxCell id="snfxcWBiUGc1tTe4uRyw-314" value="CreateProductB():AbstractProductB" style="text;strokeColor=none;fillColor=none;align=left;verticalAlign=top;spacingLeft=4;spacingRight=4;overflow=hidden;rotatable=0;points=[[0,0.5],[1,0.5]];portConstraint=eastwest;whiteSpace=wrap;html=1;fontStyle=0" parent="snfxcWBiUGc1tTe4uRyw-312" vertex="1">
          <mxGeometry y="56" width="210" height="26" as="geometry" />
        </mxCell>
        <mxCell id="snfxcWBiUGc1tTe4uRyw-316" value="" style="endArrow=block;dashed=1;endFill=0;endSize=12;html=1;rounded=0;" parent="1" source="snfxcWBiUGc1tTe4uRyw-309" target="snfxcWBiUGc1tTe4uRyw-299" edge="1">
          <mxGeometry width="160" relative="1" as="geometry">
            <mxPoint x="1930" y="2842" as="sourcePoint" />
            <mxPoint x="2090" y="2842" as="targetPoint" />
          </mxGeometry>
        </mxCell>
        <mxCell id="snfxcWBiUGc1tTe4uRyw-317" value="" style="endArrow=block;dashed=1;endFill=0;endSize=12;html=1;rounded=0;" parent="1" source="snfxcWBiUGc1tTe4uRyw-312" target="snfxcWBiUGc1tTe4uRyw-299" edge="1">
          <mxGeometry width="160" relative="1" as="geometry">
            <mxPoint x="1930" y="2842" as="sourcePoint" />
            <mxPoint x="2090" y="2842" as="targetPoint" />
          </mxGeometry>
        </mxCell>
        <mxCell id="snfxcWBiUGc1tTe4uRyw-318" value="&lt;div&gt;&lt;i&gt;ConcreteProductB1&lt;/i&gt;&lt;/div&gt;" style="swimlane;fontStyle=1;align=center;verticalAlign=top;childLayout=stackLayout;horizontal=1;startSize=30;horizontalStack=0;resizeParent=1;resizeParentMax=0;resizeLast=0;collapsible=1;marginBottom=0;whiteSpace=wrap;html=1;fillColor=#cdeb8b;strokeColor=#36393d;" parent="1" vertex="1">
          <mxGeometry x="2570" y="2826" width="150" height="56" as="geometry" />
        </mxCell>
        <mxCell id="snfxcWBiUGc1tTe4uRyw-321" value="&lt;div&gt;&lt;i&gt;ConcreteProductB2&lt;/i&gt;&lt;/div&gt;" style="swimlane;fontStyle=1;align=center;verticalAlign=top;childLayout=stackLayout;horizontal=1;startSize=30;horizontalStack=0;resizeParent=1;resizeParentMax=0;resizeLast=0;collapsible=1;marginBottom=0;whiteSpace=wrap;html=1;fillColor=#cdeb8b;strokeColor=#36393d;" parent="1" vertex="1">
          <mxGeometry x="2745" y="2840" width="150" height="56" as="geometry" />
        </mxCell>
        <mxCell id="snfxcWBiUGc1tTe4uRyw-322" value="" style="endArrow=block;dashed=1;endFill=0;endSize=12;html=1;rounded=0;" parent="1" source="snfxcWBiUGc1tTe4uRyw-318" target="snfxcWBiUGc1tTe4uRyw-305" edge="1">
          <mxGeometry width="160" relative="1" as="geometry">
            <mxPoint x="2390" y="2922" as="sourcePoint" />
            <mxPoint x="2550" y="2922" as="targetPoint" />
          </mxGeometry>
        </mxCell>
        <mxCell id="snfxcWBiUGc1tTe4uRyw-323" value="" style="endArrow=block;dashed=1;endFill=0;endSize=12;html=1;rounded=0;" parent="1" source="snfxcWBiUGc1tTe4uRyw-321" target="snfxcWBiUGc1tTe4uRyw-305" edge="1">
          <mxGeometry width="160" relative="1" as="geometry">
            <mxPoint x="2390" y="2922" as="sourcePoint" />
            <mxPoint x="2550" y="2922" as="targetPoint" />
          </mxGeometry>
        </mxCell>
        <mxCell id="snfxcWBiUGc1tTe4uRyw-324" value="&lt;div&gt;&lt;i&gt;ConcreteProductA1&lt;/i&gt;&lt;/div&gt;" style="swimlane;fontStyle=1;align=center;verticalAlign=top;childLayout=stackLayout;horizontal=1;startSize=30;horizontalStack=0;resizeParent=1;resizeParentMax=0;resizeLast=0;collapsible=1;marginBottom=0;whiteSpace=wrap;html=1;fillColor=#cdeb8b;strokeColor=#36393d;" parent="1" vertex="1">
          <mxGeometry x="2250" y="2766" width="150" height="56" as="geometry" />
        </mxCell>
        <mxCell id="snfxcWBiUGc1tTe4uRyw-325" value="&lt;div&gt;&lt;i&gt;ConcreteProductA2&lt;/i&gt;&lt;/div&gt;" style="swimlane;fontStyle=1;align=center;verticalAlign=top;childLayout=stackLayout;horizontal=1;startSize=30;horizontalStack=0;resizeParent=1;resizeParentMax=0;resizeLast=0;collapsible=1;marginBottom=0;whiteSpace=wrap;html=1;fillColor=#cdeb8b;strokeColor=#36393d;" parent="1" vertex="1">
          <mxGeometry x="2440" y="2768" width="150" height="56" as="geometry" />
        </mxCell>
        <mxCell id="snfxcWBiUGc1tTe4uRyw-326" value="" style="endArrow=block;dashed=1;endFill=0;endSize=12;html=1;rounded=0;" parent="1" source="snfxcWBiUGc1tTe4uRyw-324" target="snfxcWBiUGc1tTe4uRyw-302" edge="1">
          <mxGeometry width="160" relative="1" as="geometry">
            <mxPoint x="2595" y="2962" as="sourcePoint" />
            <mxPoint x="2501" y="2910" as="targetPoint" />
          </mxGeometry>
        </mxCell>
        <mxCell id="snfxcWBiUGc1tTe4uRyw-327" value="" style="endArrow=block;dashed=1;endFill=0;endSize=12;html=1;rounded=0;" parent="1" source="snfxcWBiUGc1tTe4uRyw-325" target="snfxcWBiUGc1tTe4uRyw-302" edge="1">
          <mxGeometry width="160" relative="1" as="geometry">
            <mxPoint x="2595" y="2962" as="sourcePoint" />
            <mxPoint x="2501" y="2910" as="targetPoint" />
          </mxGeometry>
        </mxCell>
        <mxCell id="snfxcWBiUGc1tTe4uRyw-328" value="" style="endArrow=open;endSize=12;dashed=1;html=1;rounded=0;edgeStyle=orthogonalEdgeStyle;" parent="1" source="snfxcWBiUGc1tTe4uRyw-309" target="snfxcWBiUGc1tTe4uRyw-318" edge="1">
          <mxGeometry width="160" relative="1" as="geometry">
            <mxPoint x="1950" y="3092" as="sourcePoint" />
            <mxPoint x="2110" y="3092" as="targetPoint" />
            <Array as="points">
              <mxPoint x="1935" y="3020" />
              <mxPoint x="2645" y="3020" />
            </Array>
          </mxGeometry>
        </mxCell>
        <mxCell id="snfxcWBiUGc1tTe4uRyw-329" value="" style="endArrow=open;endSize=12;dashed=1;html=1;rounded=0;" parent="1" source="snfxcWBiUGc1tTe4uRyw-309" target="snfxcWBiUGc1tTe4uRyw-324" edge="1">
          <mxGeometry width="160" relative="1" as="geometry">
            <mxPoint x="1950" y="3092" as="sourcePoint" />
            <mxPoint x="2110" y="3092" as="targetPoint" />
          </mxGeometry>
        </mxCell>
        <mxCell id="snfxcWBiUGc1tTe4uRyw-330" value="" style="endArrow=open;endSize=12;dashed=1;html=1;rounded=0;" parent="1" source="snfxcWBiUGc1tTe4uRyw-312" target="snfxcWBiUGc1tTe4uRyw-325" edge="1">
          <mxGeometry width="160" relative="1" as="geometry">
            <mxPoint x="2050" y="2909" as="sourcePoint" />
            <mxPoint x="2390" y="2831" as="targetPoint" />
          </mxGeometry>
        </mxCell>
        <mxCell id="snfxcWBiUGc1tTe4uRyw-331" value="" style="endArrow=open;endSize=12;dashed=1;html=1;rounded=0;edgeStyle=orthogonalEdgeStyle;" parent="1" source="snfxcWBiUGc1tTe4uRyw-312" target="snfxcWBiUGc1tTe4uRyw-321" edge="1">
          <mxGeometry width="160" relative="1" as="geometry">
            <mxPoint x="2050" y="2909" as="sourcePoint" />
            <mxPoint x="2390" y="2831" as="targetPoint" />
            <Array as="points">
              <mxPoint x="2205" y="2980" />
              <mxPoint x="2820" y="2980" />
            </Array>
          </mxGeometry>
        </mxCell>
        <mxCell id="snfxcWBiUGc1tTe4uRyw-332" value="Client" style="swimlane;fontStyle=1;align=center;verticalAlign=top;childLayout=stackLayout;horizontal=1;startSize=26;horizontalStack=0;resizeParent=1;resizeParentMax=0;resizeLast=0;collapsible=1;marginBottom=0;whiteSpace=wrap;html=1;" parent="1" vertex="1">
          <mxGeometry x="2230" y="2490" width="160" height="52" as="geometry" />
        </mxCell>
        <mxCell id="snfxcWBiUGc1tTe4uRyw-336" value="Use" style="endArrow=open;endSize=12;dashed=1;html=1;rounded=0;" parent="1" source="snfxcWBiUGc1tTe4uRyw-332" target="snfxcWBiUGc1tTe4uRyw-299" edge="1">
          <mxGeometry width="160" relative="1" as="geometry">
            <mxPoint x="1740" y="2812" as="sourcePoint" />
            <mxPoint x="1900" y="2812" as="targetPoint" />
          </mxGeometry>
        </mxCell>
        <mxCell id="snfxcWBiUGc1tTe4uRyw-337" value="Use" style="endArrow=open;endSize=12;dashed=1;html=1;rounded=0;" parent="1" source="snfxcWBiUGc1tTe4uRyw-332" target="snfxcWBiUGc1tTe4uRyw-302" edge="1">
          <mxGeometry width="160" relative="1" as="geometry">
            <mxPoint x="1740" y="2812" as="sourcePoint" />
            <mxPoint x="1900" y="2812" as="targetPoint" />
          </mxGeometry>
        </mxCell>
        <mxCell id="snfxcWBiUGc1tTe4uRyw-338" value="Use" style="endArrow=open;endSize=12;dashed=1;html=1;rounded=0;" parent="1" source="snfxcWBiUGc1tTe4uRyw-332" target="snfxcWBiUGc1tTe4uRyw-305" edge="1">
          <mxGeometry width="160" relative="1" as="geometry">
            <mxPoint x="1740" y="2812" as="sourcePoint" />
            <mxPoint x="1900" y="2812" as="targetPoint" />
          </mxGeometry>
        </mxCell>
        <mxCell id="82DQThB_2eSPjRUzrq8_-1" value="" style="shape=image;verticalLabelPosition=bottom;labelBackgroundColor=default;verticalAlign=top;aspect=fixed;imageAspect=0;image=data:image/png,iVBORw0KGgoAAAANSUhEUgAABdIAAAGhCAMAAABS0bbpAAAAAXNSR0IArs4c6QAAAARnQU1BAACxjwv8YQUAAALNUExURQAAAAAAAAAAAAAAAAAAAAAAAP7+/v///wICAvX19RISEunp6fDw8Orq6r29vXx8fGhoaKenp7KysoyMjOHh4QEBAfHx8aqqqmtrawQEBHd3d7q6uvz8/LW1tY6Ojru7u+7u7tLS0gkJCfT09FFRUXZ2dsPDw05OTtjY2M/PzwcHB2lpafr6+goKCkpKSuLi4sDAwAgICPn5+dvb21RUVGNjY4qKin19fQYGBtbW1srKypmZmdDQ0ODg4Kurq8LCwv39/Z6enmpqaoaGhoGBgQUFBZSUlPv7+1VVVbS0tAwMDElJSfb29ouLi42NjaampsnJyePj4wsLC4WFhe/v75qamsfHxwMDA7+/v5GRkZubm76+vt/f352dnY+Pj7CwsO3t7Z+fn+vr67y8vE1NTWRkZPf39/j4+FNTU3p6eujo6H5+fuTk5FBQUHV1dbGxsWdnZ8jIyG5ubqCgoNra2lZWVsHBwYODg9nZ2XBwcNXV1ZCQkG9vb7a2ts7OzomJidfX14KCgvLy8pKSks3NzeXl5cbGxg0NDfPz897e3qmpqebm5ri4uKioqKSkpLOzs1JSUq2trYCAgE9PT8vLyxEREbe3t4eHh9PT0+fn55aWloiIiJeXl5ycnK6urkxMTISEhKOjo11dXbm5uWZmZmxsbOzs7MTExN3d3ZWVlczMzNzc3KGhoV9fX6ysrEVFRQ8PD0RERH9/f8XFxaKiotHR0Q4ODktLS3l5eXt7e3R0dGVlZdTU1K+vr15eXmJiYpiYmBAQEGFhYW1tbQAAAAAAAKWlpXNzc0ZGRnJycgAAAAAAAAAAAAAAAAAAAAAAAAAAAAAAAAAAAAAAAAAAAAAAAAAAAAAAAAAAAAAAABkZGVhYWBQUFHh4eFdXV1lZWUdHR2BgYFpaWltbW3FxcUhISJOTk1xcXBMTExUVFRcXFxYWFhgYGENDQ0JCQiP0C14AAADadFJOUwD+/wL1Ev////////////////////////////////////////////////////////////////////////////////////////////////////////////////////////////////////////////////////////////////////////////////////////////////////////////////////////////////////////////////////////////8B/f/////zDO8QEe70C+0FChPsBvgZDRzxQgAAAAlwSFlzAAAXEQAAFxEByibzPwAAYLJJREFUeF7tvYt/VFWe6Nu9Tp9UHauoPOoh1RoeGdtIxQDxAYmUQqPRJk4CJCSVJjQqlD2gIERtjWgwVlvkRMGICD7bSIsvfDSjBlqFUdo7tPM4d849933HmbF7PNP26Tv3b7i/32+tvWtV6pGqPCq79v59P5C99lprr72zq/Ldv/z22pXvMAzDMAzDMAzDMAzDMExp+a4oa/6D+jYYZ/M99X5gJP9RnRfGebDSGRvASk+Hle5cvisqXGWLm5XOEN8T/0m9JxiX6yJWuoNhpTM2gJWuw0p3Mqx0xgaw0nVY6U6Glc7YAFa6DivdybDSGRvAStdhpTsZVjpjA1jpOqx0J8NKZ2wAK12Hle5kWOmMDWCl67DSnQwrnbEBrHQdVrqTYaUzNoCVrsNKdzKsdMYGsNJ1WOlOhpXO2ABWug4r3cmw0hkbwErXYaU7GVY6YwNY6TqsdCfDSmdsACtdh5XuZFjpjA1gpeuw0p0MK52xAax0HVa6k2GlMzaAla7DSncyrHTGBrDSdVjpToaVztgAVroOK93JsNIZG8BK12GlO5mClO7xqoLFYKUzkgKVPs9TxgFM4bDSnUy60n2VQlRVo8Br/EgNuTwQtGgoz0pnJBOUHrp4flh8/5JLoVi7AN/ICxfhO3hxnfgzas9L6OLLwuIHl+PGZQor3cnoSvfUg9BB6uIKlysIC2QJ1LPSGYuTrvTaiBDfbwCpX+kKNcr38dJl8BZe3vT9q1SX3Fx9TfjaFSubRQtscJ2vLMXOSncymtLB6KswKo9W+VDp10OxWi448cJYmzSl3xBZunoNRNs/XHuV6+q6G6+E4k2tN98CLej1yfhReB14PHQx9m+79c9lZXnBSncymtL9wXZVAoNLl7s6guupxpqw0hmJrvQNTUs3yjd1qAIC81oMtK8uKOWCLG78gRnJL+vsmjyqtyCsdCeTUronKDapIqCU7gu2Q3t3DRSjPiKQKgA9fr+/m0pzASudkWhKD10T64UYXfHj5h5cWUZKv2HzLa6r++jdu6VCK0H7Tzr8Cy+9buuVruV1XRDWI/N6F0S6FvqW4PYhTMnfdjt2vWPhpcu3+rdBERZ+ytdbDVa6k0kp3ResNIqArnSZS++Q6fXtqQKmauL+qiAl3OcCVjoj0ZReG7lTC62viZGyNzTdeKVrXuP3rwLH07sXYvdUCe+bAj9oqP+p67q6a/9CbrqcKgWmYRbvCN+6s1nceleFa17bHXfDhrsqrr4m/IP23eF7VG8rwUp3Miml+4N7VAkxEy9Qqd0ebQhStSp4/Big9wT3ateCUsJKZySa0q+J9aeC9FCjTLjcG4ZgfXHdfZggh/i7celPqaBKVzcuvb8CZC7A+6EfhX+wS72ffxaWpas7b30AxP5g8x23uBZ33hp/4NJ5FRvbbh2A/TzUui+1N6vASncyutIh7jaRSu+hZExK6b7gqgkFZM4mxLDSGUlK6cvqtLS6cXf04Wac6lLbJDMyIRW6m6VHWim7MtiEEfmya8KC7o26Qsbd0Uda92P71Z3X/tQ1WCdoRbn8wQgrnbEUuZVe6ffHJ0xi9ATjEwpEhxG6lxpWOiNJKX1D0/dVLhxZ3rT0Ub+/GaczYl59iN61j7VSfh1LlGm/ulHmWu6IyLz5jyPi2nnQ8+pGeXd0sVou6xQJ188jEKpDHd05Dd1Qx4kXxlrkVjpQVe3Bsqn0lcEraJkqDOAjSXGZpCk9rHRGklL6csyam8h8+Y2Pk8I7ZRLmh5GL1T1NVbqBonMMxpPyfX71NWEU9vI6Wf/zyAHaflnnD/7CNSwoGXNH07Ur1rYKYckpMax0J5NSerWeSzFy6YShdDn9RS+sDMZZ6czck0vpZooFoLujmH4xOhilx2T0Huq8VWXYIS4X/xlVTlG762fhERrkusafXzmvDbROdU9s9/mW0EOploOV7mRSSo+mJVOyKN1bH5ezHM0CXAWwgRMvzByjK11LvIQatcS6vDu6uM54gnRxnZqB3ikoOl9OeXci1CnA4sbd0TaRoFqM1hd3Ut4FgnVZZ0lY6U4mpXRXPc5LNMii9I7gAbmuFagTK52ZY1JKX9wknjTf0vLuqKI20rsGp7ioR0hTpU4MyV3zrqHHRomrG/HGaBvVm0pf1gmVg3XyMwJY6YxF0ZTuCwpStdffnU3pUSPbYhbA5ZhSj+p9SwornZGklO66JvZ9fA7ItXzBlRCy32BYWt4dDV0Tk7dIcbKLKrl+FFuyxhW6qVksWTNIqRZp92Wdaob6I62o8dBjzbD4eaRFJWNo3os1YaU7GU3p+Ikucb+/kp4iylR6Q3AvfqZdTaoAF4H4gYHqIOfSmTlGU/rVdULciLNcICZXz45K8O7oDyM4A8a/6hazBFH8DU1LDx66bGd7c7KiTVz71PYFEYFPkM7rFE/U1NyCGRlxx/bRp8OYcjGi8+WNtx7e7js0f3XqkmEdWOlORle6K4ofwyhWDUCxXtO0nLLYIB8aba8wCy5XDRTjS3zBu1TPEsNKZySa0l3LnmmFt+fNGEVn3B39UYzeuzdeqZXkvJg7bnnsyE9dyx6OQOW18pN1b2gSgua6LN8RhspnoWjcHXXh/HTg56m8joVgpTuZNKUDgSI/sKXY/jMKK52R6EoHlhX5py7mBVL9lwU2GSsh85MbtUqTjQGr/kENVrqTmaj0soKVzkgmKN3hsNKdDCudsQGsdB1WupNhpTM2gJWuw0p3Mqx0xgaw0nVY6U6Glc7YAFa6DivdybDSGRvAStdhpTsZVjpjA1jpOqx0J8NKZ2wAK12Hle5kWOmMDWCl67DSnQwrnbEBrHQdVrqTYaUzNoCVrsNKdzKsdMYGsNJ1WOlOhpXO2ABWug4r3cmw0hkbwErXYaU7GVY6YwNY6TqsdCfDSmdsACtdh5XuZFjpjA1gpeuw0p0MK52xAax0HVa6k2GlMzaAla7DSncyrHTGBrDSdVjpToaVztgAVroOK93JsNIZG8BK12GlOxlWOmMDWOk6rHQn811R1rDSGeR76v3ASFjpzoWVztgAVno6rHTn8l0RSpQtnHhhJN8Td6n3BJNIHGWlOxhWOmMDWOk6rHQnw0pnbAArXYeV7mRY6YwNYKXrsNKdDCudsQGsdB1WupNhpTM2gJWuw0p3Mqx0xgaw0nVY6U6Glc7YAFa6DivdybDSGRvAStdhpTsZVjpjA6an9JbaTao0RQYvXqRKk3Gs4J7TgJXuZFjpjA0oTOm9z3V1/eT5zDf8YNMLqqSTfPHGrp/ULMPuh5sW5/sxSbYt9KriZPS3DWkjLX+pq+sSuJwkX76x6xc1AWx5pXNJvl0VBCvdybDSGRtQiNJHjsQeqn5uLPZyRpycXektjY+82tUs0NaTKH2wMQlfkyuuK0DsO46bux9Z23zvqz+I/NKTGBq+99WuJvEa2J2VzkwPVjpjA/IpPblLvsV330qy3Nnqm2jeXEp/FvqvbR2Y9Cdk/tbb4etQ5xMF5G+On5inSonXm1fDkSRffgOU3g+l15tbZuaHkZXuZFjpjA3Ip/QVXSjcRG+TVHmy8SFYT7aEWtZhUiW67k2vUvpI3+jj2AXbapeFpNJ7GtdtwppEyz7grdQSN91OaZlkG7o82dv49uJ9b+2jnQxBh2SLN9m77mr6+RrpXXeSGhLLO6NUg6VDRsAuld7ftgd35U0M4S7egW5mIRGt3U55mYJgpTsZVjpjAwpQ+opm1WVFMwh8sGl7nXh3E6wI8d7DEVT6+00P3dP60Btmm1R6tPHiTYnBuicTbfihtXffrpZvgOt/9ViE0jI9jZhxebkJG55o3ADl5PB9ixLHGi/phBrMlR9uvPeeyL3bcO9DbTVQsWPBG4n2po1YgUilR4fB8cc6NyZO4UgroTsVKrcl+of/8qY6cbCAXwIIVrqTYaUzNqAApTd+QAs09skQfBEfepOhwaYbNiU+ighQek/ddm9ipBHWoe1NaJNK/wjT6Kh0YKQT9G4sB98EC69d6sFU+hX4Q0SJl2Tb27Cb5Y3jIVD6ryDon988FOrvBK+PDD9BQfnpOxZBeeUbidP3mikYqfTjjUtgK1A6MHJahfAjp6vB82/Cfl8/ky09lA1WupNhpTM2IKfSW/bt+/U94/v2hTKUXgsSTXx8J0TliRcxSl/7CRZXfLoN2tahuVsa153d924TbqaU/vGdFGibS2xIYnyOd0dVLr19DCRfeSfY+hh6PYE6n/8J9m//lBR+GmyeGNoYgoIxCih9D+yqESuU0lfeCcOkFRLH2pap0mSw0p0MK52xAbmU3lKHqQvgZGii0ink7fRjLEwrnQ/dNjo6urf1BaOtpRE3fJc6kNIH666jHxZjOXRg3XMRsHk7fjGU3tN5uTc5PAqlY427sLbtiUWn7z0HQ1c147pUuixoSsdd3YEHKJV+rLMHrzjocVmAfb1Ux0pnJoeVztiAAhIvu29VBn1R5tKl0t/FeFwq/a8e7AJ+vCil9HVn6TaoUnrysm7KhajlSEPr3V2ftk5UemJ4xe3LG3Hyuab0X8qhyeWm0nfcah4zRulqV6T05I5V8vqjCiPzmyu7Pm1mpTOTw0pnbEABSn+x+X75Vt/9GTjVUDqF7lLp7TJ5bbbJXDpBSl8xJnPflFpJJNZeC5cISrx8pCdeEsfrkpX34NVDU/oKKWji9KNK6Z/XYQKdkLl0gpTuj9MRmIXXr4VdcuKFKQRWOmMDClB6TxMlWRIfRXAyo9L2x2dQ0x+3woosItmVvrwO74firU+5HMZbpYdR6YM04wVqSOnRzvvqLsH1Y41ysssGb+VY6uiSdJc0CSMPDcv7o1HvRKUvb3tArhqF89WwzSudrHRmcljpjA3Ip/QXfy7D748iH6w+e+ClZnp6VGm7p6598f6qpTFYidZ9ML5vX9+H3hxKv+yzJfvwNuvT5nIoNFgnQOlDnfLzAKDlABTmt2IlKv1XTz3f13nvtkS0bWUUhybjt722CbyO2Zfjdb985fm+l5o2TlT6Nb/ZD7uAGqNwzW/2hY61CVY6MzmsdMYG5FO6yWB9TIj3bkOxGtpOvN8kxLujtNKzt1WIv9qQQ+lJnGMuxJNJmpcunkwM7Q6LR16jjwIYfpEuGj2d4lce6Nwo8yzHGsfXNgvKnPc3NAvxS9L2YcyzS6UnlldB9cqMKD15mnaxMZGkeelg8qGnW8UXBznxwhQAK52xAQUpPZFItmzMeLtrD+GPQPBdBCPqkwYSLxsP+Q+hmHHOC65gLh0nKxIj8qnSRELm2U1oiwIw91UIrHQnw0pnbECBSp8lemgGukHlGTmTXN4enUByGD+ba5ZhpTsZVjpjA+ZW6Yn5m2W6HpHPjwJZlX74SAkOlJXuZFjpjA2YY6Un1aRyZKhWfb7WUG3K8yYjWs9Zg5XuZFjpjA2YY6VbDFa6k2GlMzaAla7DSncyrHTGBrDSdVjpToaVztgAVroOK93JsNIZG6CU3ijuSv+nmFj7Qmfav4x1yZNtaf/S14eFSA6n/VPoVbtOC/yv/0tb2SifJQKgpP9LlZadx39qYf5TQClwNPUP/gfwNLDSnQwrnbEBptKdDivd8bDSGRvAiRcdVrqT+a66upcprHQGYaXrsNIdTXk7nZXOIKx0HVY6UzBwAfifVHGG+GvWMjNtWOk6rHSmQL4LPv/uTCv9P7DUmenCStdhpTMFgUKfcaOD0uV/hpk6rHQdVjpTCFLmM650djozfayi9JcXFvbRuZ+vns2P2GWlM5NDITouZ0XpnFFnpkUepa9YHEq8KP8oRaLlvhu7qtUHJRbM8pe6uvbQ3xu9bIH2Z6Gzcbj+ncIGb+9Sf1OaGHr3ua7q62FL3NVtb6Ltr+nQOxQJK52ZDEPos2B0I0LnQJ2ZOrmV3lJ3MpRorCWlv9j83qtdY7H782p3kP4otMZltz7W9WnrI28kRjrfzfJxuRrJNtx28OL8vZBj+semf173ywe74uGWUGLHrTd1fdp877zEyOkfTnL1yAcrnZmElMhnQensdGba5FP62dAIaj2R2Nl6A9pa/qHQnFy2Nb092XkxbPVy5LrJ4+/2Mfx7Rk9PFssDxzpTfx5jZeQQ7vHzNxLJ01j6vM78Q6RThJXO5MUM0WfH6KbL2enMVMmp9Jb7Iif39TXVLgslBpvI6EjyrVB0Ha6M1I5eLVXds+5x78hboZEljS8vpj9BajRFGzHpMli3blMS/0xpyz7grVBiSC3NLVWQPrKk8+3F+2RFItnixX0lB7erPRuDHuvU/n40GR2JDj8Atcc698CuoEC7eEftijI6/etOqpHzwkpn8qJ5fFaVzgl1ZqrkVLrxqS/vb0rs/sxMT6/48U8iAiL3Fc0P3Rl+F3Q70tAqxMsn1m9aC0vxV9ugS/Mjd7ZiomWwbgAcerjputCKT7clRuhDvV5cZCzlli+euAA9j9ddEUrMpwHmtUeSsB/8M6TtXdVwEL+i42tvuvfO5jugq1T60GWDmxI7fiP/VClwrBMvGq9Am/9TT2LkNO7i5tuNZWJkfgSWe5+a9JcAVjqTH1Pks2J0PTrnQJ2ZErkTL4923Z4YjIOje5pkQh3Zfetvt+wKJT4+Awpd0fxCItGwtCU0sju23QuxPKwmjKYnwe1j+Of/L/tsm3l39KM4hfFyOX/pvtDIZeGFMPbTv8U//j/YiDKnr8nh+xYldnz2yUhoeWcNXDgqx86GQOu7DKUfg9r+NmyR+OP4XVwDjjfujh6vf552dfwILF8/83xoZEfrQbN/LljpzCQYKp8dpWsiZ6UzUyKP0n+8KPHijeDijyLgU0my8UuSbxOm2D8+My/RW/cslAabwJsYimMRK7Apcdlvo/sOVLVeF5JJdWirk/NnaLm88TpYGWwcDyWGOkexvf1TvAT0dG7wJo41DoWSwxigD7U9sQhWoQ68DuuH6U9NY3rleGPUOKzEjr9Zsu9AQ3O/VybV0fmYiYFlGyyXt/XgZaBtv9k/F6x0ZjKUy2dZ6Zx4YaZIbqXvPrcpsQIidQi5zS7ROsqqNyx9ZfSOE0shXv74TgyKP4pAgC7vjq41m5KUYbl7IJSINtId0p5GaXa5rLwTBf5RE8Tk5HXj7ugQBt/zH3wjEUWZS6XPP3MYBj1zAMRMoTrhb9qoSokkZVhWXgG7GqZUe/+wNHv/cDUsV96JGZqnGpdhVV5Y6cxkyI92mSWjG0rnEJ2ZKrmUPvhc63uvdp357NXbdaUPNuE8xmTjew+qCeedL5PHH7wdDI62T3b+ldEUbVx3VuZZBuuehK8jl3WTZtVymObPoLsTL6PX1URGaLhvUb8RqYOUO1d7k8O/fFDNOk+cXmnk9TWlR4f3nN2H+4ToHCtHnl5FmZ6RHZ/j8vzNuM3rD+JvEflhpTOTgC6H/7OqdA7RmamTS+kt9zW/XDMa+WAPhOoppa+goLxFxupYasRSS+O7m8DgmHGRFYS8O4rIlMzTv5UylsshSsYMdd4HYpcZlyh6HADLk+hl7fG6XTJSlwwNmwl0Teny7iiCd0cTiWv+Bjc1lkOnMVQfKmTCOiudyY9UuTaXcaYBp8t/DDMlciZeWuquVtPS34+QppNvhRK7KbkyUelrW827o5rS5d1RhO6OfnxGzk9RS6n0+a14d1Q+ESrvjsLa2GFKxOzAe6Yjw2/friv9MIXuiRH4criRkit4WPLuKEJ3R1eO0Y1aYymV/npk8rujrHQmP0ZwPltBOkboGKKz0pmpklPpg5G75AOkieTu2MsnP7wvcjKUVMLefWu/t6XvQ7DxZZ9t2P/re1qfx8nr2/dvDCUuSzU9pqJiujt6uGn07L59ocThOlxC89Of9e/feU8zyttQ+iU4QOJYo0CDJ4fFivH9l92Ks9F33HrAO9T3Iex7x03YlZ4pSj4dvvnZA/c1QnHHTSqnQndHX+nc8zzuwlgmrvlNz/6P72ma/O4oK53Jy+yZ3ETJnJ3OTJHcSo9vS/Q0UePIo81CPLTaqxQPsfiRmBDvXQHlnjrx5SujGKCP7I4JMHsLLMRfQShtTHOB3p3XhRJteANTLA7JJYi8p1H86vAoReZS6SOXhbE+0d95Lwo62lZT1SzupaB8CJrEL1tCif42uvu541Y8rpEVTULcu3yTenYUGcK7o/IvTS8Jyb8dvQS2GhZ/+f5o2+R3R1npTD5KYHQTdjozNXIqPR0jV20wIm98AqkWVUo1TcIQ2hl5+fsyyJYVL8flY6KNuxIju4yhRuTdT0qya5hDTEKh/VjpTG5KaXRWOjNFClT6rGJk0YnlnXLyurw7mo4K0mcPVjqTk5IanZ3OTBErKH2ok+alE0Ntb8sUfLbP8Npx3LhNOkuw0pmclFjp7HRmSlhB6YloKvbuWaesfez5zIC80PzJlGGlM7kotdFZ6cyUsITSLQMrnclByY3OTmemBCtdh5XOZGcOjM5OZ6YCK12Hlc5kZU6MzkpnpgArXYeVzmRjbozOTmemACtdh5XOZGGujM5OZ4qHla7DSmcymTujs9KZomGl67DSmQzm0OjsdKZovkcfhMIYsNKZdObU6Ox0plhY6emw0pl0WOkMg/ytEH+niqXh74X4L6rIMDPFHBudnc5YhL/9u78trdHB6f/l71nqzMwy50ZnpzNW4G8hQp8DpWOozlJnZg4LGJ2Vzsw9ZPM5UbrxlWFmACsYnZ3OzDUYos+B0U2nc6DOzAzWMDo7nZlblMvnTOksdWZmsIrRWenMHCJD9DkxupZ0Yakz08YyRmenM3OHafK5VTpLnZkuFjI6O52ZI4wQHZgTpac5nZXOTANLGZ2VzswJmsbnxuiax9nozLSwltLZ6cyckBL5HCndNDkbnZkWFjM6O52ZG8zMyxwrnY3OTAvLGZ2VzswR0uVzZXQlc743ykwL6xmdnc7MEXP2nJEClQ7/OUxnpo4Vjc5OZ+YEcDlKfS6VLkN0djozVaxpdFY6MweotEtqLmPpMVzOTmemhkWNzk5n5gAVnc9dkJ6Clc5MCcsanZ3OlBwrqNyEnc5MAQsbnZXOlBhLGZ2dzkwBKxudnc6UFosZnZ3OFI+1lc5OZ0qJ5ZT+nb//n1WBYQrC4kZnpTMlxHpG/853/oGdzhSB1Y3OTmdKhxWNzk5nisH6RmenM6XCmkZnpzOFUw5GZ6UzJcKqSmenMwVSFkZnpzOlwbJGZ6czhVEmRmenM6XAwkZnpzOFUDZGZ6Uzs4+ljc5OZyanfIzOTmdmHYsbnZXOTEY5GZ2dzsw2Vlc6O52ZBFY6w5hY3ujsdCY/5WV0djozq5SB0dnpTD7KzejsdGYWKQujs9OZ3JSf0VnpzOxRJkpnpzM5KEOjs9OZWaNcjM5OZ7JTlkZnpzOzRPkYnZ3OZKNMjc5KZ2aFcjI6O53JpFyNzk5nZoP/WlZGZ6czEylfo7PTmVmg3JTOTmfSKGejs9KZGee//i+qUD6w0xmNslY6O52ZYcrQ6Ox0RqO8jc5OZ2aWsjQ6K50xKXejs9KZGaU8lc5OZxRlb3R2OjOTlKnR2emMxAZGZ6czM0fZGp2dziC2MDornZkpytjo7HTGLkZnpzMzRVkrnZ3ueOxidHY6MzOUt9HZ6U7HPkZnpTMzQbkbnZ3ubGxkdHY6MwOUv9HZ6Y7GVkpnpzPTxQ5GZ6c7GHsZnZXOTBd7KJ2d7lRsZnR2OjNNbGJ0drpDsZ3R2enMtLCN0VnpjsSGRmelM9PAPkZnpzsROxqdnc5MAzsp/Tv/8B9VgXEI9jQ6O52ZMrYy+ne+89/Y6Y7CrkZnpTNTxGZGZ6c7C9sanZ3OTA3bGZ2d7iRsbHRWOjMVbGh0drqDsLPS2enMFLCl0tnpTsHWRmenM8VjT6Oz0x2CzY3OSmeKxa5GZ6c7ArsbnZ3OFIl9jc5OdwD2Nzo7nSkOOyudnW53nGB0VjpTDLY2Oivd5jjC6Ox0pgjsbXR2ur1xiNHZ6UzB2N3o7HQ74xijs9KZQrG/0tnpxSCcTlEXie+qjZiJ/K/qDDGlxgFGZ6cXg/qJdC6s9JmBnT43OMLo7PQiEMLlZILFKr1Cbcik0cpKnxscYnR2euGw0tWJKAhWeg5Y6XODY4zOTi8YVro6EQXBSs8BK31ucJDS2ekFwkpXJ6IgWOk5YKXPCU4yOju9QFjp6kQUBCs9B6z0ucBZRmenFwYrXZ2IgmCl54CVPgc4zejs9IJgpasTURCs9Byw0ucA5ymdnV4ArHR1IgqClZ4DVnrpcaDRWekFwEpXJ6IgWOk5YKWXHCcanZ1eAKx0dSIKgpWeA1Z6qXGm0dnpk8NKVyeiIFjpOWCllxinGp2dPimsdHUiCoKVngNWeolxrtLZ6ZPASlcnoiBY6TlgpZeW7znX6Oz0SWClqxNREKz0HLDSS8r3/jdVcCbs9Hyw0tWJKAhWeg5Y6aXE4UZnp+eFla5OREGw0nPASi8ljlc6Oz0PrHR1IgqClZ4DVnoJYaOz0/PASlcnoiBY6TlgpZcONjrCTs8FK12diIJgpeeAlV4y2OiS//a/qwKTDitdnYiCYKXngJVeMljpElZ6Dljp6kQUBCs9B6z0UsFGN/g/2OlZmXGle0WVKmVlkubC8XhVYVrMvNK97r1an5k5Sh0Yf40qZsMby9tcOMUdOSu9RLDRU7DTs5KudF+lEFXV+MNc4+9WP9N+vyvq98ly1F8DX31V0AsL2QhkvUiYA2dvLowaP1JDxxUIzkjAPB2l+yqDYi+dLH0l4BYpp6atFE5fAwy2J/v3B0NeqooafSthi/WboDmWrblARjvwBO+BYVyBsLhFVhYEK700sNF12OnZ0A3riYN3wb1iwOWCr35ZCz28QkhzVYmoywU9/P646MaKAZ9Smkk2Z2sDT0fpQRgBWQLlOVe6p16IveBxcQWtgFHlygwoHfTc7q8ProJ9ZTm/WZTuOaJ2PzQ9pYfVCX68gpVuSdjo6bDTs6AZFsRLkXm0CmJyIeIiQNXYo1pUYzGKWZMemTrpocDdrzqlyOJsfeDpKf16+FotaDHHiRcw+iqMZqMN23ElaK6kW3wqR9kvUzf9PvjaEdwiK02yKB2M/jnufrxhe8U0lT4CXw/FxFvFHjkrvSSw0ifATs9EM6zfiMtd8NMshE9lvbGHCtMpSPcLlYVBClK6PvD0lQ7D0fVlRpiy0juC7aoIJ0ZfmVpgrtMRXGjspTCld7hXpHY/faW7FrifMg+gQFjppYCNngE7PYOUYT1GdoWAehK4VLoM0ylI15Ue8FWJap8vMOCnni5vd03K2Zj57sFC2sDYPNDt9w+odbOXXo76CHm1SPVQSvfRFQJ2pXXUt+iBDbonXmlyMFWle4JikSwBHre2gkrHbxDzMS7X5hrawAvfRDd9y3Rw9G3A0UO3Gjhq6tLT4fdXU0NK6QFfQ/ACnt8OzDXBMDCcqfRRGOkAdvTExO1Ug6DSBzYbu9d6YRl2Icvj8nTR7lK1htL7YivWuH6BR272MwrYrx826KZSClZ6CWCjZ4GdPpGU0n2iUpUQqJcGl0qnMF06vkbEPVgP+GTq1ad6unpA/Erpnrio9MN/KKYNDM3VtBFdBLReetlPPejSoffQlS5z6arj9lQBMyJxf5VMuE/OVJXuC36cclraCih3PSX998sVDNmj9VSzp8JTHxxrrwpSm2tzcK8fygK7YDK+Hf6jzEfdY3dhO7jVjZuJhVE1i6bffcFQuudI8GN/Pe24z63vPiYu0FaPYx302gm9duJB6OUFcuBLKtJqdaXLXLrZT9tgN3wLDW5xMrVPgJU++7DRs8JOn0BK6X6hT2LB+iqSquxRLXwBJe64iJtxukq8xAVZvjJ1/1Pqn4L7tIGhWUDM7RNxXNN6pZWRKhparzUTLzCednu0SlargsePm/UEq9KUk4upKr0juEcWEFhJ7QyUKw6g5segTim9Pvghhtj+Ck8HHmoPGTrqxmzNoSDpvSG4HlZ63ALzLEeCY9vVgCrxciT4Ai5WBodwSFT6WtruEDje1eG+TfUGQOniwwrQ/BjueG0QzU690srE2iAIfK1b1lKqxUy8nKvQbo/Od79lFkDpCzBA7w+fSMvvsNJnH1Z6dtjp6ehK13LkJPIAeVf28ELsKyNrl6dSiLgSr1J6NVkb+uBG2B/jdQRX0gaGZhqFhK330suIj6bUGLUkcKn0HiFwsp6pdF+Q5t5oBaTACTFTVzr8QmCQtgLKVZIGGUul95C8Naj2EPgZTia1GT1G3TjNxbMyKMZQ8abSD5G1vehpqXSM17EBM+cd7lTuHZW+H9fI13qv/liqTPTFPq8wa6XApdL7Y+INbcZLX+xlCuFTBaRVXKlKBCt91mGj54KdnoZh0GxKhyoQqupRLVSQDkSrQOoUlyule0j+PRQ+U/9unAgJYPtEpdOSNtR76WVAjqjVgs2DohJnT6ZPYvQE4xMKBG0wObOidBIfyViudMhIPAW1SVt7SeZGD2PjaANIHbMvSukeCrr7UexS6ZvdeD2AdveWDKWTsjvcYOfN7haqxBUoU68F2AB4YmM0jl4bFjv9/vpg2iRGTxj76QViQQwi9hSs9NmGjZ4bdrpOXqXTjU3Vw6vCa0k0LpWrBAxBN6i3EtMv0tkqtw3kU3p6LwMaEXM41M2AlA5UVdO1xFR6JU0M1wsDeEM1biGlU8CuoIOrx4oeMnGfG8Nxs4famNLvaHGldOgACl+J6Rep9A46F0g+pXfIDDgwYqTFAan0u0nm6bU0L/3EeryWmEq/271Pjm4W7scbqvVBVnopYaPngZWuk1J6tXx4SCHrq4XfUDospb0VcUyJSzMDmCCRz/obSq+WcyTA5mkDT1B6qpdexrSLnPeYVqty6YShdF9QTZA0C5UiPvtKP0QPAinSVrIoXWbIiZXBsXaldK9btPuqg2M4o9zsYSod8+cfVphKxxSK/KgBQ+kX1HmpcB1yf67tPl3pqV4LtDJAs1pQ6XqtyqUjhtJVP61wt1t+C6z0EsJGzws7XSOl9KiMuxWy3hsXhoMnKr2aYm9D6ZhG76EaQ+mpzmkDT1B6qpdehv3G5bzHtNosSjc7moXq4CpczHLiJapneaJ0K1SRRekrlZdN+VPbaHB9fVCsosktHZRXh+9CU/ohDL4NpWMavZ+icUPpxpAu17i8FSqZoHRT0Sq1YuA9Eqd5l+m1mUr37o7LCZJm4QmZUefES0lhpeeHnZ4ipXSIuylAlqh6iJZzKF2mU/wq1+3qFtEqmn4unS3vlyr0gdOUrvdK28JPvwIAabVZlO7H2SWIVqBOs6x0Vz1OmDSo1zIvWZS+2ZwRo0xMi3ptTs6hoJy0EqXboxKanm643rXZvb8hiBaWSpf3SxVHtGeT0pSu90rbAlT+Jq0dcp/TajOVbvTTC+RyVnopYaNPBjvdRFO6j6YXQkDm7zaVDjqeqHT5FA+oGXPaNYZyo6JKTh6Xzg4Yk9fxqz5wmtL1Xno5aj5umjZOptKjRrbFLMDAmFKP6n3zMGWl+4LyGuLt6K5IW8mi9KicaD5QXSENHaU8S0NwvS8QCNDvFgE1Ff0I3ibdTEcOm76AU2CUiKPuvXL2u1Q6bEDTGum89Llx3qLava70QCzVSy+7xo0sSlptptLNfuNhVQClY0p9PCxY6SWDjT457HQDTekQEmMaupKe8THqoxlKxzuUPojdyeVREa+pptum4H5aKmdXQ4PPV1NFptUGTlN6Wi+tXCWq/ADuQe+RqXSzY2oLXzDeM1AdnOVcOgbW9D0FKVqHlTG1kkXpmEHf4/MHV1X0BccOwMGNYZtH3Zmk6YuHgmPrfTX1NDvdLfauh94CZQ5Xgz3y/B5RDyhJpUN4DUP6ahr8tLVbjLXj7hemKz2tl1mGI1ob3NsOpwt+eTBq2/E4M5S+1n1C9ptvFFx9sbEPBw7FxjiXXjLY6IXATlfoSndF8dMSBT25Hjfqu41MuAzL4YedZqFUqekv+CgoheBQoAo1+9DlA8cLUSnzMqmBjWaVJNd7pcpVWFAfBan10DXtCeI4Zkdti5ogXECiviCFvZMxdaW7oitx1skq9Q2aKx63TKyT0o0VUL4QqOtRKIwt8bkhND4UXA9BOmxIM9D78AFT+YRRgKaz7JWPv4KtZQgOBbpUyPmMagPxsZzlM067/xxWPDHZrNLostdO6mWUYbS1WBICI+8+uFaoWtdunMwukVMW18rLzoo1840CfAsxOND9vlhS9SRY6bMIK70g2OmSNKUDARmK50elCySq3JM2YQbxpI2Va2C9V/oWBtlr81BE/2koHUjbUf69mq1GwaMe46fnh6giIC+ZiH6CVbFfn9dCzNn5XRaYcCSs9NmEjV4g7HRiotKnTKU+bb1smJ7Sp0NAPTAa0D+hJQ8rJz6vZClY6bMGG71g2OnITCndSKiUGXOndK9bLPS4vNGGwlRt5FssCit9tmCjFwE7HZgppac+bqusmDulGx/POKYmX06C9nFbVoSVPluw0ouBnT5zSh/Q5rSXEXOodJcr0GN8JvzkDMiHPq0KK32WYKMXBzt95nLp5cmcKt1GsNJnBzZ6sbDTWenqRBQEKz0HrPRZgY1eNKx0Vro6EQXBSs8BK302YKNPAcc7nZWuTkRBsNJzwEqfDVjpU8HpTmelqxNREKz0HLDSZwE2+tSwtdPpKW4Gye7imVS6+dckmCnxf6qTzEjY6FPFzk5XPyxMCZTORp8u7HQdNvrUsbHTHZ5WSaH+BlIGM6p0Kz/eaX2aWelpsNKngX2dzkpXsNItDys9DTb6tLCt01npCla65WGl67DRp4ldnc5KV7DSLU9JlP5/qbS9g/k7dSqsxD+oY3M2/7c6G3lhpStY6ZaHlV4aLKh0NjrBSi8GVrrlKZHS/0LtzqG0WVPp+IfSHc7/w0ovCla65WGllwJWulVhpRcHK93ysNJLASvdqrDSi4OVbnlY6aWAlW5VWOnFwUq3PKz0UsBKtyqs9OJgpVseVnopYKVbFVZ6cbDSLQ8rvRSw0q0KK7046C83Z6VIpeeDlT4dWOmlgJVuVVjpxcFKtzys9FLASrcqrPTiCIpQIhtFJ16yD4Nw4mV6sNJLASvdqrDSi4OVbnlY6aWAlW5VWOnFwUq3PKz0UsBKtyqs9OJgpVseVnopYKVbFVZ6cbDSLQ8rvRSw0q0KK704WOmWh5VeCljpVoWVXhysdMvDSi8FrHSrMldK94oqVZpVPF5VSJGlqggsonSve6/2+On0vqVseGN7S3JdyTzy6X8vrPRSwEq3KlNSuq9SiKpq/Nmr8XerH0G/3+WK+n1yJeqvga++KuiGhSwEMi8SNX6kZib1pPaijxzI9Uh/YZRc6b7KoNhbvUmu9K1UKwG9U9pK4fQ1wGB7sp+MQExcqooGo/IkqiOZGZaFxZUwcgeOvIdGljXTgpVeCljpVmUKSvfEwdQgdTHgcsFXUDmCPbxCSCFXiajLBV38/rjohvUB30RRZ1E6PTgJwKYzhdqLGlgswaqyUrqnHrQLUhdD6SszoHS4OrT764Ofw9kY8E0UdRalx9RJfHw6p28CUuCtauSTMDIrvUxgpVuV4pUORqfIPFoFIbkQcRGgaupRLaqxHMWsSo9MrfRg4O5XnVJkVTp2qpaLGUL+Gm+OfL1ZNVVKq3SQ+Cq0bbRhe9pKRbrFp/It9bsptdLvA492BLfISpOsSh+Br4fctJgp6MhbxVtwEE/EaMGJl/KAlW5Vile634jLXfDDJ4RPJcWphwrTKUj3C5WFAYpQOvSly8JMMoMjl1bpHcF2FRPDadVXpphr0egILlSjFaV01wL3BXO7GUIq3bUg9tQ0vycJK70UsNKtStFK9xjJFQLqyd9K6TJMpyBdU3rAVyWqfb7AgF/mVLzdNSmlY567h0pKvD51yUg1dPe4Brr9auO0Bp/L5/fT4fRAZTVtD5XYewDLLtgTkDYyVkV9BNSmSnKMbirlpqRK97i1t2jaCip9YLPffwWtba4hy3pH4fippqcDSvgrCRCFbjXwLVKXfmiopoaU0gO+huAFfHk6lshhYDhT6ZhBP0DVSul97hV0eJgAlw2bD1TcD/uQG+sNv9he0dfhp4NO7RdrsfsVsgseuVJ6X/hRGJlqxuWrcn2FWYB2HKObSvkpD6XP036KypGyVXro6G/+TBWBbZsmf0PlZdoDzDhFK90nKlUJgXopcKV0CtOl5GtE3INVuAnhUz1dPeB9pXRPXFT64T+W08SrNQSEv5oGoBg7swG2wvQ+VOJFxOyNx2Dm0lMjUy7dTz2we6oEY8T9VTLhnpuSKt0X/Dj1funTV0Dp6+lDIffLFdwiWk81t1V46oNj7VVBanNtDu71Q5k+3tFzJCjaoRfKfNQ99gK2o6RxM7EwKlMxrn6Iw5XSYYOd/vrgTqxPU7rWEIitqKYRKHrXG8IrqmNCvAWVu4NiBez3EuixTNbqmXNd6bJmgUzcv1ZhFmAM95n2Bjdtlp85UHrv3WHx6QXUybqO7ttl3cP+W1zjCxbSKYXCnjXQBtdH/x6yzrKI+Cm15KV3fljceW7i70uWoAyU/sAzTeI3x7fJN8zqm+rkysbzQr1CQNpKoRzciq/jORp440Vim6zNy+WP1In33i/NL3ZFK90v9DksWF9F4bjqUS18AWVuUKQRp6vES1yQ5CvFgCFbaX+ZglfilTvQGqCrgKg8KtsnNPhcshIH6MEeqrdPxKEmXek0cur2aBWl1s2Sx4+deoLy4HNRUqV3BLUJKWkrYHHxIfp1DOqU0o8Eoca72V/h6cBvrJ/mOUbdmK055Ca9QzQOK/1ugXmWI8Gx7WpAlXg5EnwSFyuDQ0biZW1wP22Nm5mJl9tgZW0Q75JSA3QVb1a4xmX7Wjc1xJ6ChrAAieNJXeuGVVd/DPUOzsbufbEx2EGa0hfEzlWoGmK+m6qx8A4ofcEWHCN8YlLBlVzp8552i08/hu9rcYWrSYiXbqHaJnC2t0ncRStfxDaswTYCioUp/aaweM5/JPY2Dnh/3yJ5NiyC5ZU+7x9bxW8+hnN+HbxjttFKHa5MX+lfqdexF16XwpT+XKN4xv90pOPPXa53et+Y5ddxCko3PI1gfYDsqXp4IdQl6YIjK4WIU2RtKL2abA1dDNlivI7QihQveBl+JdUboCsNWI2TZyY0yMtLj5GrgR5G7yocLU3pMPImqDKU7qO5OOklYJIJMSVW+nZVAmAldWRgcSVpkLFUeg/JW4NqD7lprgy19aseo26c5uJZGRRj66lCKf0Q2dobG1ujlI7xOjbQilQ2eBl+BvpjqQboSpNgDuGo/ehyICxuQaWDo4H+mMrVxF6mMJwCbRK2rvT+sHjDkDzSF4beaQWk1TR+TkqtdDD62+iF8fmXoLbPuO+n7xqV7rq49SO8BI1HPoXDbhLYcnErLQpIvGyI3Inf7AYffvsPtw7QsFbB6koHoz88D87Y848cuxKNvtVYSbf4VPImX4kl8Iq8MkyLQgY4efS9BC76rnK5XmzbP2lQMj1mQOlQBZo1elQLFaQD0SqQOgbmSukekn8PBcvUvxsnQgLULkQlTnokI+sNysuuARw4WwOsyIsIVhiVNKRaMUbWJzF6gngs6SXEb8buWbGO0qkTyViudARJ8imoTdraSzI3ehgbRxtA6ph9UUr3oMzB4yB2qfTN7hasd3W4weYxsdPvrw+Sv6GBjmUBNEBXCkvvj51YozW8hUqX8eoCitxhv1gBzqZa6JFSuhw5bRKjp/WMfOtDQQ5DLIhBxJ6fUit9a/gl9UMKlm4Sx5pR30rpKkynIF0pHeRMmp+ch1sH6XUiWOkFoCn95roH1a9BoQrXzY2PmStTCszTkEp3vd3ZXWAm5cW2wyBzSXkone6YGj28aRPLo3GyuFI6hM4g5EpMv0jZqkw2QEoHqqopN6M3GJKmZbYGGZEjUGFUpisdUCMbSq8U8taiVhrAG6/xclU6BewK+k7qsaLfjYnzPgq3zR7mHqL1QbS4UrprbRBC+pWYfpFK75BZdoCUDuxdT4mEBVqDoXRapho0pa8FvxM5lQ6ckCObSv/AvU9+u2bhfrzxWo9JmPyUWOnzIjKdKAGRfxG7Dg+RlC7DdBmkG0rvbX4OzsBP9lzqWtxn3PxNlSAqX+D3d2OWSVP6sr754Xe3p9rXY7vL9cPta3oX+Ok3+Vo4OR8a3UuAxZU+77xI3Unfdl7I84Wg0t/5YYf/LJn13dtItqFjW/2rqObZh/3+Ve/IE3kWup3b7vPRO/LZH/v9F6hBKX31qZv+3OX6CAc420sv38gaswDtJ2GDVVfjmCml71r+SN2qhb4R2jd2uPAOFo9fctXlD/tfwGN8bavfv1r+CEyRopVO6Q8TWV8t/KbSoaD8KoljZttQOqZN5EcBSNlCfE+nwCez8akN9QZD0rTM1pDaEiqMynSlp0ZWSjfm1WilShG3mNIPBVeZ78T0lSxKlxlyYmVwrF0p3esW7b5q9xi+1c0eqT1gAr7CVDomWuRHARhKv6BONuxZ5dKJBVrDBKU/lWowlB7GHLos5FA6Jl4khtLl9Be98EHsDH5TllN6b/M/yW+TAJGPyzBdKp3CdAjS8aB1pVMu/WH5kNWxNVpp3tOxpSsawphwr21eukt9s70RagfFz9sRE88diWHRtazpufXNQkD4DrXfbz8S+/60XFAUFlf6A8OfgG8Vq4d/m1oBpW9uw5P5ALzDVcj+/D/DaRTiwlXb/qX56+fmN4nl+JJ+1Pa7R6EsMFsODeKmp5vFK3CGdaXLXPrbnbg5NKrC4Std236PI9VRwv21U1+qi8Tl52U7GH7bv0bEMzsi4v2rXLu+eubCKSEevxQrv2nfEfnmP1PvqVG00qMUdhvIem9cmHpN8ydQjVG9oXRMo/dQmC/7G/VEutI1Cauh6bZrtgaolNkY+A3BrMyvdG88rnKZZkldq6yUeInS3U9F2koWpa9UXjblT22j7gv1QbGKIuAODMIB0LyxB9chjOINpWMaXYb1htJTFp+g9FQ5pfQTa9IbDKUvUNkYb+FK9+6Oy9+OzcITmIiHzSyXeNkaPmyeTSnyL2KgZqV0CNOPXS+DdEPpD7e+f6l2e/SLsJFRodK8rSOwKtPoO2JLXzPGNhIv94bfhVdmQwRFvgx8M7hmGdTfG+6Hjhc3Y1tpsLjSb65bT+ecuLlRWwGLi9duAc3/94Sp9N83H7zFFbqv46fb/u1qOI/Pnvrdn0HofR6j8FeGSe+fNGGW5dlTaHMz8fLUVfrt0U+aqBoKdfvXuLbdfD+8FiqL/ofIl6MqTjcTL/fUfQ7vgJNHweS7vhJg9l1Qf0+dD/Z27hQ2TZWilQ5hNypZoeoh0jV7TFA6JWoM57q6RbSK5rVL2cr7pQp9Q73BkDTe/MzaYFZGoUdhSvfj7w6EWVIut5LSXfV65gVW1M8+fBeZSt8cxJubZqVaHKkyt1G3P/HigLdHJTQ93XC9a7N7f0MQ3+NS6cYGhK50vcFQ+mgMRj3klndEEVPph3AqCzCubo8WoPQFsctllVYgl1tR6ShwAxT5ssgZ+B6U0r1NZ1aEKUhXSgcbwwXWVHpv89tKw6kSUCdAJ/OeCYulT8lKpfQNEczauFy1kZvh8tgkbqDWDRHp8kbxn3BRCiyv9Nvkmw+5ufG2NKVjfO76bWR8jVL6s6eNVLviW7xT/8rwBui37SIU+7OUZHG5Dp5e8FOl9GfP49s2pfTVpzrkIKvPqwLyRzEPvm7r6hRf3kG1htJPHn2GXqvXzvv/HJT+Eb2dTl4kXf4/1ESpKVG80n00SRDeq34wrFEfh98mZMn0p3xoB6TqQRsrEUdFlZyELmUbMOau49c08WoN0JU2iWOSfkIDFc1K7GFU5lV6NGikXVIlP6XUo0ErKd0XFAdw6e3ornD1BXHeolzJonSI4vF9MFBdIQ0dpTwLPkUUCAToF5GAmop+BG+TbqZvEzaFqlHD0OPuvXL2u1R6IKbmruPZ1ZWuN0BXmre+G+c1pjUYSg+Ex2h2JPUoSOnjRrbFLIDLMaU+HhbWV7rr4fBHlxpKxxkuMkiHmn9q9x+JpU1inNe0VIVvqRKiDL74dZD6RiypiodbMRyH7ZvA+fQF+WHzOJ2Vh1vlE1wloJyVTr/33dxoKv3mRpJ8ircbo2sgCocvrhAp/e1OitWlwb8Sf9Puf7o5fRLjtm+/lr/tmwXCMPjZb+oEZV+Mihfb+mhE0Pld+B/LruOnD8jG4cfTD6gYilc6xMSYdK6k53OM+mim0vGGpA+Cd5R5VMRrqumuqZrRYsi2Ghp8vpoq9KouXr0BusbjNTXqgaT0BupLldU+6FGdqsyr9CpRhU8LwKGlSr5gvGcABrKS0l2HgmIMznVQYLSeWsmmdMyg7/H5g6sq+txjBwaq3WPY5lH3K2n64iH32HpfTT3NTneLvet9HUGBMoerwZ7qKPY4EhQ4E10pHTfYAye7wQ91utJTDTTfcSy+B0YlsR+Kjd2GDe3QYCgdK2G/R4I4wbEgpc93n2iHV2XPGrPg6gufeXPgUOyM5XLpWZROd0wNpXubhAzSoQb49ALdBTOU/kx4sfp+zBLdBj4Sk3kW1+KnY6R6pXQzTYNhvKl0lYoHWOmSopT+2yYoKt6p3eoHX4PNnz11DrZafRozLp80od6Br0jpwO8+2oU1ptKfa+yRFjYLaiRjgsvZf4x8Ca43lH5PnbL2nzSlvzhMLyJQWqW7ovgxjKIbcylxo77bTLFTWA4EaHJKlZz+gg90UmwPBaqQ8xlBpBjfi0o5lqZ0rQG8jFPc1YR0rcEYA6BKerLJqCSlqxV9ZJqyWIVD0IdIpkqumiAMEfUF8/7OU2Klu6Ir8cnPVTJvlVrxqMQ6Kd1YAeULgTPNR8HjY0t8bgiYD7kvXB8IwIY0kbyvHrrIJ4wCoHMh9spnZQ/BBh9iLRTovSTnM6oNxE78/eVIUFO6qw/kjw10e/TJu2F7OVNda/CE8WmiVOUYJunNWlK6XNkdTCld1syXF6JHQemq4HKtCwtx5nFfeJfqmZMSK/3iVi1fokR+cetLtxhKhypKoWsFQCldzn5BzNJN4aUrNKVjRn05fPtK6XWYQ0cmKP3d7fKutHYos4vFlX6482HjBcKVramVLEr/VphKv7Hu6+eU0kMXiZtee2L4a7xF/ZVIU7pKmgOG0uX0FyxQBh54rlGOZCgdM+qDV5pK/5Nh7XSlf75Qvo7aL2zFMhWlAwHdvjlRv/ATqtiTNmEG8eQay2igUNujdcq6hScgryTToYDvqtRKB9KOKv8hmq1GweOWnyLgdUtFp52mLC9Pv5Zml0z+8mAuvSQvz7LAhGPLTomVPt6MmXMDKXLv0+77zfufeZTufTqunlcP7YjjszB4i5MeFlUGRy5uxtktZuJFplhCE5Ru9i4VFlf686f/e2rWSNpKFqXfWGco/XAbyZ8SLweHu69pFgs2YtPbnf0k4NC32ZUe+n2c0mOpwiunKaNuGBw5d/rwVVriReZYQn9MU/o0onODKSp9ylTqs9YLI5VfsQBzoPTpEFAPjAaU2idjJX0CQFGQ0q1EiZXuetqtZV5UbN7b/FK4AKU/3IoBOGKWTHWbkpbT05XLL26WN0QXN8nbo1LpRm0JsbjSXf/SqmVeYMW87GZR+rudF1RUfDO6XCn99ydSH+/1yvBT1OPsefP2qEQp/e3OY3IHZkGpW1f6izg93VD5uVPH6R109iK6PSqVfu6UvE06LUqsdC1XUjCs9KnjdYuFHpc32jDx0dLsGPmWYnC80nubxQN41rxbu1M3RZ92i8mVvlhNXwFDmyWp7sU4SfGH9HwMeBt/O6ltfh9VsKxJ3i29Jta/JqV0o9YlI/1SYHWlPzCMUxUhCv63VX/hWq2tZFH686e+xoeD3rnhqpsbcZbL2fOYZ/ltU/fCkUCAHvjfePTrt/A1/tfm5bdkUfrZoyrbYhZA3ZhSP3tUgNKP0wNHu74V+9a4XlMq3/XVlzhf0vXLSN8tptKNStc2cwfFU2Klq7+RURSs9GmgPp5xTH7c7WTID+gqDscrHee0nFnhrwzjk0KG0scjBSj9i9indPP3UtcX4TtVqTey9PIrnmheGhuoqBN3Xti+oFWQyxc3LX2lGlRycfPSp7bXXBbDWYum0rH2FZ+vZn57yV4KqyvddbhT/PeX/CubBAboh9topQ5WsigdM+g3bH+4cetfrD79dd8VN7R9jbn0bRfRfRxBkn5l+Ov7Fo7+qBnvlWYq/ZOm3z0KL9+5qz6pe08WXKvPf+0buuH015hL/5N476OFD7cJlPnZi7584tBJeJnOnfryjoWjP4t8/lOa9SKHg8ontvtGH3l0GpNRS6z0AW1Oe8H0yJuDlqDclA7K7VEfB18AA/JT1Yujv+R53PyUXOmu8Q/C8KP/9hCch6fdSuQ/aT2jfplvEvgwELBDfaAXQlMWv5AfHQwB+hc4AJUgHBdi6bN9kUDFsq04keXOk/LtcDHUY3Km9zLYSj6CNK9uqXEUVCu+rz47oQRYXumu5x/DKUZb9+EFEVbq1Mq28/iMkVL6tqNf0wooX4jN8IIdHBbi6wN9p4fWgMW73woExh+ro49yWf0zOP9fr8Osyr82p5S+7duvQ6h02Bzl/wnuRYhn4Cpw8BT0/7D3PETmu/4Nh3+vh663504LMYjDXP7PcNmnR5C2/fFL4y9FUqX4ZpwOemqUOpde7pSf0h1H6ZUOFHjrtiC0sZbJ3/sly1R5XsCTZWfzAjN4CJNjfaUDGwPaj1LaSgZmq1HYdtFvKVQOXYTSxopldxX3g7krkBLzLu2F3GUUs464bZm22VRgpRcHK93yzInSHUdZKH06bFRp8Y1H/6Zkj+TOCKz04mClWx5WeimwvdJDF4lzT64JLX6oST44Wjaw0ouDlW55WOmlwPZKd52VH8/4tXxwv3xgpRcHK93ysNJLgf2V7nJt3NAnP/q8rGClFwdNCcxKkUrPByt9OrDSS4ETlF6esNKLg5VueVjppYCVblVY6cVRZIJlKvw1K31asNJLASvdqrDSi8MCSpcfTshMmZkwPiudlW5RWOnFwUovf1jpMwAr3aqw0ovDEkrnxMw0mJm8DCudlW5RWOnFwUovd1jpMwIr3aqw0ouDlV7usNJnBFa6VdGVrlKNjM6Ej0JipZc7rPQZgZVuVVjpk8BKtxms9BmBlW5V0pWuKhmDICvdbrDSZwRWulVhpeeFlW47WOkzAivdqrDS88JKtx2s9BmBlW5VWOl5YaXbDlb6jMBKtyqs9Lxk+ZSuEih9Mljp04CVPiOw0q0KKz0vrHTbwUqfEVjpVoWVnpeMv3hRksSLV+0sO5x4mRas9BmBlW5VWOl5YaXbDlb6jMBKtyqs9Lyw0m0HK31GYKVbFVZ6XljptmOmlO54LKl0BmCl54GVbjtY6TMEK92qsNLzwEq3HTOl9G3q5XAoFk28LFOH52D+X1Z6PljptoOVPiOw0q0KKz0vrHTbwUqfEVjpVoWVnhdWuu1gpc8IrHSrwkrPCyvddrDSZwRWulVhpeelXJXude/VPm/M41WFGcMb2zsT1xVv+MSlsJjm8RW3OSt9RmClWxVWel6sr/S+lUGxd/2mCSsBvVPaSsH0NcBYeyZ8EKVBICbQxRqjHd3qIBb4C97bsrC40vhaFOs6/MAe2uOyVnEVVRYGK31GYKVbFVZ6XqyudE89eLcyKMRQ+sr0lX53UKzw1wc/B6cP+JSsU2QqPSzECrmXsLiFlgWgK/3+voy95KZVzcA9CYfHSp8LWOlWhZWeF4srHSS+CkUYbdhekbaSbvEpJDb63ZRZ6feBMzvcI7IyRTaljwVlt6KVLo9vQeytHL8SZKFVvAOdnwjTghMvcwAr3aqw0vNicaV3BNuVBsFq+srUci0aHe6FpmALVPolsRO0z+KVTkxB6bDN8aK/TTspvfaJTao0CQV3LBhWek4OXvyGKk3Ca4V2LIpZVbpXVKnS9JDjlPQmmsLaSve4tY8pSltBpQ9s9vuvoLXNNeg/76jf3y0r+jugeD0VXVHoVuPzYThO9dVUn1J6wNcQvODzBVwDHUuoygvDGUofhQ0OUC2IfK37cSwqpWv7+MWBivthL3JzYy+4opT+i5qKZX1r3U/5fFQrt8TSL7bThkNyw1S9ofS+8KNwGL/Ys8Y1Dt8BAK2pktpii9zaYNaV/tLzocTbl9P7pve5rq6F+V/NDHa93dX1kxpS0/vN+ya8/dJJNvUVOHhP09XaSMZhJd++EXeFLe9HzubdVQblpvSOJd7EqgfowvbAo11dry2i2oJJfn5j1y/2XI/n6NzwybxnPfltbYGDbzga1U/66hVdXQdvhwFWGfu67dSGIt89QG6l+yqFqKpGD9b4u5UO/X5QgN8nV6L+Gvjqq4JuWMhCIPMikT5WgdA4WQablBq8ieavwT1OZXOrK73P/XFKV2kroPQLbkw275crsEW0nv6ex20VLs+R4Fh7VZDaXJvde/1QFqBoqBcroBfKfNQ99gI247i4GVSOq1ku/bELSumwwU5/fXAnVoPIx2WYTkqnfTS4BUo+EF5RHcMxnsID9OyWe7kEVlK59L4w7eU1OLrdcsuTFdDw6HraEFPmnt3uM6o+XemUS99K/XB7o7TGNe8yucWz2NVktpXeEtkfSkSOwWs4sjf2TdcPwr+Dn9Lc7HrpZPpbrCXyzatdrQJlPZnSayMeEMCjz+btJNl9wQzTR6rCD736g9b33ki01D30alez8OGubK70oVMHvImjt4FrR16PfPHqD5r+cJdqyUrSvyH915qh86+/2tUoBmGAyZR+8NQIDNDRX8DvRf/4bipM33Jv3fxXf9D5+2Tiim/XvtrVJkYXzazSPXEwNUhdDLhc8FXpF3t4hZBSrhJRlwu6+P1x0Q3rAz4la5MsGk0fq0B0pWfuJQ/4s43AgdpR6R1BbUZKRxBsbQAWFx9WgI7HoK9U+pEgVHg3+0GaHRg8y2x51I3ZmkPu/fB1bfACfO13C8yzgJK3q/GMxMuR4JO4uNvdopS+NojGPuTGzVDka93oaal0uQ+SfAB0/SaEzzHxFtTNdz8Fdf2wgs42lJ5KvHgWYFjdj9MboUFcDt9F+AyOmKrXEi+vrNFuj853U61Rmie3aD2RlgiafaW3hEZQ64m9sX74uuvtvD/bLZHD6S83XRISVbF31Hoeqh4Gw7Q0vV/Aj/27n5ryaAgfgB0k314ESsfLSUNYj+ALpeyUvj80glpPfBHphRck+XnexNnQ+fXpF+Kh8x/Ctvc2LZ78VD2yYB70v+ipvFdyyYWqpColEg/VbcfjWuUBpa+G0kN1S6bwsgA5lA5Gp2g6WgUhuRBxEaBq6lEtqrEcxWxIj0yt9GDg7ledUmRVetpYhSHHkZmTzL3kQVDnalrYMPHSEUwlvNNXwOIUgzcEtyil95O7dcjKh9w0VwYb+90rqMeoG6e5eFYGxdh6qjCUfsiNFw1vDC4TpHQM17GeHI5fArExGJJWFVQGpVNG5lDsZTiOmJwYM4or2ZSuaIU6aKCYPKVqWW8ovT8stsHmhtL7wjAk0Rt+0ThH6PC0CTGzrPSW+1r37+trPrYx0dtsynrXvlDLOrTNSN/o4+odtWSdbyO09DWvep5icaNJKr0nMuhN7GqBUss+4K2QuZRb4jKJMk/2RT6HAUZkPN/yVijZEkr2jipLm/vrbTKi8N6m941rjFR6T1MtDJN9V9F1PsrLZFJeSh/6qPPAvt7h2wKhB4bXG2mRZIt3qBbzG1t6151U52S8dnsglEguP/3z8X346hlNUun9p15ZhJvBOp6id7zm0tgSRv0WZJ5cfv7H0X3eLdgVOr/jhY2Sy9cN0Gpiy3K1v9VHr5M1WDxuXHSl0jdc9P7tyRYoXKF2YSxhV4PbKQWUnRxK9xuxNN53E8KnkuLUQ4XpFKT7hcrCAAUqPW2swtDHmYLSYRu6CE2BMlY6deowld4RJMdrUBt9cXlR6R0UqkN3lScfbwCpY/bFULoHZQ5OBrFTn80QrmP9AmwneS/AgF1X+gI3BOagdKq5HyPsBW6yNOr6lnxKx1XZgOWU0mW5Vfza76+XWRhD6Z5WDOaReWYJ2aptDcyy0iPqF8PD3pfCEK1Japt7m8VT3sQNrd/cE/4GlXIg8vWDYdEXepumY0LHG5pVk1T6Egzea5s9iUQddnhmkbnsiXz5oMzL9ERA1y/SAJ5aLCeSdcc31UZ8TVCD2ZTE+5GH7ml9CMPFljrwdmL31kWJR1vNlINU+pI6cPxgE9Q24lAf3J7oVMueui8faxbbs74dy0vpR/E7AqoXddQFVF3i4PCx0+IntydeaXv9nrrX4VSDsv/ypkYxuGkVnYHrMcmCTXBqpNLHz1+4PXHw9JZE4lvssNNjLjec//dnOgUm0Tecv9yb6G7D+pGDp6AMkt/8xsFT6/AY1uFrf+7U/Hsa578ApSu+fR9enH/0w+u/tc38tUwqffzb42+8dh4q/4RD/fouc7nh2//vg2FRY1yYMsiudI+RXCGgnvxtaJjCdArSNaUHfFWi2ucLDPipp8vbXZNSMea0e6g0cSxXDzR1S0t397gGuv1qe9lSTS1yHBjQ3ItqNjb00YYDtKI3KKX78AKFm7ui8t4Z1KZK+gYTsY/SKV43GMAXpB5r+uk2aB+qeK3RQykdpH4kiBI3Z7ysDbZg3uVJGBL7LJBZdsBQuicm3jCUfj/eOq0Pakqn5Xy3Mndupcstod8Epat6qXTgxPq7sNVQ+gexs2oAs0RbHNFifGC2Ey8vdW1K1I7BT2oTuZuobRY9oV2JA829ocQIZVpq34Q3VtXSN4zES08EJD3SBGWp9HcxjU5KB6jeWNa+CWXcMlEbeQd6ysRLsu5z0EBvZF+oNvJlNCSzKT1NIPaROkrMNH60CYpwSWgkxRNS6e9iGp2UDozU3UDx40gjLAdxVw1LzSuTTpklXjq65iWO7X4S5P6FPKfAwWHRuykZ6j99bFNiC2VaDr4J3/y9Z5JG4qX/1CA0HQWPS6VfaDvplUoHtlwE9cby4JvwYj9yZhem0sfhpA5R4iX57Y/hbfLA+eu8B0/9+wZv4pEmeGk2HAWxb/n2OG78x+43Elu+Ak8n/kSOJ6TS15/e4CWlA1u++ohC+C1/hOVrl8OuvjmT6zvNoXSfqFQlBOqlwJWGKUyXYq4RcQ9W4SaET/V09YD3ldI9cVHph/9YnjAWNMX9VZTsht7+ahqDQmpM5sNGdMmgceiLsZfsG+KK3qArXR6Ln/rhoGbJ2GAJ9pyItZV+KLgqJau0lUylu0VK6SuDY+1K6V63aN9e7R5bhCafqHSVgDeVjpkW+VEASukX5HURZ8tIbR9yr1gjS3e75T4mKj2MOXQkp9LVlhlK/yB2huql0lOaVkqXs1+QXqMktyi10n++KfE2aD3RdBPJEaltxtuliapPUPKP3kkmAGqb5xlKTzW1RAbP7ruvFeRrKv3XaoudqS3xxuiLrdiscumPnoEfeuxQSzc6yeYNn2D/R+9EHTTigC0bQ7IggdAddhWBeNxU+k7qnFpii+kanXJTOrh11Y1wcTpaaV6hDg6fw1PxxSd4Gjs+lScAq683lH7vJ1jZceIFqHjl+X0ftX0MXQ2lf3CnPDEf3AlXCoJujHa3wRcjl76gHiT/zKdPQhOmWMjmj/wWt1twArf6I9r8Ckyj/QlLEojdn993/DRUGEq/6VOZczeWicRrR69WpQyyK90v9DksWF9FblU9qoUvoMwNPjTidJUSiQuSfKUYUBpV9pcp+AljefwUJtNg0FtAKB+VHoZonFpwJaV0cy9ZNvSJ+IQGQ+n47ajNkSqh5u9RKW2DiVhb6VH3WEpWsGLUwynJUPpKIwZH72KyXLaNui/UB8XnGO52UFodLK8p/RAG8abSMY3eH8OwXild1SNS294jwZEYlg7FPscDSEu8BGTiZR8dszeX0p/AJLtcTVO6WZ9d6d7L4m/IdbP0hMyolzbxkqi/zUuRerrSySNN3+wZHR09EaOVlgPrngubSk81tVDq5jhuq5Re2yzz4cYSt0SbP6orvafpQChZNwhRPNpe1tY9RIOGURamydOUjruC8N1U+mCTnH9jLHFXzXZQ+o/eX0SRerrSKQdz9PVX4Cw1RK7HlaED615qNJV+kWxq2gIVeKp+gdc5pfSDp/F3mNQStny0E2y+AL8YSt9w1Lcp+e3hRaD0t4zaP87HQdfWYQUpnUhTOu6rG95gSumvHZWzL43lFT21jw4XrXTD04gUKvpS9fBCXCvDYJenUog4hdWGbKvpcgBdcCPsj/E6QisZYxFUht40ZjXOn+lRyfwaXKFxlJPTc+lpG1ZpTbKzVDpcF7zG5oCP5uekl1De+s+9gbWV7qrXky1HtJVMpW+me5sEVarFkSpzMHn30+Ual8YnaHp6h7tFrW52P94QvB0KpHRjA0Jpuy+2wo0lcrlaGEqnO6JPxM7JveC9zHSlS9crtWcoXWVfcil9a+xyVbM1tlqWlMtLqvTaG8O/e7XrzGevbkrU34o/1IShdGgCIIzHCY43dd1JBpdKN5swSqdbk4bSdx3ZTD/ISbkc2Rt+puvO8ESlJ+r8i3ojV4fSlP4eDfpjdLhp8t23mkeOUbralVR6cnc39VLLkarwB12fhstf6cdeqvvDg13x3zw4L/GjW42Y2lQ6NOFZgtOy5fXIx10nQO6G0v/wmGrCKJ1uTRpKT/7oZTqParnli6adXSeaJio98dWN8x44Px5KU/rv5aD4lkgp/R9v3ahKFKXLfUmlJ//5RXr7qOWWe+v+qetE3bSVDlUgZqNHtUgFtdEqkDoG5kb8TMLuQbFLjXbjREiA2jPHQqjJkO4Ajm1cMqgy9cXciyJtQ71JloWoxCmWOJbRyeUJ4vGllwC/GbrrWFzpfW7xIS69Hd04YzG1kql0COLxVudANSg6iOF4lFIxa4MXfIFAAO+cBNRU9CPB/RWuzXQ2wNxPYiRvqHs8tlfOQielB2JyAxe++krbrt1BIZWOt07lvEVQOm20G+c8LguP0VTI3cGT6ZMYR5XrpdrHMUEzQemqPqvSx1uNtEuqtJVS6uN6X2B2ld5yX+uqmtHmm2q8ibdbMSlOGErvIDcjVdfCT7yWeEk1yVw6IZVOKZXUUm6J3n6Xmg2lw9rOe4wmpXS/GZAnGo3yi80yAAdkLp2QSl8xJr8rtWy4FvZoh8TL0Eed/1Yz2lZ526LEqkacyUgYSn/OfCnvvRa+Vy3xcpHZJHPphFT6gnqZA6HUSiLxyLVwpaDEy4VhXemw9sE9OKimdPxlQZEqbx7GBDohc+mIVPrWI/K7UsuHroU9TyHxkqF0umNq9PCquFgSjZPFDaNWocIrMf0iNaqy1gC0Z4xFd+poYqMhXVqaETeuUI1qNr2duaFqSjXAxkBVNSrH6ARHJp+gTJXUBmWodNehoBhr91fKx4O0lUylYwJ9j8+Pn8PV5x47MFDtHsM2j7rFKWenj6331dTT7PSY2Lve1+HGJ5NAzGN7quWjn0eCcj4iKR032OPz1TS0w/CG0sHiWOqLjX04cCg2pnLpY/Hbao7Iq8ETsbELPljB2em60sfDY7fhXvrCtOWZibn0vvCZN6k+q9Lnu0+0w6u4Z41W6qUtwnILk1lOvLRE3krIaektEXl/dAne56Sf3F8vpR9zhG543oDV8tbnr5W3cbN0pfdGemjdWNLdzvexRc5ykRWwm6bjzTjNpTYiHx2Ctp1nzINM4rSWRBIPq07eH4XDmqj03ibpLWPZibdK37dDLn3o1Fk1LX3olLw/Or7JUPrdY2bcfhGK/BVQuixBk5G7nqj0B071kXaN5Vdo8HOnweZylousgN0c3Xwap7kcPIVfz52GtmfiZjye/ApnLuKrAh6X90fhuCYoffXRhbS6+iK5/B94q/S280UqnXIfJrK+WvgNDWOVEqskjrlsQ7aYaJGP8EuNQkyu7qLBysSxKkV8oplpae4AV6hGNRt7ybKhbNIa9MM0OtHsl7SSsUE5Kt0VXYlPfq6S16bUikcl1knpauUQ2ptmko9CaWyJzw0x9iH3hesDAdgQG/rwAVP5hFEAdC7EXily3PJNo0QhsJzP6OoDxQux8wpo2x2USnf9wo2T0yHohqH2+2JJGCssknfDEPTwqNpojJJEnjD2lV/B9fRgkbFleBdOS6S9yWTLurAQZx7HepfrMk3TNHlxPh6uEBCgp0rGFq0bzb7ALCu9tnmbYeV3W3+352wfJsyV0pdEblq8b1/fh9B45LOBUG0zzl488tk4qGZJ5BlqMma8EKR0aN+3b19IW8KWEQEtLfLzAOQAEL6HsRKU/uWF5/si6O0lTcagUATRJ3HGC4Tz790Gh9V6V4bSd38WpV0Yy8s+uyI02CRsoPRjbQH5AGki8VTnHw4/3/toXcBQ+vipj5fs29eLk11+9Juz3oPDOHvxZ785eWBTYvy80TRR6dAOp8ib+Gdz+bz34CkBSh86Sp8HAA0HcPlIE1aC0v/93fHe86jt8Yt27sdBoXX8IhB9kma8JC6c/v37i3tXtL0zUen/8pvrYBebtOVi72tHRZFKj1LYbSDrvWBJs8cEpVdjVG/IFtPoPRTmy/5GPTFhLHXtoC7G6HTn1a+yNfD7gGpRzWq0bBvSit6QReneeFxNzzRK5gZlqXQgYH6PQNrKRFKNRsmjPkXAqy4BngDd2yZkOkZiFPtjqTw74cm9Q7OFcukerZ++F51lai/LAuk7MchVn5ssW8y20sduTxwArSO9J+DqdNNiM0pPHMCK310H76mWerf4ZiFW90TE1xB29RhNE5S+CyeZC+FJqiVsGRPfXELZFZq4iAN8iSF+bYRyK7WRsyB3mTnv2QsXtfdwf+9jml0qPdGLtc/AYU1QepLmpYu71PKFRMuRmHjoEjtE6Th/sf80GTzxQENEiMolXkPpif61UPEHMHhiaEereP3gaVB6/ynxlxCh96+F0/6v0DRB6cmL6BRtMZaJoWuaxfxjmHhJfIVZ+cSG8+LfMSVz8BTOs4HFdV804QR2bJpfJ8TvP4T9nTsVhVdFKj2xGqt/vX9ilJ78I+3iHbW8OnHFzyJi7eBFRSodwm4t86LqIao1e0xQOiVqDAu7ukW0iua1S43K+6WKCWMpQaeZme6IGhtFcYVaVLPaS7YNaUVvyKJ0P/4+QRgl5fLyVfp0CKhnSgP6B8Tk4W75yVzFYdwetQazrPQJ4EOZOuopTyxRDhZRfVJNkzCyS3V88VP65V4NgHNeYIG5dJysKDEGpTR7iomHlQtzVxmUl9InMDThJ0w95Ykl88ypPqmmSTC37N4rEzlyAJzzAgvMpQ+ZY2/Bp0KBZzDNrnGFUvkkpA4yGzmU7qNpgRC9+cGoRn0cLhKyZLpSPqEDuoSwq8ZQd1RUyUnoUqMBY+46fp0wlhS0nLcIvWmruLybKTdSK9BXOVntZcKGWAV1sKI3ZCo9GjTSLmbJTxn1aNCRSve6xUKPyxttwFuik6PyLUXiZKXPKj0R/SqwU6bj5e3RCSTrMME+k5S10meVDeef1c71B3G6dMvboxNIfoUJ9pkmh9IhSsYMcyU9lWPUgyeNHoYr8eajDwJu1GxUxGuq6a6pnGNiurYaGny+mip06ISxfCLeMwDtyszxeE2NeiYJKqt9sIITIGkcNZjay4QNsUUqXW/IVHqVqPIDcLhmydzAiUo3Pp9xTH5C7mTIT+gqFlb6bFH1i1RYJ58fzaH09+Mzfbis9Jw8sip1suXzozmUfu4y80bpDJJL6a4ofgyj6MaQN27Ud5spdgrLgQBNZ6mS01/wEU6K7aFAFXI+I2gWY3JRmW2sGmiIR31qfgzOclez2OVG8jkmGscYTO1F29BokckWrQH2ZipddqqCRgAuLqmS2iBIT5dPwPZKh9PeIz8WoRAG6FPVi6Z/YEqbzQ52UnpSzSpHWtbJD9hqWZfl7TOidZwZWOk5SY6kXoGhQfkBW0ODaYkvyZa38v+kT42cSgfy3mozyXIXrUfecdQo6C4a7r+Qu2hqLzmHLOy4NXJv4AClOw07KX0OYaVblXxKnzKV+qz1gjHyJ1aClW47WOkzAivdqsyG0o1ESJGw0iWs9FmFlT4jsNKtymwoXf2NjGKxptIzKIHSJ4OVPg1Y6TMCK92qzIbSB7Q57cXQg/dPrUWm0mfd6AU4nZU+DVjpMwIr3arMSi7dPpQgz1I0f81Knw6s9BmBlW5VWOl5YaXbDlb6jMBKtyqs9Lyw0m3HTCnd8VhS6QzASs8DK912sNJnCFa6VWGl54GVbjtmRukMUwaw0jNgpdsOVjrjGFjpGbDSbQcrnXEMrPQMWOm2g5XOOAZWegasdNvBSmccAys9A1a67WClM46BlZ4BK912sNIZx8BKz4CVbjtY6YxjYKVnwEq3Hax0xjGw0jNgpdsOVjrjGFjpGVhT6cy0YKUzDoGVngEr3Yaw0hmHwErPwJpKn42/K+4YOPHCOAZWegasdNvBSmccAys9A1a67WClM45BpRoZHVa6zWClM45BSYzRYaXbDFY64xiEUO96xoATL7aDlc44BlZ6Bqx028FKZxwDKz0DVrrtYKUzjoGVngEr3Xaw0hnHwErPgJVuO1jpjGNgpWfASrcdrHTGMbDSM2Cl2w5WOuMYWOkZsNJtByudcQys9AxY6baDlc44BlZ6Bqx028FKZxwDKz0DVrrtYKUzjoGVngEr3Xaw0hnHwErPgJVuO1jpjGNgpWfASrcdrHTGMbDSM2Cl2w5WOuMYWOkZsNJtByudcQys9AxY6baDlc44BlZ6Bqx028FKZxwDKz0DVrrtYKUzjoGVngEr3Xaw0hnHwErPgJVuO1jpjGNgpWfASrcdrHTGMbDSM2Cl2w5WOuMYWOkZsNJtByudcQys9AxY6baDlc44BlZ6Bqx028FKZxwDKz0DVrrtYKUzjoGVngEr3Xaw0hnHwErPgJVuO1jpjGNgpWdgTaUz04KVzjgEVnoGrHQbwkpnHAIrPQMrKp1hGKYQWOkZsNIZhilXWOkZsNIZhilXVKqR0WGlMwxTniiJMTqsdIZhGIZhGIZhGIZhGIZhGOY73/nOd/5/kMRlpM32xHoAAAAASUVORK5CYII=;" vertex="1" parent="1">
          <mxGeometry x="380" y="3180" width="1490" height="417" as="geometry" />
        </mxCell>
        <mxCell id="82DQThB_2eSPjRUzrq8_-2" value="Pizza" style="swimlane;fontStyle=3;align=center;verticalAlign=top;childLayout=stackLayout;horizontal=1;startSize=26;horizontalStack=0;resizeParent=1;resizeParentMax=0;resizeLast=0;collapsible=1;marginBottom=0;whiteSpace=wrap;html=1;" vertex="1" parent="1">
          <mxGeometry x="670" y="3680" width="160" height="52" as="geometry" />
        </mxCell>
        <mxCell id="82DQThB_2eSPjRUzrq8_-7" value="" style="text;strokeColor=#666666;fillColor=#f5f5f5;align=left;verticalAlign=top;spacingLeft=4;spacingRight=4;overflow=hidden;rotatable=0;points=[[0,0.5],[1,0.5]];portConstraint=eastwest;whiteSpace=wrap;html=1;fontColor=#333333;" vertex="1" parent="82DQThB_2eSPjRUzrq8_-2">
          <mxGeometry y="26" width="160" height="26" as="geometry" />
        </mxCell>
        <mxCell id="82DQThB_2eSPjRUzrq8_-10" value="NYStyleCheezePizza" style="swimlane;fontStyle=1;align=center;verticalAlign=top;childLayout=stackLayout;horizontal=1;startSize=26;horizontalStack=0;resizeParent=1;resizeParentMax=0;resizeLast=0;collapsible=1;marginBottom=0;whiteSpace=wrap;html=1;" vertex="1" parent="1">
          <mxGeometry x="560" y="3830" width="160" height="52" as="geometry" />
        </mxCell>
        <mxCell id="82DQThB_2eSPjRUzrq8_-11" value="" style="text;strokeColor=#666666;fillColor=#f5f5f5;align=left;verticalAlign=top;spacingLeft=4;spacingRight=4;overflow=hidden;rotatable=0;points=[[0,0.5],[1,0.5]];portConstraint=eastwest;whiteSpace=wrap;html=1;fontColor=#333333;" vertex="1" parent="82DQThB_2eSPjRUzrq8_-10">
          <mxGeometry y="26" width="160" height="26" as="geometry" />
        </mxCell>
        <mxCell id="82DQThB_2eSPjRUzrq8_-12" value="NYStylePeperoniPizza" style="swimlane;fontStyle=1;align=center;verticalAlign=top;childLayout=stackLayout;horizontal=1;startSize=26;horizontalStack=0;resizeParent=1;resizeParentMax=0;resizeLast=0;collapsible=1;marginBottom=0;whiteSpace=wrap;html=1;" vertex="1" parent="1">
          <mxGeometry x="525" y="3860" width="160" height="52" as="geometry" />
        </mxCell>
        <mxCell id="82DQThB_2eSPjRUzrq8_-13" value="" style="text;strokeColor=#666666;fillColor=#f5f5f5;align=left;verticalAlign=top;spacingLeft=4;spacingRight=4;overflow=hidden;rotatable=0;points=[[0,0.5],[1,0.5]];portConstraint=eastwest;whiteSpace=wrap;html=1;fontColor=#333333;" vertex="1" parent="82DQThB_2eSPjRUzrq8_-12">
          <mxGeometry y="26" width="160" height="26" as="geometry" />
        </mxCell>
        <mxCell id="82DQThB_2eSPjRUzrq8_-14" value="NYStyleNapolitanaPizza" style="swimlane;fontStyle=1;align=center;verticalAlign=top;childLayout=stackLayout;horizontal=1;startSize=26;horizontalStack=0;resizeParent=1;resizeParentMax=0;resizeLast=0;collapsible=1;marginBottom=0;whiteSpace=wrap;html=1;" vertex="1" parent="1">
          <mxGeometry x="500" y="3890" width="160" height="52" as="geometry" />
        </mxCell>
        <mxCell id="82DQThB_2eSPjRUzrq8_-15" value="" style="text;strokeColor=#666666;fillColor=#f5f5f5;align=left;verticalAlign=top;spacingLeft=4;spacingRight=4;overflow=hidden;rotatable=0;points=[[0,0.5],[1,0.5]];portConstraint=eastwest;whiteSpace=wrap;html=1;fontColor=#333333;" vertex="1" parent="82DQThB_2eSPjRUzrq8_-14">
          <mxGeometry y="26" width="160" height="26" as="geometry" />
        </mxCell>
        <mxCell id="82DQThB_2eSPjRUzrq8_-16" value="ChicagoStyleCheezePizza" style="swimlane;fontStyle=1;align=center;verticalAlign=top;childLayout=stackLayout;horizontal=1;startSize=26;horizontalStack=0;resizeParent=1;resizeParentMax=0;resizeLast=0;collapsible=1;marginBottom=0;whiteSpace=wrap;html=1;" vertex="1" parent="1">
          <mxGeometry x="770" y="3830" width="170" height="52" as="geometry" />
        </mxCell>
        <mxCell id="82DQThB_2eSPjRUzrq8_-17" value="" style="text;strokeColor=#666666;fillColor=#f5f5f5;align=left;verticalAlign=top;spacingLeft=4;spacingRight=4;overflow=hidden;rotatable=0;points=[[0,0.5],[1,0.5]];portConstraint=eastwest;whiteSpace=wrap;html=1;fontColor=#333333;" vertex="1" parent="82DQThB_2eSPjRUzrq8_-16">
          <mxGeometry y="26" width="170" height="26" as="geometry" />
        </mxCell>
        <mxCell id="82DQThB_2eSPjRUzrq8_-18" value="ChicagoStylePeperoniPizza" style="swimlane;fontStyle=1;align=center;verticalAlign=top;childLayout=stackLayout;horizontal=1;startSize=26;horizontalStack=0;resizeParent=1;resizeParentMax=0;resizeLast=0;collapsible=1;marginBottom=0;whiteSpace=wrap;html=1;" vertex="1" parent="1">
          <mxGeometry x="785" y="3860" width="185" height="52" as="geometry" />
        </mxCell>
        <mxCell id="82DQThB_2eSPjRUzrq8_-19" value="" style="text;strokeColor=#666666;fillColor=#f5f5f5;align=left;verticalAlign=top;spacingLeft=4;spacingRight=4;overflow=hidden;rotatable=0;points=[[0,0.5],[1,0.5]];portConstraint=eastwest;whiteSpace=wrap;html=1;fontColor=#333333;" vertex="1" parent="82DQThB_2eSPjRUzrq8_-18">
          <mxGeometry y="26" width="185" height="26" as="geometry" />
        </mxCell>
        <mxCell id="82DQThB_2eSPjRUzrq8_-20" value="ChicagoStyleNapolitanaPizza" style="swimlane;fontStyle=1;align=center;verticalAlign=top;childLayout=stackLayout;horizontal=1;startSize=26;horizontalStack=0;resizeParent=1;resizeParentMax=0;resizeLast=0;collapsible=1;marginBottom=0;whiteSpace=wrap;html=1;" vertex="1" parent="1">
          <mxGeometry x="801" y="3890" width="189" height="52" as="geometry" />
        </mxCell>
        <mxCell id="82DQThB_2eSPjRUzrq8_-21" value="" style="text;strokeColor=#666666;fillColor=#f5f5f5;align=left;verticalAlign=top;spacingLeft=4;spacingRight=4;overflow=hidden;rotatable=0;points=[[0,0.5],[1,0.5]];portConstraint=eastwest;whiteSpace=wrap;html=1;fontColor=#333333;" vertex="1" parent="82DQThB_2eSPjRUzrq8_-20">
          <mxGeometry y="26" width="189" height="26" as="geometry" />
        </mxCell>
        <mxCell id="82DQThB_2eSPjRUzrq8_-22" value="" style="endArrow=block;endSize=16;endFill=0;html=1;rounded=0;" edge="1" parent="1" source="82DQThB_2eSPjRUzrq8_-10" target="82DQThB_2eSPjRUzrq8_-2">
          <mxGeometry width="160" relative="1" as="geometry">
            <mxPoint x="710" y="3810" as="sourcePoint" />
            <mxPoint x="870" y="3810" as="targetPoint" />
          </mxGeometry>
        </mxCell>
        <mxCell id="82DQThB_2eSPjRUzrq8_-23" value="" style="endArrow=block;endSize=16;endFill=0;html=1;rounded=0;" edge="1" parent="1" source="82DQThB_2eSPjRUzrq8_-16" target="82DQThB_2eSPjRUzrq8_-2">
          <mxGeometry width="160" relative="1" as="geometry">
            <mxPoint x="710" y="3810" as="sourcePoint" />
            <mxPoint x="870" y="3810" as="targetPoint" />
          </mxGeometry>
        </mxCell>
        <mxCell id="82DQThB_2eSPjRUzrq8_-40" value="PizzaStore" style="swimlane;fontStyle=3;align=center;verticalAlign=top;childLayout=stackLayout;horizontal=1;startSize=26;horizontalStack=0;resizeParent=1;resizeParentMax=0;resizeLast=0;collapsible=1;marginBottom=0;whiteSpace=wrap;html=1;" vertex="1" parent="1">
          <mxGeometry x="1215" y="3680" width="160" height="78" as="geometry" />
        </mxCell>
        <mxCell id="82DQThB_2eSPjRUzrq8_-41" value="+OrderPizza(type):Pizza" style="text;strokeColor=#666666;fillColor=#f5f5f5;align=left;verticalAlign=top;spacingLeft=4;spacingRight=4;overflow=hidden;rotatable=0;points=[[0,0.5],[1,0.5]];portConstraint=eastwest;whiteSpace=wrap;html=1;fontColor=#333333;" vertex="1" parent="82DQThB_2eSPjRUzrq8_-40">
          <mxGeometry y="26" width="160" height="26" as="geometry" />
        </mxCell>
        <mxCell id="82DQThB_2eSPjRUzrq8_-51" value="&lt;i&gt;-CreatePizza(type):Pizza&lt;/i&gt;" style="text;strokeColor=#666666;fillColor=#f5f5f5;align=left;verticalAlign=top;spacingLeft=4;spacingRight=4;overflow=hidden;rotatable=0;points=[[0,0.5],[1,0.5]];portConstraint=eastwest;whiteSpace=wrap;html=1;fontColor=#333333;" vertex="1" parent="82DQThB_2eSPjRUzrq8_-40">
          <mxGeometry y="52" width="160" height="26" as="geometry" />
        </mxCell>
        <mxCell id="82DQThB_2eSPjRUzrq8_-42" value="ChicagoPizzaStore" style="swimlane;fontStyle=1;align=center;verticalAlign=top;childLayout=stackLayout;horizontal=1;startSize=26;horizontalStack=0;resizeParent=1;resizeParentMax=0;resizeLast=0;collapsible=1;marginBottom=0;whiteSpace=wrap;html=1;" vertex="1" parent="1">
          <mxGeometry x="1315" y="3830" width="160" height="52" as="geometry" />
        </mxCell>
        <mxCell id="82DQThB_2eSPjRUzrq8_-54" value="&lt;i&gt;-CreatePizza(type):Pizza&lt;/i&gt;" style="text;strokeColor=#666666;fillColor=#f5f5f5;align=left;verticalAlign=top;spacingLeft=4;spacingRight=4;overflow=hidden;rotatable=0;points=[[0,0.5],[1,0.5]];portConstraint=eastwest;whiteSpace=wrap;html=1;fontColor=#333333;" vertex="1" parent="82DQThB_2eSPjRUzrq8_-42">
          <mxGeometry y="26" width="160" height="26" as="geometry" />
        </mxCell>
        <mxCell id="82DQThB_2eSPjRUzrq8_-44" value="NYPizzaStore" style="swimlane;fontStyle=1;align=center;verticalAlign=top;childLayout=stackLayout;horizontal=1;startSize=26;horizontalStack=0;resizeParent=1;resizeParentMax=0;resizeLast=0;collapsible=1;marginBottom=0;whiteSpace=wrap;html=1;" vertex="1" parent="1">
          <mxGeometry x="1105" y="3830" width="160" height="52" as="geometry" />
        </mxCell>
        <mxCell id="82DQThB_2eSPjRUzrq8_-53" value="&lt;i&gt;-CreatePizza(type):Pizza&lt;/i&gt;" style="text;strokeColor=#666666;fillColor=#f5f5f5;align=left;verticalAlign=top;spacingLeft=4;spacingRight=4;overflow=hidden;rotatable=0;points=[[0,0.5],[1,0.5]];portConstraint=eastwest;whiteSpace=wrap;html=1;fontColor=#333333;" vertex="1" parent="82DQThB_2eSPjRUzrq8_-44">
          <mxGeometry y="26" width="160" height="26" as="geometry" />
        </mxCell>
        <mxCell id="82DQThB_2eSPjRUzrq8_-46" value="" style="endArrow=block;endSize=16;endFill=0;html=1;rounded=0;" edge="1" parent="1" source="82DQThB_2eSPjRUzrq8_-44" target="82DQThB_2eSPjRUzrq8_-40">
          <mxGeometry width="160" relative="1" as="geometry">
            <mxPoint x="1200" y="3808" as="sourcePoint" />
            <mxPoint x="1131" y="3710" as="targetPoint" />
          </mxGeometry>
        </mxCell>
        <mxCell id="82DQThB_2eSPjRUzrq8_-47" value="" style="endArrow=block;endSize=16;endFill=0;html=1;rounded=0;" edge="1" parent="1" source="82DQThB_2eSPjRUzrq8_-42" target="82DQThB_2eSPjRUzrq8_-40">
          <mxGeometry width="160" relative="1" as="geometry">
            <mxPoint x="1200" y="3808" as="sourcePoint" />
            <mxPoint x="1131" y="3710" as="targetPoint" />
          </mxGeometry>
        </mxCell>
        <mxCell id="82DQThB_2eSPjRUzrq8_-48" value="" style="endArrow=open;endSize=12;dashed=1;html=1;rounded=0;edgeStyle=orthogonalEdgeStyle;" edge="1" parent="1" source="82DQThB_2eSPjRUzrq8_-40" target="82DQThB_2eSPjRUzrq8_-2">
          <mxGeometry width="160" relative="1" as="geometry">
            <mxPoint x="980" y="3760" as="sourcePoint" />
            <mxPoint x="1140" y="3760" as="targetPoint" />
            <Array as="points">
              <mxPoint x="1230" y="3770" />
              <mxPoint x="810" y="3770" />
            </Array>
          </mxGeometry>
        </mxCell>
        <mxCell id="82DQThB_2eSPjRUzrq8_-49" value="" style="endArrow=open;endSize=12;dashed=1;html=1;rounded=0;edgeStyle=orthogonalEdgeStyle;" edge="1" parent="1" source="82DQThB_2eSPjRUzrq8_-44" target="82DQThB_2eSPjRUzrq8_-14">
          <mxGeometry width="160" relative="1" as="geometry">
            <mxPoint x="1241" y="3980" as="sourcePoint" />
            <mxPoint x="821" y="3980" as="targetPoint" />
            <Array as="points">
              <mxPoint x="1241" y="4010" />
              <mxPoint x="580" y="4010" />
            </Array>
          </mxGeometry>
        </mxCell>
        <mxCell id="82DQThB_2eSPjRUzrq8_-50" value="" style="endArrow=open;endSize=12;dashed=1;html=1;rounded=0;edgeStyle=orthogonalEdgeStyle;" edge="1" parent="1" source="82DQThB_2eSPjRUzrq8_-42" target="82DQThB_2eSPjRUzrq8_-20">
          <mxGeometry width="160" relative="1" as="geometry">
            <mxPoint x="1251" y="3892" as="sourcePoint" />
            <mxPoint x="590" y="3952" as="targetPoint" />
            <Array as="points">
              <mxPoint x="1370" y="3990" />
              <mxPoint x="910" y="3990" />
            </Array>
          </mxGeometry>
        </mxCell>
        <mxCell id="82DQThB_2eSPjRUzrq8_-55" value="" style="shape=image;verticalLabelPosition=bottom;labelBackgroundColor=default;verticalAlign=top;aspect=fixed;imageAspect=0;image=data:image/png,iVBORw0KGgoAAAANSUhEUgAAA2AAAAFeCAMAAADUo4xiAAAAAXNSR0IArs4c6QAAAARnQU1BAACxjwv8YQUAAAHaUExURQAAAAAAAAAAAP///wICAgAAAAAAAP39/QgICIyMjPDw8LKysr29vU1NTenp6eHh4cfHx9nZ2Xx8fJqamqenp9DQ0GhoaKioqGlpaQEBAXt7e7y8vP7+/rOzs8jIyExMTMbGxpubmwMDA+fn54qKik9PT8XFxb6+vo2Nje/v72dnZ6Wlpe7u7k5OTtHR0bu7u319fe3t7c7Ozt/f32pqan5+ftfX19bW1ouLi/z8/I6Ojs3NzXp6erCwsN7e3ubm5piYmMTExLGxsc/Pz/Ly8uTk5NXV1fHx8bS0tN3d3ZSUlIeHh6CgoGRkZJOTk9PT08LCwoODg2VlZXV1dYSEhEpKSuDg4IKCgmNjY9TU1JycnAQEBKampmJiYgUFBezs7JCQkMvLy7q6usHBwbm5uY+Pj0hISGZmZoaGhuPj40lJSZGRkdzc3IWFhZ+fn3Nzc6mpqWFhYUtLS9jY2OLi4tvb20dHR56enqqqqnZ2dnR0dJKSktra2tLS0q+vr6urq3JycszMzHh4eMrKysPDw52dnQYGBnd3dwcHB+vr6+rq6gAAAAAAAKSkpFBQUImJiWtra/v7+5eXl/r6+uXl5a6ursnJyYGBgbW1tbi4uMDAwIiIiJWVlWBgYDF3UP4AAACNdFJOUwD/Av///Qj////////////////////////////////////////////////////////////////////////////////////////////////////////////////////////////////////////////////////////////////////////////////6BfKeCTEAAAAJcEhZcwAAFxEAABcRAcom8z8AACVNSURBVHhe7Z0NfxNHlq+nVzWb0ZuFsYyjBCG5N1gQAiGebJyBIZtgSZZsYIKxZwCBA5nEeLwxECcBk0kmIRvC7s7OzN67b7l3937Xe86p6lbLlowAWyqX/s/Pkaqqq7oVux9O1VGr9RMAAAAAAADa4oE+8lfmrwCcxfylQV+AYM7jeTHQJxQEcx8I1j8g2AAAwfoHBBsAIFj/gGADAATrH7sr2E9NIgX0g782fwUI1kcgmLtAMAvYbcFeMMcBveZnEMwGIJirQDArgGCuAsGsAIK5CgSzAgjmKhDMCiCYq0AwK4BgrgLBrACCuQoEswII5ioQzAogmKtAMCuAYK4CwawAgrkKBLMCCOYqEMwKIJirQDArgGCu8tyCxb2EKYFnB4K5SifBknEm9WR5EPd2AgjmKh0ES5hPY6aHTEMnMl7clNqxL2UKYHsgmKt0EGxYvEns90Z0vSP7vKQptcNLmwLYHgjmKh0ES3kSe4afOAHMeqOm1IbtwxtoAsFcpYNgce1NRtpGUrFUPE7LsQSvzJJmXZYZoTVabL9Hk8gRHeey+imRjcdHMrHYUCruxVOpbQQEARDMVToIlmZveAJIIWjIy+6n5VgiNpr20lRKi2GjskajajNQ6R3oDSRoShewDOsCCOYq7QVLmPIBDmSjXjq9LzZE80V6ilHMytIjVShIkUPkllmHac/0hsx+eiBNkcLvjp4Klhh7Mee99PJBUwW7SXvBTI4j7u2np6TnDXPjAf007B1oVrLsllmHpcSztMdqCQnkOLqll4Lllee9dIAU68awQyl4+Fy0FyzlpWm1RTNArsQlZFEg0xNBWZdpy4xbsg6jlZgOd7oXozUFXdBDwcZUoUjSJMZf7Gbe6Bcwu3wu2gtGbhFxnZ/g5Ze06WqGtcuapZW4Fc4nOd9hejEmFQmeTO8EO6QKf6NL3UzfM/4riGDPRXvBTI5DGNJxLGzbx++NHdATQVmrmRyHXrdFR8b1NBI8mZ4JljicmwiVGU8dLB2JH+UiPcfNqiwzzsVDRw7GhkpH1Csvp0Y54OU5gSxdo8PAk2grWJDjEEb1DDG8JkoimYlqKXbL5DikHPZikOPomp4Jllevhn4NqWP7c573Gk3mj+deitN/vOkELdF4kZZ+IVaSovf6wdiJw7nCS8orUN/YkH/sJG14Q/YBnkBbwVoWT0mPc4ehOhnJXOhKIs1u6ZngkJRbBIuWwbb0TLDDuUlTon86VSFdPEgzjowq/Jzqb+bocVjKh5Qnc8PDOfFo2C9w3PtbdYweT/iF9AQPA13QVjCdDzTETVrwgIiW2C9PkkSkMkcz6c1lnhCmdS9WLmMSIeDJ9EqwjIosx/LKe0sKYlYsdpKf3sxJW15R3IolTI7jzdwUPw37r1KVhk2xfKAb2goW5DOEoDnledlUMq0njFkvTeX9I7zi2uelk1LmCWGWe43IJYxDnpdMRkwFnemVYIdUJDl/JMcBiSPZ2yzTGG8bVuwQrbMUKzWscxwnTKoj43u/iMVOSRwD3dFWsHY5DjIsTfPxA0Y9zjNmY3F5oytalopZtZFsUVNBZ3olWElcMvi8/CLG1avxA7QYY4vGJHJxzOK5YUnXjqjT0pjxf0k78rH8egraCtaJTKaZtRgK309uLXMvU4glWtpBZ/oh2FAQzQ7nzqRSqVH5257MvcNPZm54ROIYdfg7food8t89GBsSy0CXPJVgYLfonWDNKeJoMNWTiZ/BhKeSiuY4gg4SyU74mCE+BRDMCnol2Kgy00Iir8w7Yq2CcXnocE7mhmaLecpIWMur9yBY90AwK+iVYBSTXjJvLB88onOH3KaTiYyUEydzHs8NM5I15AUZq5g4KWqdUjKJBN0BwaygZ4INK897Ox7PeRMHw8BVUoWzqVT2Rb5EcUwVXs4efymueG445HtnksmD1ME7lkoe10nHaLwDTwSCWUHPBItlKDp53rvTzRyHvLPFbVI9QuVjB08elxFjVOEEYuk4DXp1mjsgx/F0QDAr6J1gRGbrVRiZZltLSjjMA0cTyOApgGBW0FPBQA+BYFYAwVwFglkBBHMVCGYFEMxVIJgVQDBXgWBWAMFcBYJZAQRzFQhmBRDMVSCYFUAwV4FgVgDBXAWCWQEEcxUIZgUQzFUgmBVAMFeBYFYAwVwFglkBBHMVCGYFEMxVIJgVQDBXaREM9A8I5iYQzBIgmJu0CFYGfQJTRFeBYFYAwVwFglkBBHMVCGYFEMxVIJgVQDBXgWBWsNuCgf4BwSwAgrkLBLOA3RYsYY4Deg2miFYAwVwFglkBBHMVCGYFEMxVIJgVQDBXgWBWAMFcBYJZAQRzFQhmBRDMVSCYFQyCYJWqKWylUp3hp+naTLk4KcUuMQMtpkUw0D/6L1hVMJWnJzK0Xq2YUpRZ9ZopbWFONlUK2ZnyufNHdRszRS+o3a5C5vw3TMlWIJgl9F2wC0pex69MtZVtoo+Bhr9voknR9y5GD2gGz1/q+CoKC7xpbpHcqvm/1m3ErM+v6DfbvPi0DNyKPZEtItjexvNMAWyhK8HmL1/pHMEuqEhcacv8JXXVnNSFy7kz0fPbhK7GeKeTvtK4RpumGjxqqnEi7Fa4/qtq9YI/3vHVV5aOtd82639gSv0Ggg0A2wk2ecGcz/6NTuc/sU30MTSunjd9Liye9W9G96UHVxsfdjrAVOO3tEkCGJU/CrpVGh/zwKXljnJPLfHANty69KR/EHqFK4KRXjCsE9sJVlN6W1WdNedq9YK6/nJ15XdSXFz9+0/KtRW1vLD2CZ3ytxdzd5LUr7gyc1tdvbvGQ+or782Uq/6HF3SgotJdP2P6np4JB9f84dp5dUOOFu6nPHXB//T1vD/MZnEYM3GsyFO8aSmWlz49WlxJnONAVrm9rvQ4M7DxGb+Wz6kuj1Oz66s3vqBD+vcW1r7gbn0Hgg0A3QhWU2b1VVTXk/fVco5CABfvLi7MbDzIfbn2+5ny5PrqWP58jky8cOnS5bXkXfUVDdjgx5r/dd7/msdTvOJYVF+/nMw/UF+XNx6oO2u/T5RnF7+8PLai2Jnp9dVs/jwXi41Pk/f95RypeU4vvkSw6QYvvGo+zxanGuOJ2QeXLi8kZ6YLNG5e/YFaaeDZ+/499UaQ6OBHbry7vnD0mwf+t3xIG4BgA0A3gl1QD2kFVi+X1y9TQ1FdnClX1r/kYEHLshqJQnFn/Uvuu76aKM/n7lCxJErN8wAKXxS6qDuZVm5cTJQL3Lfqky3cwt0UD+FNFdlWLqwepeUae8yNeoARrCTzRG3Od2q4fEvdoX40jid+6VXSMX1dBrKHOtFBj2b7FB2yMcqv3AYcEUzkgmEd6CRYZWVt7XJuYW0tP0PKcMZuYaamHvIWPztDoSlIKeocx23RrLxCFX+Z91j1KZhNi1e8zmpcJSn9qzN10kpbNcsjghyHLKU403HbP8ENc+q1mv8PNFZyHGaGaMKWcEudyd9dz9EySy/DzulN7F2tIQM5x6ETHfz4TaiVPTkOCDYIdBKsHgh2d6bsL3ASsVJ+QPGpXJ5U35NzHJoEnaaQ2CaCiVkE2VSeW+RWlosDHM8Oi/7NmXl1ce2SWqa9hDkOFkgyHQW9HxLsFgUxXmuRQ9q1cKbILJHxnz66wvLxrLBc4KilBbu1yNLKwGlJdPDjLQ6Hgj05Dgg2CHQxRQxzHP4CP9+mdRUHI2nSIlFd5xn9ixTmePFFyi0kZBbImQ1STb1W5OcNP0NTwWR+Quf8dXqeIpN5rDR0poMmhjI3pP7DTbG0c4xOdzC1BnWgICVJxfISzQv5v3L5G85x1PihfK7xWWVpRLYTP4SlvuOGYEYtGNaeLgQLchxVRXNDMid3NJpX9F8XiaRepErwthgFMx3AZEZY82+ScRRiFinEBXJo94KJIj9WtTjkoo5q5QLnOPTFHGRf+K5Xc7I4K4sxE8eKtD6basj7X+lmjoOKU0uynZhaClP9fQeCDQBdCBYoU1ccwS5wjqOqJGJVuA8vqEwEm+cch3nLa0Od8eX6DUnRT/vXcxzZKC7Vm9EvyHHIEH40EYxCVUUi2KzPj0awkiyupniw1orRMz4TwXh2WJEINuvzowjGxSm9nV+vPTkOCDYIbCfYxHk5F8P11nru+8mVS6tj1LqeO1tNnX+P1kcqe2WC8yBnq5MP1E0zZSRKwUVRok/d9zj8cY6jPK8+rFYn+E3smn+NB+uJojzOqzNXJh8rMumW+i0dbJFHGcFkHTUr67HmkmpJR7Vb6g9mnAyco4HUPud/REWfQlqatpfmadlXaxzjQ1qBE4KFYsGwtmwnmCG8jqO4mPOufsI5jnJ1Pects2kVKtAksb6iPO/OlWDKSFT9ZX6TNzCOE/g897tJfeep7zLPKXnwhzP6Og79WJ/j/fyKStO0bfwTfR2HCDZt8vO8HjNLLp4b6hlffc4348rTBUUDdXojLE5R6R47V0krz5ZJIgQbALoQLELkcsR63RRMW2XTte0bquWaqBaafbde39jcJpNB5pzPgunLpToSOX44MFoMX29ka5+BYAPA0wnWPZP8btkOUWpQ1JK8u1u4IFhEKxjWjl0SrK6v7NgZ6pzduNXh0yd7GCcEi2CaQJRdEqz2+09MaSeoXZmp1PgKY7dwYorIQK3O7NYUETwZCDYAQLD+AcEGAAjWPyDYAADB+gcEGwCMYMpL6BvbaKjS/PG9o/Jjnrb+bK7rn2bptUbLT5NNG/TP5nr4472x1OZncz38MTSbfvA+iPy0VJo/5U314CdS+Ufvn4KfJmHTpp/Ndfr555953j9DsAFBCxaVC/QCNgyCDQCYIvYPCDYAQLD+AcEGAAjWPyDYAADB+gcEGwAgWP+AYAOAdYLV+WtUbPlI5O4CwQaALgXrcGP6yXx+0hSfhmqt86XAc5cS5WLkWx4cBoINAN0JNqm8700xQmlRbpj4NB/80p+KvC038W1LvcE38jA3QnQcCDYAdCfY7cWc3Mm3hQ315Wly70EuvInNk9E3Y6vQNLADG/Lp5dntP73sCBBsANhOsPDbVcrrj+4rfYeNJhX/uh46L/eL6g4t2DbMy+cqS817+DoMBBsAthMsuDd9eUI9nNR3QiyuzNTO527wEmpD7n7DbX52htpL53N81xtig0ryPSfFlcSGIqVKK8q7QduCb1MprvAOag/U8iP+GCV14y9X4baKvjFiPbyxqMtAsAGgK8EuLCbMzbFr6uri2H3Ft59/wF+ywlTkfr7UfndRYtnjxbH8fblJac2/urhwKVFbf5S/u7j6OYtmvq7oa+qmxvP3/eUvuNv4YpaKtL+ivpfikyOdC0CwAaArwfjOa7cVf6lWTX1JMafGwcv3gnWSCHadppBVvsObvhXpbZVhc9gfvt8nq8O3ZdPisGA1qdOIBBXv0OAau6Xvoh298aHDQLABoJNg0W9XKfG9s6vyNbD6C1bkztmbBLvJpeatfataF7k1tqDvmN0UzNzO9LF6jap8hze5bfaGEczca9RtINgA0Emw6LerPBAXWB4SjO9T304wuQm2/voiGrV2ibuYW2OXK6X71NAqmJkEzqlhqrJVIticgmB7DwjWmS6miJXg02IUvCKChWswnhhGBbuezDM8ldSCFf3rj2hV1o1giGB7EQjWmS4E21BXWZi7PEeMCBZmETfU+4FgHOV8/rZKjRFM8iObp4gN3Y1NigiGNdheBIJ1pgvBgi9/mKeQFRGsor/Kslzn98Nq8nUrkuS4YL4gjDCCiVXTmwSbpdDF+XhJcoSCIYu4F4FgndlOMP3tKnX9tWD6ja+IYFRfHpucvK0k0668i6cn1nMkVNW//l61mlqhHkaw+dzNKm1jwag4UZH2qr/8PbWuSpo+FKyuL5IyT44DwQaA7QTT1CQ/T9QpSkUFK0+e52sRb/B7xTX1/ory5Gthy1X+TuflR1Q0gtWpYfmhRDD+zpSvdPs0f8nKRXnHuSmY+b7zkvnSWLeBYAPAkwXblqr5zhJeg1WC7y/Z8k0rza82oRHmmai0uUT/Nq5F3HtAsM48p2ABJsnx/FT11fTylXyuA8EGANsEk8+DlfB5sD0FBOvMDgk2KZfv7gT4RPPeA4J1ZocEA88ABBsAIFj/gGADAATrHxBsAIBg/QOCDQAQrH9AsAEAgvUPCDYAQLD+AcEGAAjWPyDYAPBT/VlK0BcgmPNAsH4CwYDV/NH7F1MCfQSCuQoEswII5ih//Bf+Af0GgjkKBLMDCOYoEMwOIJibiFwwrP9AMDeBYJYAwdwEglkCBHMSoxYM6zsQzEkgmC1AMCeBYLYAwVwkFAuG9RsI5iIQzBogmItAMGuAYA4S0QqG9RkI5iB/NB+pYiBYf4FgzoLgZQMQzFkgmA1AMGeBYDYAwZwFgtkABHMWCGYDEMxZIJgNQDBngWA2AMGcBYLZAARzFghmAxDMWSCYDUAwZ4FgNgDBnAWC2QAEcxYIZgMQzFkgmA1AMGeBYDYAwZwFgtkABHMWCGYDEMxZIJgNQDBngWA2AMGcBYLZAARzFghmAxDMWSCYDUAwZ4FgNgDBnAWC2QAEcxYIZgMQzFkgmA1AMGeBYDYAwZwFgtkABHMWCGYDEMxZIJgNQDBngWA2AMGcBYLZAARzFghmAxDMWSCYDUAwZ4FgNgDBnAWC2QAEcxYIZgMQzFkgmA1AMGeBYDYAwZwFgtkABHMWCGYDEMxZIJgNQDBngWA2AMGcBYLZAARzFghmAxDMWSCYDUAwZ4FgNgDBnAWC2QAEcxYIZgMQzFkgmA1AMGeBYDYAwZwFgtkABHMWCGYDEMxZIJgNQDBngWA2AMGcBYLZAARzFghmAxDMWSCYDUAwZ4FgNgDBnAWC2QAEcxYIZgMQzFkgmA1AMGeBYDYAwZwFgtkABHMWCGYDEMxZIJgNQDBngWA2AMGcBYLZAARzFghmAxDMWSCYDUAwZ4FgNgDBnAWC2QAEcxYIZgMQzFkgmA1AMGeBYDYAwZwFgtkABHMWCGYDEMxZIJgNQDBngWA2AMGcBYLZAARzFghmAxDMWVwRzAN95K/MX2E3+Kk5BugHf23+ChCsr0AwV4kIFgN9Qu2yYC+Y44Be8zMIZgMQzFUgmBVAMFeBYFYAwVwFglkBBHMVCGYFEMxVIJgVQDBXgWBWAMFcBYJZAQRzFQhmBRDMVSCYFUAwV4FgVgDBXAWCWQEEcxUIZgUQzFUgmBVAMFeBYFYAwVwFglkBBHMVCGYFEMxVIJgVQDBXgWBWAMFcBYJZAQRzFYsFG/GGTMl9IJirdBQstd/zDmQTprZzJONMsosdx72MKblPLwUrncx5r147amo7Sumk8m7tzq73Kh0EG0qTXqSYN2wanonh1FaP9L3iPG/U1DuzrWDtdr2H6Z1gQ4dJr/05z3vLNDwLX6XaScS7vrVfed7UQdOyDe134R7tBSO/RvgEHj2Q0g3PRjtFPGnL6qdt2VYwx8JbzwQjCd7lM3v0xZe7sKATp9Q7phQh2PWJN7vZ9SlVf44XsHdoL1jci5vSc8WJzoLRpqxUtwGC7RQRwY7k3jbn9fP8ZdsKdkq9Yg7Tza4HWrAhz2v5He2jVVNWn9AjqdjwSDxuZo4JWlGNSJnaU/E4j+JF1j5uyqQOeNlUSsaFjYFgKVG4OSp6jNhQNh5PaYcS1IVJ6V7mgNFdO0GvBBtS3mumKBw6Qr/1X0txPHVweDwe/0wqsUSeftFcpubSkbhM56gpXiQrMqkXc8eC336e9sCNsSHf+0BahKsv8zA5VthDH27k11T+vPSi+lMqxUXzGqRDZJQrtBUs5e03JYbXY3H6j8/0jBen2V2whBqlViIZtme4837qzONTspGHRRpbBAtHtRwjNirj9u/nDdSFm0zECg7Y3LUj9EqwknpJn+oCL5rePp7zXqe2jHolS8snz5vkDidoC3HmYMaXZgpY1PmX8eO5X75AO+Ft3ofUsdkYK/n8aMg0Xsn6nlenHn8Oe1Cx8PaLynt4kDoHu6BG7y/0Gj6ivX3e+Ms1HhV5iXuetoLF2ZkQChb0uE9EyNBvhSJRykvzljSXEyOiCp/u1OGAqJfVE8BgHhdtNILJIcJRLceg3ZI5w+QSVVoFax4QU8SnoCnYkdyZyNn7Zu4Y1Q4p7+f0iyZrJujMVwXuezhH5cR4nATzyD/+Xb+ZO02dxxQPCaeIkcZT6g/NXWcabI8MU9LD/xO5dIpj5SH/1i/oKZgi/qv6Ex3wUIO1+pxGfXTw8+ZuHKCDYJHYsM+c4klvRJSQ2HWAz+9gC0Ht4uQ+s7TS+zIWtDRqh0glmvIFo1qPYSoU1Khni2CRA0KwpyAqGEcrwyGl12N59e5BFkxi15s5cueQesV0I8G0kod8NisW8z3SIxAsaGx4/4vaOKQZSDCt2yE2i+AeBl00gh1q/EVeW97/3y+wYBFJ3eDJgsVNRp1sMA+EnN/BFiJoHzF5fX3+GwtaGmnuF+fJIA8NRoV7koYRDlOEdG8RLHJAs2tX6ItgR3KT8kxu/UI/cCO7c0SJbAQJJs2xcTUlz+JWIBg1Sj+ubxZMC3U17EHTRY1Wywh2yqcJI0Fu/Zt+cIwnCybBiuHtLYKFW6LtAbzJWNDSKM8HsnKRRihYyzECd+S5RbDIAYNOjtAXwd7M0dSQYYlaBJMwJoSCHdELLyIi2KlIY3vBmj1YsK844XE8FxHsX81MMbY0SIJleaYWoF2RQlQkagy3RNuzKY2uSYeWxsigpmAtxwjckecWwSJjg06O0CvBxng2GODz2ksXNgnms0VCRLBj5o8odgSCNRtbdh0R7E9hj9jfqsLbmwRbClIaAyXYqM5haOJmgpfg7S2CSZpP09IeYmotjW0FazlGUJFhLYJFDth6oD1PrwQb1TkMzZGcvpojsWWKeLJdBAuaiKZgzcYTfkH3ZCKChVPD2BivswK1wiliVQRLDNQUUefxDFmTiBg1SQ6pyPk90kw2Bu1BZ41RpaWxrWAtxwgqMiEU5YJK5ICBhY7QK8FihyNzxDGl8xejJsnRFGzcbIkIFnQWTpmV1Vg0c/jnXHOOGAo25jd7GNkCwcSsu2b7iYZOcgyIYClJxtPpHR8hC9KyYEpzhqFFMAp0vGU422wPOsfkMamFaGlsK1jLMYa9NL+pvF/3TItJuhI5oNm1K/RMsJLiZDz9ZY+MHMyowt9w22FOdrQIdkJvGR7jNL0WLOPrzvJHzBvbWhpLvvee7PrUyAuhYJlG4e+kQD20UyckIx/La7M+N9v/nHsoafoBEYyiiJeOx+m0pkiW9dLZVDItufYWwei0TydT8Whk487JVCp5QCZ2JEQyS8pEG9sK1nIM2W3yQHpEeib5feWg0jxgsGtH6JlgFHQ8Wgjtl3eXx1ThWip5XN4NaxGM5oiFs6kjFNlCwbjzWfojvhinfdF08Gx2mkYFjW/zAcyuFb8DFghGIaxwxvQo+YWJYarLGuxEo3CGd3HXLxxLJQ/n+N2wARIsNsqX0nv6MqgUXz+RlknjkFmdmSWQXNXBUgTtprO3X0/geDuHwkijvLtlaI6KHoP37nnxoZTuSYY1K+EBw127Qe8Ei42e5Is03pVLokrHqVyQa3OHfL06M2stksXzSLygmZDO3i8/4968WcJVSS750I2xEyd51LtUGWqECzLT4y3qkffpaJMp/9+5/S5VeBeyvSAT18goZ+gkGJGJmJCRGVwbIp0ChqJtGbmEcFNjW6LHSATDhJaDN/fT0meP00PBiJ34y4a//da/bJtR0R6ZjJio+Tw8Nzq9BgfYRjDQO3orGOgdEMwKIJirQDArgGCuAsGsAIK5CgSzAgjmKhDMCjYJ9lNvR4WDYP0DgllBVLAdtouAYP0DgllBKNjO20VAsP4BwaxAC7YrdhEQrH9AMCsgwXbLLgKC9Q8IZgXmc79sWVeP225s8wjB+gUEswJEMFeBYFaANZirQDArQBbRVSCYFYSCETvvGATrHxDMCqKCETvsGATrHxDMCjYJtsNAsP4BwawAgrkKBLMCCOYqEMwKIJirQDArgGCuAsGsAIK5CgSzAgjmKhDMCiCYq7QIBvrH7goG+gcEswII5ioRwcqgT+z2FDFhjgN6TcsU0bSBngPBXAWCWQEEcxUIZgUQzFUgmBVAMFeBYFYAwVwFglkBBHMVCGYFEMxVIJgVDIBgVfPcjqkZfqzXZsrFCSn2Bf0qdhgIZgX9F6wq1E3tqalG/ImWQ2r+CVPaylTjDJ/bc5cS5WLj17rNMFVLfWKKz8cU/99ta9DUD/+xC/8OQTAr6LtgVX1v4YW2p2C1YgodqfrecnCM+Zz3lSkKevSTBas3fkuPS9ciL6G4nqMXdecLU30Kpja95Kkl/t+79/42inUUbPO+ngoIZgUWCHb1Cv0b3/5U8i9uc14KVf96zpy80/4d9bWUDI2LfPQnC7bhv0bl2cWjupEoNj79/nf1ifmzTzr8Vn74TXM3zNTSyJXqREH9Z+dddRTsH/+rdV9PBQSzgv4JNnlBTrmq2uYs7kaw7OKCPsiF80n/mQS7JTsoNU4EB6s0lvWZ/QwRZKtgf6C9Ty1tao4CwRymf4LVlGxrClZayXk3rkjx9vncjdPl2opaXljjlVDtQW750e+oUFyZ2VAXX17hMg1IkGBn7qsM1yr+mbwItnFe3UnOhKNJsNp5dUMvqGoPlN5RuX7BX86eZsEqeiFWlyfJdWz4PGc08JCr+tiJ2rz6WE8bz51XH5+eoaZvGr/h/49v5tW3clD/3sIad5EGUYsFK//gfVAuzh2l3uTMj4/9e1c/5928M9u4d+30EglWnPuCjvnO3Pd85HPz/qmHtZXGvYtr3PpMQDArsEew2uKj/N3FVT7v1lfH8isqkwoEe5y7mr+vlum8ramriwuXTvtZHjN/WQT7RNc2/EyNBXu8OEadr82UQsHuLGbv+xKTHqvxPBV5pVbIjd9dX82RVEVZgtEijE1Z8t7gbs2Ex3fhkFpjfJ12dI/nk+nVbH7F/zk3LVyiPX+3mM3fbxxLlALBuOE2NYSCfXu0/GNjRHp/548kbzfuDdNR02rkbmFVkWA/Lk1TXQez46vX8iuN/4BgDmCBYLIGM9Oxonp9pnxb/YqLdGbpKWKNG0mlGxQhRLPyOqlFa64PZ1iwmflV3lPh72dYMJGMdkGKBFPEOyRtzaeVWo1H0Lzw4wTpyMXHigSjEMdHKd+6TKYUVulBLNPUGh8FQ2oN2RHreM4fpdbiTK1xT9IqtQbXzzV+HkwRmw1asB8b9PijlurHpf/Du/zhVKL8TYOL3/mtgp1rcJH+/zFF3Pv0R7DKytra5dzC2lp+xmQRTRiTeCb6CFowjlTEY3WUBGMvyB86r2/z1JAFK7E8Rf+mCDZ/iTtXuSkQ7CYNqfIEMNzRa+VbLJJeg20Yweb8QKuIYGIdx7E3SJp/oH4kzEw5fV2f+Vo/6sVRjDb93xkjWLOBVl9JCnYUwEgw1qn86mWOgaTVB+VXF7koVkUEO35dOmAN5gL9EaweCHaXBDMRrFxJ3V+7lCPBmqkNXTL1FbKqpvOEdZ4VrnNuggUTkx6TPCxYg+aFa2uXODRFkxwimG4oz6lhUxTB5tQ2gsm8kbd9RjZxPxHMtJpARb1oXkgH9WmTFuyHoCEhafpvz3L/H3Vvkwb5b/+tGV3cLFjoFQTb+9izBiuq649o8dSVYGWaFU5zkNKCUSyr87MI9mkyz/yuNYu4jWBbI1hkDdalYJ+eDQ5qBAsbzBqMgWADiD2CycRQav6XuiUU7EvpuSJTRC1Yyb95m6pGsKqfvU/TPi3YnfCQWwXT2+aob0GmfiJYyxpM2OCdapbuSCPLFxWMZ3xEKJipE0awsKGNYHrbf9MUMS2TwS2CBYMh2N7HHsF8vphjkmsXeIVV5ountGCmrpMcWrCKf3XxEW8TwSig5a7SEws2K52FLYLNUujifPzHifKsz8VZHt2SRazzYSsNSTSW65MzsxS6qLAkSY5QMNMaCqbrghaMGmRDO8FmG2/R0zuc5NDF/2mQVUVJfZzj4v/oDkhyuED/BJs4z2dbU7D53MPqxCKvwSbV9feqG6zSfO7mRIUkWv6+OrG+Kml6LRhJ53HuwghW8z1uZ8Gq/qffV6upFTrwvOLREcGqDb0jsme6cefh5Ios1eoNuUhKP+nlV7HhjefzF/xrM1ON5ferEwUeEhFsukEH2WiMBoJNLfFBSyvkwy31nxM8MQwatgo2tXRPdjlM+1n69uHk3CXOIlbSq++b4vQP/+/96gZFtFf9Q7SvZwSCWUH/BDOEgtXP57zl01IrLlIxSYXJdbm8cJI2eRflHedAsKKvL0HUglX861xjwcrVeeV5yxzepmn0cFSw8jRvu8iJfrna8GJCWgsyBS1JklDS9NTxMXX8lF+LDPkND4kIVi4WlHfv7EwgWHnqFvW6d5X2M01bKJyFDVsFK0/f8nmXXOb9/NdRnhduLt47Q6allcfB7JmAYFbQd8EiyPRMExbN9fGVzdfJ132eE7anEl7ZuPXq+ko1HBZeSntuy7WITPgZksiQCJEXKzQPagY2G7bS7lW0FN8x198/xwdZIJgV2CTY0yDvhO0QU/pq+vHdeq39AYJZwV4VrPlm9A7Anwcrbfo82J4HglnBHhWsvvLes0+ettDvTzTvChDMCvZqBANPAoJZAQRzFQhmBRDMVSCYFUAwV4FgVgDBXAWCWQEEcxUIZgUQzFVaBAP9Y3cFA/0DglkBBHOVUDAAAAAAAAAAAAAAAABoy09+8v8Bw7DJ/eUIJRUAAAAASUVORK5CYII=;" vertex="1" parent="1">
          <mxGeometry x="670" y="4240" width="864" height="350" as="geometry" />
        </mxCell>
        <mxCell id="82DQThB_2eSPjRUzrq8_-56" value="Product" style="swimlane;fontStyle=3;align=center;verticalAlign=top;childLayout=stackLayout;horizontal=1;startSize=26;horizontalStack=0;resizeParent=1;resizeParentMax=0;resizeLast=0;collapsible=1;marginBottom=0;whiteSpace=wrap;html=1;" vertex="1" parent="1">
          <mxGeometry x="680" y="4733" width="160" height="52" as="geometry" />
        </mxCell>
        <mxCell id="82DQThB_2eSPjRUzrq8_-60" value="&lt;i&gt;Creator&lt;/i&gt;" style="swimlane;fontStyle=1;align=center;verticalAlign=top;childLayout=stackLayout;horizontal=1;startSize=26;horizontalStack=0;resizeParent=1;resizeParentMax=0;resizeLast=0;collapsible=1;marginBottom=0;whiteSpace=wrap;html=1;" vertex="1" parent="1">
          <mxGeometry x="1000" y="4720" width="160" height="78" as="geometry" />
        </mxCell>
        <mxCell id="82DQThB_2eSPjRUzrq8_-67" value="+AnOperator()" style="text;strokeColor=none;fillColor=none;align=left;verticalAlign=top;spacingLeft=4;spacingRight=4;overflow=hidden;rotatable=0;points=[[0,0.5],[1,0.5]];portConstraint=eastwest;whiteSpace=wrap;html=1;" vertex="1" parent="82DQThB_2eSPjRUzrq8_-60">
          <mxGeometry y="26" width="160" height="26" as="geometry" />
        </mxCell>
        <mxCell id="82DQThB_2eSPjRUzrq8_-68" value="&lt;i&gt;-FactoryMethod():Product&lt;/i&gt;" style="text;strokeColor=none;fillColor=none;align=left;verticalAlign=top;spacingLeft=4;spacingRight=4;overflow=hidden;rotatable=0;points=[[0,0.5],[1,0.5]];portConstraint=eastwest;whiteSpace=wrap;html=1;" vertex="1" parent="82DQThB_2eSPjRUzrq8_-60">
          <mxGeometry y="52" width="160" height="26" as="geometry" />
        </mxCell>
        <mxCell id="82DQThB_2eSPjRUzrq8_-61" value="ConcreteCreator" style="swimlane;fontStyle=1;align=center;verticalAlign=top;childLayout=stackLayout;horizontal=1;startSize=26;horizontalStack=0;resizeParent=1;resizeParentMax=0;resizeLast=0;collapsible=1;marginBottom=0;whiteSpace=wrap;html=1;" vertex="1" parent="1">
          <mxGeometry x="1000" y="4880" width="160" height="52" as="geometry" />
        </mxCell>
        <mxCell id="82DQThB_2eSPjRUzrq8_-69" value="&lt;span&gt;-FactoryMethod():Product&lt;/span&gt;" style="text;strokeColor=none;fillColor=none;align=left;verticalAlign=top;spacingLeft=4;spacingRight=4;overflow=hidden;rotatable=0;points=[[0,0.5],[1,0.5]];portConstraint=eastwest;whiteSpace=wrap;html=1;fontStyle=0" vertex="1" parent="82DQThB_2eSPjRUzrq8_-61">
          <mxGeometry y="26" width="160" height="26" as="geometry" />
        </mxCell>
        <mxCell id="82DQThB_2eSPjRUzrq8_-62" value="ConcreteProduct" style="swimlane;fontStyle=1;align=center;verticalAlign=top;childLayout=stackLayout;horizontal=1;startSize=26;horizontalStack=0;resizeParent=1;resizeParentMax=0;resizeLast=0;collapsible=1;marginBottom=0;whiteSpace=wrap;html=1;" vertex="1" parent="1">
          <mxGeometry x="680" y="4880" width="160" height="52" as="geometry" />
        </mxCell>
        <mxCell id="82DQThB_2eSPjRUzrq8_-64" value="" style="endArrow=block;endSize=16;endFill=0;html=1;rounded=0;" edge="1" parent="1" source="82DQThB_2eSPjRUzrq8_-62" target="82DQThB_2eSPjRUzrq8_-56">
          <mxGeometry width="160" relative="1" as="geometry">
            <mxPoint x="800" y="4840" as="sourcePoint" />
            <mxPoint x="960" y="4840" as="targetPoint" />
          </mxGeometry>
        </mxCell>
        <mxCell id="82DQThB_2eSPjRUzrq8_-65" value="" style="endArrow=block;endSize=16;endFill=0;html=1;rounded=0;" edge="1" parent="1" source="82DQThB_2eSPjRUzrq8_-61" target="82DQThB_2eSPjRUzrq8_-60">
          <mxGeometry width="160" relative="1" as="geometry">
            <mxPoint x="800" y="4840" as="sourcePoint" />
            <mxPoint x="960" y="4840" as="targetPoint" />
          </mxGeometry>
        </mxCell>
        <mxCell id="82DQThB_2eSPjRUzrq8_-66" value="" style="endArrow=open;endSize=12;dashed=1;html=1;rounded=0;" edge="1" parent="1" source="82DQThB_2eSPjRUzrq8_-60" target="82DQThB_2eSPjRUzrq8_-56">
          <mxGeometry width="160" relative="1" as="geometry">
            <mxPoint x="830" y="4840" as="sourcePoint" />
            <mxPoint x="990" y="4840" as="targetPoint" />
          </mxGeometry>
        </mxCell>
        <mxCell id="82DQThB_2eSPjRUzrq8_-70" value="" style="endArrow=open;endSize=12;dashed=1;html=1;rounded=0;" edge="1" parent="1" source="82DQThB_2eSPjRUzrq8_-61" target="82DQThB_2eSPjRUzrq8_-62">
          <mxGeometry width="160" relative="1" as="geometry">
            <mxPoint x="830" y="4840" as="sourcePoint" />
            <mxPoint x="990" y="4840" as="targetPoint" />
          </mxGeometry>
        </mxCell>
      </root>
    </mxGraphModel>
  </diagram>
</mxfile>
